<svg width="8" height="12" viewBox="0 0 8 12" fill="none" xmlns="http://www.w3.org/2000/svg">
<path d="M2.0014 0.18457C1.94216 0.125326 1.87494 0.0797527 1.79975 0.0478516C1.72455 0.0159505 1.64366 0 1.55707 0C1.43858 0 1.33148 0.0273439 1.23578 0.0820316C1.14007 0.136719 1.06488 0.210775 1.0102 0.304199C0.955506 0.397624 0.928162 0.503581 0.928162 0.62207C0.928162 0.795249 0.989685 0.943362 1.11273 1.06641L6.45844 6.30274V5.57129L1.11273 10.8076C0.989685 10.9352 0.928162 11.0833 0.928162 11.2519C0.928162 11.3704 0.955506 11.4764 1.0102 11.5698C1.06488 11.6632 1.14007 11.7373 1.23578 11.792C1.33148 11.8467 1.43858 11.874 1.55707 11.874C1.72569 11.874 1.8738 11.8125 2.0014 11.6894L7.41547 6.39843C7.47927 6.33919 7.52826 6.26969 7.56244 6.18994C7.59662 6.11019 7.61371 6.02702 7.61371 5.94043C7.61371 5.76725 7.54763 5.6123 7.41547 5.47559L2.0014 0.18457Z" fill="#CACACA" fill-opacity="0.85"/>
</svg>
