<svg width="29" height="29" viewBox="0 0 29 29" fill="none" xmlns="http://www.w3.org/2000/svg">
<g clip-path="url(#clip0_665_230)">
<path d="M14.5233 3.04965C18.2676 3.04965 18.711 3.0639 20.1897 3.13137C21.5569 3.19377 22.2994 3.42221 22.7936 3.6142C23.4481 3.86858 23.9153 4.17251 24.406 4.66319C24.8967 5.15387 25.2006 5.62106 25.4549 6.27556C25.647 6.76974 25.8754 7.51224 25.9378 8.87941C26.0053 10.3581 26.0195 10.8016 26.0195 14.5459C26.0195 18.2902 26.0053 18.7337 25.9378 20.2123C25.8754 21.5796 25.647 22.3221 25.4549 22.8163C25.2006 23.4708 24.8967 23.9379 24.406 24.4286C23.9153 24.9193 23.4481 25.2232 22.7936 25.4776C22.2994 25.6696 21.5569 25.898 20.1897 25.9604C18.7113 26.0279 18.2678 26.0422 14.5233 26.0422C10.7787 26.0422 10.3353 26.0279 8.85683 25.9604C7.48961 25.898 6.7471 25.6696 6.25297 25.4776C5.59842 25.2232 5.13123 24.9193 4.64055 24.4286C4.14987 23.9379 3.84595 23.4708 3.59162 22.8163C3.39958 22.3221 3.17113 21.5796 3.10873 20.2124C3.04127 18.7337 3.02702 18.2902 3.02702 14.5459C3.02702 10.8016 3.04127 10.3581 3.10873 8.87947C3.17113 7.51224 3.39958 6.76974 3.59162 6.27556C3.84595 5.62106 4.14987 5.15387 4.64055 4.66319C5.13123 4.17251 5.59842 3.86858 6.25297 3.6142C6.7471 3.42221 7.48961 3.19377 8.85677 3.13137C10.3355 3.0639 10.779 3.04965 14.5233 3.04965ZM14.5233 0.522949C10.7148 0.522949 10.2374 0.539092 8.74166 0.607336C7.24903 0.675469 6.2297 0.912487 5.33769 1.25916C4.41556 1.61753 3.63353 2.09702 2.85396 2.87659C2.07438 3.65617 1.59489 4.43819 1.23652 5.36033C0.889848 6.25234 0.65283 7.27166 0.584697 8.7643C0.516453 10.2599 0.500366 10.7375 0.500366 14.5459C0.500366 18.3543 0.516453 18.8319 0.584697 20.3275C0.65283 21.8201 0.889848 22.8395 1.23652 23.7315C1.59489 24.6536 2.07438 25.4356 2.85396 26.2152C3.63353 26.9948 4.41556 27.4743 5.33769 27.8326C6.2297 28.1793 7.24903 28.4163 8.74166 28.4845C10.2374 28.5527 10.7148 28.5688 14.5233 28.5688C18.3317 28.5688 18.8092 28.5527 20.3049 28.4845C21.7975 28.4163 22.8168 28.1793 23.7088 27.8326C24.631 27.4743 25.413 26.9948 26.1926 26.2152C26.9722 25.4356 27.4516 24.6536 27.81 23.7315C28.1567 22.8395 28.3937 21.8201 28.4618 20.3275C28.5301 18.8319 28.5462 18.3543 28.5462 14.5459C28.5462 10.7375 28.5301 10.2599 28.4618 8.7643C28.3937 7.27166 28.1567 6.25234 27.81 5.36033C27.4516 4.43819 26.9722 3.65617 26.1926 2.87659C25.413 2.09702 24.631 1.61753 23.7088 1.25916C22.8168 0.912487 21.7975 0.675469 20.3049 0.607336C18.8092 0.539092 18.3317 0.522949 14.5233 0.522949ZM14.5233 7.34492C10.5463 7.34492 7.32228 10.5689 7.32228 14.5459C7.32228 18.5229 10.5463 21.7469 14.5233 21.7469C18.5002 21.7469 21.7243 18.5229 21.7243 14.5459C21.7243 10.5689 18.5002 7.34492 14.5233 7.34492ZM14.5233 19.2202C11.9417 19.2202 9.84893 17.1274 9.84893 14.5459C9.84893 11.9644 11.9417 9.87157 14.5233 9.87157C17.1048 9.87157 19.1976 11.9644 19.1976 14.5459C19.1976 17.1274 17.1048 19.2202 14.5233 19.2202ZM23.6915 7.06042C23.6915 7.98979 22.9381 8.7432 22.0088 8.7432C21.0794 8.7432 20.326 7.98979 20.326 7.06042C20.326 6.13105 21.0794 5.37769 22.0088 5.37769C22.9381 5.37769 23.6915 6.13105 23.6915 7.06042Z" fill="white"/>
</g>
<defs>
<clipPath id="clip0_665_230">
<rect width="28.0459" height="28.0459" fill="white" transform="translate(0.499512 0.529785)"/>
</clipPath>
</defs>
</svg>
