<svg width="40" height="29" viewBox="0 0 40 29" fill="none" xmlns="http://www.w3.org/2000/svg">
<g clip-path="url(#clip0_665_217)">
<path d="M29.7555 24.4552H24.5964V17.9395C24.5964 16.3857 24.562 14.3856 21.9131 14.3856C19.2261 14.3856 18.8149 16.0784 18.8149 17.8263V24.4548H13.6558V11.0557H18.6086V12.8868H18.6779C19.6878 11.4943 21.5656 10.6626 23.5646 10.7224C28.7935 10.7224 29.7576 13.4962 29.7576 17.1047L29.7555 24.4552ZM7.83463 9.22416C6.18114 9.22439 4.84049 8.14358 4.84019 6.8101C4.83989 5.47661 6.18007 4.39542 7.83355 4.39518C9.48704 4.39494 10.8277 5.47575 10.828 6.80923C10.8281 7.44959 10.5128 8.06378 9.95148 8.51666C9.39011 8.96955 8.62866 9.22404 7.83463 9.22416ZM10.4142 24.4552H5.24969V11.0557H10.4142V24.4552ZM32.3275 0.531391H2.65724C1.25496 0.518629 0.105005 1.4245 0.0878906 2.55538V26.5828C0.104419 27.7142 1.25428 28.621 2.65724 28.6091H32.3275C33.7333 28.6232 34.8876 27.7165 34.9071 26.5828V2.55365C34.887 1.42053 33.7326 0.514713 32.3275 0.529475" fill="white"/>
</g>
<defs>
<clipPath id="clip0_665_217">
<rect width="38.975" height="27.743" fill="white" transform="translate(0.0878906 0.529785)"/>
</clipPath>
</defs>
</svg>
