<svg width="167" height="44" viewBox="0 0 167 44" fill="none" xmlns="http://www.w3.org/2000/svg">
<path d="M5.77768 2.39996V19.2H4.21767V2.39996H5.77768ZM12.2577 18.456V19.2H5.70568V18.456H12.2577ZM13.7217 15.312L12.3297 19.2H8.34567L9.20968 18.456C10.0577 18.456 10.7457 18.3279 11.2737 18.072C11.8177 17.7999 12.2577 17.424 12.5937 16.944C12.9297 16.464 13.2257 15.92 13.4817 15.312H13.7217ZM4.28967 17.448V19.2H2.36967V18.96C2.36967 18.96 2.41767 18.96 2.51367 18.96C2.62567 18.96 2.68167 18.96 2.68167 18.96C3.09767 18.96 3.44967 18.816 3.73767 18.528C4.04167 18.224 4.20167 17.864 4.21767 17.448H4.28967ZM4.28967 4.15196H4.21767C4.20167 3.73596 4.04167 3.38396 3.73767 3.09596C3.44967 2.79197 3.09767 2.63996 2.68167 2.63996C2.68167 2.63996 2.62567 2.63996 2.51367 2.63996C2.41767 2.63996 2.36967 2.63996 2.36967 2.63996V2.39996H4.28967V4.15196ZM5.70568 4.15196V2.39996H7.62568V2.63996C7.60967 2.63996 7.55368 2.63996 7.45768 2.63996C7.36168 2.63996 7.31368 2.63996 7.31368 2.63996C6.89767 2.63996 6.53767 2.79197 6.23368 3.09596C5.94568 3.38396 5.79367 3.73596 5.77768 4.15196H5.70568ZM18.4143 4.79996V13.872C18.4143 15.4239 18.8062 16.6479 19.5903 17.544C20.3902 18.44 21.4782 18.888 22.8543 18.888C24.3742 18.888 25.5663 18.464 26.4303 17.616C27.3102 16.7679 27.7503 15.608 27.7503 14.136V4.79996H28.8543V14.136C28.8543 15.8 28.3182 17.12 27.2463 18.096C26.1903 19.056 24.7342 19.536 22.8783 19.536C21.0382 19.536 19.5742 19.056 18.4863 18.096C17.4142 17.136 16.8783 15.824 16.8783 14.16V4.79996H18.4143ZM16.9263 4.79996V6.07196H16.8783C16.8622 5.78396 16.7422 5.54396 16.5183 5.35196C16.3102 5.14397 16.0462 5.03996 15.7263 5.03996C15.7263 5.03996 15.6622 5.03996 15.5343 5.03996C15.4222 5.03996 15.3663 5.03996 15.3663 5.03996V4.79996H16.9263ZM19.9263 4.79996V5.03996C19.9263 5.03996 19.8622 5.03996 19.7343 5.03996C19.6222 5.03996 19.5663 5.03996 19.5663 5.03996C19.2622 5.03996 18.9903 5.14397 18.7503 5.35196C18.5262 5.54396 18.4143 5.78396 18.4143 6.07196H18.3663V4.79996H19.9263ZM27.7983 4.79996V6.07196H27.7503C27.7503 5.78396 27.6382 5.54396 27.4143 5.35196C27.1902 5.14397 26.9182 5.03996 26.5983 5.03996C26.5983 5.03996 26.5342 5.03996 26.4063 5.03996C26.2942 5.03996 26.2383 5.03996 26.2383 5.03996V4.79996H27.7983ZM30.3663 4.79996V5.03996C30.3663 5.03996 30.3022 5.03996 30.1743 5.03996C30.0622 5.03996 30.0063 5.03996 30.0063 5.03996C29.7022 5.03996 29.4382 5.14397 29.2143 5.35196C28.9902 5.54396 28.8702 5.78396 28.8543 6.07196H28.8063V4.79996H30.3663ZM34.8589 4.82396L44.8669 19.176H42.9229L32.9629 4.82396H34.8589ZM35.0989 17.664C34.8909 17.9679 34.8909 18.264 35.0989 18.552C35.3229 18.824 35.5869 18.96 35.8909 18.96C35.8909 18.96 35.9389 18.96 36.0349 18.96C36.1309 18.96 36.1789 18.96 36.1789 18.96V19.2H30.9469V18.96H31.2589C31.7389 18.96 32.1789 18.84 32.5789 18.6C32.9789 18.344 33.3069 18.056 33.5629 17.736L35.0989 17.664ZM38.3149 11.688L38.7949 12.672L33.9709 19.176H32.4589L38.3149 11.688ZM41.8909 17.688L43.8589 17.76C44.0989 18.0639 44.4269 18.344 44.8429 18.6C45.2589 18.84 45.7069 18.96 46.1869 18.96H46.4989V19.2H40.8109V18.96C40.8109 18.96 40.8589 18.96 40.9549 18.96C41.0509 18.96 41.0989 18.96 41.0989 18.96C41.4189 18.96 41.6749 18.824 41.8669 18.552C42.0749 18.264 42.0829 17.976 41.8909 17.688ZM36.9709 4.79996V5.03996C36.9709 5.03996 36.9229 5.03996 36.8269 5.03996C36.7309 5.03996 36.6829 5.03996 36.6829 5.03996C36.3789 5.03996 36.1229 5.18396 35.9149 5.47196C35.7069 5.74397 35.6989 6.02396 35.8909 6.31196L33.9709 6.23996C33.7309 5.91996 33.4029 5.63996 32.9869 5.39996C32.5709 5.15996 32.1229 5.03996 31.6429 5.03996H31.3309V4.79996H36.9709ZM44.4829 4.82396L39.3709 11.928L38.7709 10.92L42.8509 4.82396H44.4829ZM46.0909 4.79996V5.03996H45.7549C45.2749 5.03996 44.8269 5.15996 44.4109 5.39996C44.0109 5.63996 43.6909 5.92796 43.4509 6.26396L41.8429 6.33596C42.0349 6.03197 42.0269 5.74397 41.8189 5.47196C41.6269 5.18396 41.3709 5.03996 41.0509 5.03996C41.0509 5.03996 41.0029 5.03996 40.9069 5.03996C40.8109 5.03996 40.7629 5.03996 40.7629 5.03996V4.79996H46.0909ZM50.2423 4.79996V13.872C50.2423 15.4239 50.6344 16.6479 51.4183 17.544C52.2184 18.44 53.3063 18.888 54.6823 18.888C56.2024 18.888 57.3943 18.464 58.2583 17.616C59.1383 16.7679 59.5783 15.608 59.5783 14.136V4.79996H60.6823V14.136C60.6823 15.8 60.1463 17.12 59.0743 18.096C58.0183 19.056 56.5624 19.536 54.7063 19.536C52.8664 19.536 51.4024 19.056 50.3143 18.096C49.2424 17.136 48.7063 15.824 48.7063 14.16V4.79996H50.2423ZM48.7543 4.79996V6.07196H48.7063C48.6904 5.78396 48.5704 5.54396 48.3463 5.35196C48.1384 5.14397 47.8744 5.03996 47.5543 5.03996C47.5543 5.03996 47.4904 5.03996 47.3623 5.03996C47.2504 5.03996 47.1943 5.03996 47.1943 5.03996V4.79996H48.7543ZM51.7543 4.79996V5.03996C51.7543 5.03996 51.6904 5.03996 51.5623 5.03996C51.4504 5.03996 51.3943 5.03996 51.3943 5.03996C51.0904 5.03996 50.8183 5.14397 50.5783 5.35196C50.3543 5.54396 50.2423 5.78396 50.2423 6.07196H50.1943V4.79996H51.7543ZM59.6263 4.79996V6.07196H59.5783C59.5783 5.78396 59.4664 5.54396 59.2423 5.35196C59.0183 5.14397 58.7464 5.03996 58.4263 5.03996C58.4263 5.03996 58.3624 5.03996 58.2343 5.03996C58.1224 5.03996 58.0663 5.03996 58.0663 5.03996V4.79996H59.6263ZM62.1943 4.79996V5.03996C62.1943 5.03996 62.1304 5.03996 62.0023 5.03996C61.8904 5.03996 61.8343 5.03996 61.8343 5.03996C61.5304 5.03996 61.2664 5.14397 61.0423 5.35196C60.8183 5.54396 60.6983 5.78396 60.6823 6.07196H60.6343V4.79996H62.1943ZM67.287 4.79996H70.383C71.1351 4.79996 71.8071 4.88796 72.399 5.06396C73.0071 5.23997 73.5191 5.49596 73.935 5.83196C74.367 6.16796 74.6951 6.57596 74.919 7.05596C75.1431 7.53596 75.255 8.07996 75.255 8.68796C75.255 9.35996 75.0951 9.98396 74.775 10.56C74.4551 11.136 74.007 11.608 73.431 11.976C72.8711 12.344 72.231 12.5679 71.511 12.648C71.7831 12.7599 72.0951 13.008 72.447 13.392C72.8151 13.776 73.1271 14.1519 73.383 14.52C73.383 14.52 73.4871 14.664 73.695 14.952C73.9031 15.224 74.1671 15.5679 74.487 15.984C74.823 16.3839 75.1511 16.7679 75.471 17.136C75.807 17.504 76.1111 17.8239 76.383 18.096C76.671 18.368 76.9751 18.584 77.295 18.744C77.631 18.888 78.015 18.96 78.447 18.96V19.2H77.703C76.8231 19.2 76.095 19.088 75.519 18.864C74.9591 18.6399 74.5031 18.368 74.151 18.048C73.7991 17.712 73.4951 17.3919 73.239 17.088C73.1751 17.0079 73.023 16.808 72.783 16.488C72.5591 16.152 72.3111 15.792 72.039 15.408C71.7671 15.024 71.5191 14.6799 71.295 14.376C71.0711 14.0559 70.935 13.8639 70.887 13.8C70.5671 13.3839 70.1991 13.016 69.783 12.696C69.3671 12.36 68.9271 12.192 68.463 12.192V11.952C68.463 11.952 68.5911 11.96 68.847 11.976C69.1031 11.976 69.4311 11.968 69.831 11.952C70.2791 11.936 70.7271 11.904 71.175 11.856C71.6231 11.792 72.039 11.616 72.423 11.328C72.8231 11.04 73.1351 10.56 73.359 9.88796C73.4231 9.71196 73.4711 9.50396 73.503 9.26396C73.5351 9.02396 73.5431 8.77596 73.527 8.51996C73.5111 8.07197 73.4231 7.67196 73.263 7.31996C73.119 6.96797 72.903 6.66396 72.615 6.40796C72.3431 6.15197 72.015 5.95196 71.631 5.80796C71.247 5.66396 70.815 5.58396 70.335 5.56796C69.5831 5.53596 68.9271 5.52797 68.367 5.54396C67.8071 5.55996 67.527 5.55996 67.527 5.54396C67.527 5.52797 67.503 5.46396 67.455 5.35196C67.4231 5.22396 67.383 5.10396 67.335 4.99196C67.3031 4.86396 67.287 4.79996 67.287 4.79996ZM67.575 4.79996V19.2H66.039V4.79996H67.575ZM66.111 17.664L66.399 19.2H64.359V18.96C64.359 18.96 64.4151 18.96 64.527 18.96C64.6391 18.96 64.695 18.96 64.695 18.96C65.079 18.96 65.3991 18.8319 65.655 18.576C65.9111 18.32 66.0471 18.0159 66.063 17.664H66.111ZM66.111 6.31196H66.063C66.0471 5.94396 65.9111 5.63996 65.655 5.39996C65.3991 5.15996 65.079 5.03996 64.695 5.03996C64.695 5.03996 64.6391 5.03996 64.527 5.03996C64.4151 5.03996 64.359 5.03996 64.359 5.03996V4.79996H66.399L66.111 6.31196ZM67.503 17.664H67.575C67.5911 18.0159 67.7271 18.32 67.983 18.576C68.2391 18.8319 68.559 18.96 68.943 18.96C68.943 18.96 68.991 18.96 69.087 18.96C69.1991 18.96 69.255 18.96 69.255 18.96L69.279 19.2H67.215L67.503 17.664ZM80.5837 4.82396L85.0237 12.72L84.0397 13.56L78.4957 4.82396H80.5837ZM85.3837 13.008V19.2H83.8237V13.008H85.3837ZM89.4157 4.82396H90.9277L85.2157 13.512L84.3277 13.248L89.4157 4.82396ZM88.5037 6.33596C88.6798 6.01596 88.6878 5.71997 88.5277 5.44796C88.3678 5.17596 88.1118 5.03996 87.7597 5.03996C87.7597 5.03996 87.7117 5.03996 87.6157 5.03996C87.5197 5.03996 87.4717 5.03996 87.4717 5.03996V4.79996H92.4877V5.03996H92.1997C91.7518 5.03996 91.3278 5.16797 90.9277 5.42396C90.5437 5.66396 90.2398 5.94396 90.0157 6.26396L88.5037 6.33596ZM81.4237 6.31196L79.3837 6.23996C79.1278 5.87196 78.8077 5.58396 78.4237 5.37596C78.0558 5.15196 77.6398 5.03996 77.1757 5.03996H76.8877V4.79996H82.4557V5.03996C82.4557 5.03996 82.4077 5.03996 82.3117 5.03996C82.2157 5.03996 82.1677 5.03996 82.1677 5.03996C81.8158 5.03996 81.5598 5.18396 81.3997 5.47196C81.2557 5.74397 81.2638 6.02396 81.4237 6.31196ZM83.8957 17.664V19.2H82.1437V18.96C82.1598 18.96 82.2078 18.96 82.2877 18.96C82.3837 18.96 82.4317 18.96 82.4317 18.96C82.8157 18.96 83.1358 18.8319 83.3917 18.576C83.6638 18.32 83.8078 18.0159 83.8237 17.664H83.8957ZM85.3117 17.664H85.3837C85.3998 18.0159 85.5358 18.32 85.7917 18.576C86.0638 18.8319 86.3917 18.96 86.7757 18.96C86.7757 18.96 86.8237 18.96 86.9197 18.96C87.0157 18.96 87.0637 18.96 87.0637 18.96V19.2H85.3117V17.664ZM102.895 2.39996H106.063C107.087 2.39996 107.967 2.58396 108.703 2.95196C109.439 3.31997 110.007 3.85596 110.407 4.55996C110.807 5.24796 111.007 6.07196 111.007 7.03196C111.007 7.76796 110.863 8.43197 110.575 9.02396C110.287 9.59996 109.903 10.088 109.423 10.488C108.943 10.888 108.399 11.192 107.791 11.4C107.183 11.592 106.551 11.664 105.895 11.616C105.255 11.568 104.631 11.384 104.023 11.064V10.824C104.023 10.824 104.159 10.848 104.431 10.896C104.703 10.928 105.047 10.936 105.463 10.92C105.895 10.888 106.343 10.8 106.807 10.656C107.287 10.496 107.727 10.224 108.127 9.83996C108.543 9.45596 108.855 8.91996 109.063 8.23196C109.111 8.05596 109.151 7.83996 109.183 7.58396C109.215 7.31196 109.223 7.04796 109.207 6.79196C109.191 5.68796 108.903 4.79996 108.343 4.12796C107.783 3.45596 106.991 3.11996 105.967 3.11996H103.135C103.135 3.11996 103.111 3.06396 103.063 2.95196C103.031 2.82396 102.991 2.70396 102.943 2.59196C102.911 2.46396 102.895 2.39996 102.895 2.39996ZM103.207 2.39996V19.2H101.647V2.39996H103.207ZM101.719 17.448V19.2H99.7993V18.96C99.7993 18.96 99.8473 18.96 99.9433 18.96C100.055 18.96 100.111 18.96 100.111 18.96C100.527 18.96 100.879 18.816 101.167 18.528C101.471 18.224 101.631 17.864 101.647 17.448H101.719ZM101.719 4.15196H101.647C101.647 3.73596 101.495 3.38396 101.191 3.09596C100.887 2.79197 100.527 2.63996 100.111 2.63996C100.111 2.63996 100.063 2.63996 99.9673 2.63996C99.8713 2.63996 99.8233 2.63996 99.8233 2.63996L99.7993 2.39996H101.719V4.15196ZM103.135 17.448H103.207C103.223 17.864 103.375 18.224 103.663 18.528C103.967 18.816 104.327 18.96 104.743 18.96C104.743 18.96 104.791 18.96 104.887 18.96C104.999 18.96 105.055 18.96 105.055 18.96V19.2H103.135V17.448ZM116.219 4.79996V13.872C116.219 15.4239 116.611 16.6479 117.395 17.544C118.195 18.44 119.283 18.888 120.659 18.888C122.178 18.888 123.371 18.464 124.235 17.616C125.115 16.7679 125.555 15.608 125.555 14.136V4.79996H126.659V14.136C126.659 15.8 126.123 17.12 125.051 18.096C123.995 19.056 122.538 19.536 120.683 19.536C118.843 19.536 117.379 19.056 116.291 18.096C115.219 17.136 114.683 15.824 114.683 14.16V4.79996H116.219ZM114.731 4.79996V6.07196H114.683C114.667 5.78396 114.547 5.54396 114.323 5.35196C114.115 5.14397 113.851 5.03996 113.531 5.03996C113.531 5.03996 113.467 5.03996 113.339 5.03996C113.227 5.03996 113.171 5.03996 113.171 5.03996V4.79996H114.731ZM117.731 4.79996V5.03996C117.731 5.03996 117.667 5.03996 117.539 5.03996C117.427 5.03996 117.371 5.03996 117.371 5.03996C117.067 5.03996 116.795 5.14397 116.555 5.35196C116.331 5.54396 116.219 5.78396 116.219 6.07196H116.171V4.79996H117.731ZM125.603 4.79996V6.07196H125.555C125.555 5.78396 125.442 5.54396 125.219 5.35196C124.995 5.14397 124.722 5.03996 124.403 5.03996C124.403 5.03996 124.338 5.03996 124.211 5.03996C124.098 5.03996 124.043 5.03996 124.043 5.03996V4.79996H125.603ZM128.171 4.79996V5.03996C128.171 5.03996 128.106 5.03996 127.979 5.03996C127.866 5.03996 127.811 5.03996 127.811 5.03996C127.506 5.03996 127.242 5.14397 127.019 5.35196C126.795 5.54396 126.675 5.78396 126.659 6.07196H126.611V4.79996H128.171ZM133.6 4.79996V19.2H132.064V4.79996H133.6ZM140.056 18.456L140.008 19.2H133.552V18.456H140.056ZM141.4 15.768L140.08 19.2H136.432L137.248 18.456C138.047 18.456 138.688 18.344 139.168 18.12C139.664 17.88 140.063 17.5599 140.368 17.16C140.672 16.7439 140.936 16.28 141.16 15.768H141.4ZM132.112 17.664L132.424 19.2H130.336V18.96C130.336 18.96 130.391 18.96 130.504 18.96C130.616 18.96 130.672 18.96 130.672 18.96C131.072 18.96 131.399 18.8319 131.656 18.576C131.912 18.32 132.047 18.0159 132.064 17.664H132.112ZM133.528 6.33596V4.79996H135.304V5.03996C135.304 5.03996 135.256 5.03996 135.16 5.03996C135.064 5.03996 135.016 5.03996 135.016 5.03996C134.632 5.03996 134.296 5.16797 134.008 5.42396C133.736 5.66396 133.6 5.96796 133.6 6.33596H133.528ZM132.112 6.33596H132.064C132.047 5.96796 131.903 5.66396 131.632 5.42396C131.36 5.16797 131.024 5.03996 130.624 5.03996C130.624 5.03996 130.576 5.03996 130.48 5.03996C130.384 5.03996 130.336 5.03996 130.336 5.03996V4.79996H132.112V6.33596ZM147.498 4.46396C147.947 4.46396 148.338 4.47996 148.674 4.51196C149.01 4.54397 149.298 4.58396 149.538 4.63196C149.795 4.66397 150.011 4.71197 150.186 4.77596C150.378 4.82396 150.546 4.87196 150.69 4.91996L150.714 7.29596H150.426C150.426 6.63996 150.203 6.12797 149.754 5.75996C149.307 5.37596 148.611 5.18396 147.666 5.18396C146.867 5.18396 146.178 5.40797 145.602 5.85596C145.043 6.28796 144.771 6.82397 144.786 7.46396C144.786 7.67196 144.81 7.88796 144.858 8.11196C144.923 8.31996 145.019 8.52797 145.146 8.73596C145.29 8.94396 145.482 9.15197 145.722 9.35996L150.57 13.104C150.939 13.4079 151.211 13.8 151.386 14.28C151.563 14.744 151.659 15.2079 151.674 15.672C151.691 16.376 151.506 17.024 151.122 17.616C150.738 18.2079 150.219 18.68 149.562 19.032C148.923 19.368 148.211 19.536 147.426 19.536C146.963 19.536 146.459 19.496 145.914 19.416C145.386 19.3359 144.891 19.2159 144.426 19.056C143.963 18.8799 143.579 18.6639 143.274 18.408C143.226 18.1839 143.202 17.904 143.202 17.568C143.202 17.216 143.226 16.848 143.274 16.464C143.339 16.08 143.418 15.7359 143.514 15.432H143.802C143.739 16.152 143.843 16.7679 144.114 17.28C144.387 17.792 144.786 18.1839 145.314 18.456C145.842 18.7119 146.459 18.8319 147.162 18.816C148.155 18.7839 148.931 18.536 149.49 18.072C150.066 17.592 150.354 16.9599 150.354 16.176C150.354 15.792 150.282 15.4479 150.138 15.144C150.011 14.8239 149.795 14.528 149.49 14.256L144.69 10.56C144.243 10.176 143.939 9.75197 143.778 9.28796C143.619 8.82396 143.538 8.38397 143.538 7.96796C143.538 7.31196 143.715 6.71996 144.066 6.19196C144.419 5.66396 144.891 5.24796 145.482 4.94396C146.091 4.62396 146.763 4.46396 147.498 4.46396ZM150.666 4.67996L150.69 5.11196H148.986V4.67996H150.666ZM157.553 4.79996V19.2H156.017V4.79996H157.553ZM164.009 18.456L163.961 19.2H157.505V18.456H164.009ZM162.881 11.64V12.36H157.505V11.64H162.881ZM163.985 4.79996V5.54396H157.505V4.79996H163.985ZM165.353 15.768L164.033 19.2H160.385L161.201 18.456C162 18.456 162.641 18.344 163.121 18.12C163.617 17.88 164.016 17.5599 164.321 17.16C164.625 16.7439 164.889 16.28 165.113 15.768H165.353ZM162.881 12.312V13.68H162.617V13.368C162.617 13.0959 162.537 12.864 162.377 12.672C162.216 12.464 161.969 12.36 161.633 12.36V12.312H162.881ZM162.881 10.32V11.688H161.633V11.64C161.969 11.64 162.216 11.544 162.377 11.352C162.537 11.144 162.617 10.904 162.617 10.632V10.32H162.881ZM163.985 5.47196V7.12796H163.721V6.76796C163.721 6.43196 163.608 6.14396 163.385 5.90396C163.176 5.66396 162.888 5.54396 162.521 5.54396V5.47196H163.985ZM163.985 4.41596V5.03996L161.249 4.79996C161.745 4.79996 162.273 4.75997 162.833 4.67996C163.392 4.58396 163.776 4.49597 163.985 4.41596ZM156.065 17.664L156.377 19.2H154.289V18.96C154.289 18.96 154.344 18.96 154.457 18.96C154.569 18.96 154.625 18.96 154.625 18.96C155.025 18.96 155.352 18.8319 155.609 18.576C155.865 18.32 156 18.0159 156.017 17.664H156.065ZM156.065 6.31196H156.017C156 5.94396 155.865 5.63996 155.609 5.39996C155.352 5.15996 155.025 5.03996 154.625 5.03996C154.625 5.03996 154.569 5.03996 154.457 5.03996C154.344 5.03996 154.289 5.03996 154.289 5.03996V4.79996H156.377L156.065 6.31196Z" fill="white"/>
<path d="M156.8 23.393C156.8 23.393 156.085 20.2466 151.203 23.4112C151.203 23.4112 155.805 26.6081 156.8 23.393ZM155.678 23.4108C155.678 23.4941 155.595 23.5619 155.492 23.5625C155.39 23.5627 155.306 23.4955 155.306 23.4122C155.305 23.329 155.389 23.2613 155.491 23.2607C155.594 23.2601 155.678 23.3273 155.678 23.4108ZM152.414 23.4172C152.414 23.4172 152.728 22.47 154.968 23.4089C154.968 23.4089 152.88 24.3806 152.414 23.4172Z" fill="#9A9999"/>
<path d="M150.842 23.8437C150.558 23.8446 150.326 23.6588 150.325 23.4285C150.325 23.1982 150.554 23.011 150.837 23.0102C151.122 23.0094 151.353 23.1951 151.354 23.4254C151.356 23.6553 151.125 23.8429 150.842 23.8437Z" fill="#9A9999"/>
<path d="M146.889 23.8553C146.605 23.8563 146.374 23.6705 146.373 23.4402C146.372 23.21 146.601 23.0228 146.886 23.0219C147.17 23.021 147.4 23.2068 147.402 23.437C147.403 23.6673 147.174 23.8545 146.889 23.8553Z" fill="#9A9999"/>
<path d="M148.863 24.5378C148.863 24.5378 150.624 23.4336 150.608 23.4278C150.622 23.4218 148.852 22.3293 148.852 22.3293C148.647 22.6905 147.098 23.4379 147.1 23.4393C147.075 23.4511 148.654 24.1781 148.863 24.5378Z" fill="#9A9999"/>
<path d="M102.965 23.4218C99.7858 21.3609 99.3201 23.41 99.3201 23.41C99.9675 25.5035 102.965 23.4218 102.965 23.4218ZM100.172 23.3236C100.239 23.3238 100.294 23.368 100.293 23.4224C100.293 23.4766 100.238 23.5205 100.171 23.5202C100.105 23.5199 100.05 23.4758 100.051 23.4214C100.051 23.3672 100.106 23.3232 100.172 23.3236ZM100.513 23.4203C101.972 22.8088 102.177 23.4257 102.177 23.4257C101.873 24.0531 100.513 23.4203 100.513 23.4203Z" fill="#9A9999"/>
<path d="M103.2 23.7028C103.385 23.7034 103.536 23.5824 103.537 23.4326C103.537 23.2828 103.388 23.1608 103.203 23.1602C103.018 23.1596 102.867 23.2804 102.867 23.4303C102.866 23.5802 103.016 23.7022 103.2 23.7028Z" fill="#9A9999"/>
<path d="M146.888 23.2925H103.537V23.5874H146.888V23.2925Z" fill="#9A9999"/>
<path d="M79.5128 37.6353C79.5128 37.6353 79.4775 37.619 79.4087 37.5868C79.373 37.5724 79.3338 37.548 79.2868 37.5196C79.2379 37.4934 79.1895 37.4544 79.1337 37.4122C79.027 37.3233 78.9109 37.1998 78.8198 37.0347C78.728 36.8702 78.6611 36.6669 78.6294 36.4338C78.5655 35.9669 78.6432 35.3844 78.8649 34.741C78.9777 34.4198 79.1244 34.0812 79.3227 33.7409C79.4224 33.571 79.5331 33.4011 79.6656 33.2372C79.8012 33.0665 79.9401 32.8914 80.0829 32.7119C80.6532 31.9977 81.2868 31.2213 82.0756 30.4683C82.471 30.0933 82.9063 29.7255 83.3937 29.3886C83.6387 29.2218 83.8959 29.0622 84.1668 28.9144C84.4396 28.7691 84.7256 28.6365 85.025 28.5204C85.3237 28.4033 85.6397 28.3118 85.9639 28.238C86.1257 28.1992 86.2923 28.1736 86.4585 28.1456C86.6269 28.1254 86.7945 28.103 86.9725 28.0936C87.6738 28.0367 88.3962 28.0373 89.0988 28.1415C89.4513 28.1891 89.7934 28.2744 90.1174 28.3864C90.4434 28.4961 90.74 28.6526 90.986 28.8412C91.2312 29.0303 91.4181 29.261 91.5048 29.5104C91.5959 29.7597 91.562 30.0249 91.4345 30.2638C91.4133 30.3048 91.3933 30.3462 91.3603 30.3832C91.3299 30.4211 91.304 30.4611 91.2722 30.498C91.1984 30.5679 91.1349 30.6431 91.0453 30.7036C90.8846 30.8369 90.6786 30.9365 90.4727 31.0318C90.0435 31.2064 89.5593 31.3054 89.0688 31.3528C88.5758 31.3959 88.0767 31.3878 87.5838 31.3569C87.1088 31.3186 86.6362 31.2225 86.1781 31.0984C85.2609 30.8469 84.399 30.4955 83.5845 30.1308C82.7701 29.7634 82.0005 29.3766 81.2696 28.9954C79.8084 28.2311 78.4962 27.4926 77.3282 26.8521C76.1617 26.2095 75.1423 25.6606 74.3 25.2291C73.4872 24.7622 72.4804 24.1958 71.2586 23.6115C70.6467 23.321 69.9782 23.0292 69.2444 22.7608C68.5083 22.4984 67.704 22.2534 66.8091 22.1289C66.3628 22.0671 65.893 22.0373 65.4104 22.0685C64.9288 22.0992 64.4346 22.1951 63.972 22.3738C63.8547 22.4151 63.7464 22.4722 63.6326 22.5216C63.5235 22.5767 63.4181 22.6379 63.3111 22.6976C63.2107 22.7654 63.1104 22.827 63.0092 22.9018C62.9078 22.9796 62.8095 23.0643 62.7267 23.1627C62.555 23.3542 62.4428 23.5977 62.4187 23.8432C62.3925 24.0904 62.4518 24.3318 62.5508 24.551C62.7578 24.9881 63.1096 25.346 63.5084 25.6532C63.9106 25.956 64.3735 26.2204 64.884 26.4051C65.132 26.5113 65.3973 26.5808 65.6592 26.6612C65.7913 26.6976 65.9268 26.724 66.0613 26.756L66.2638 26.8016C66.3318 26.8156 66.4004 26.8248 66.4687 26.8368C66.6056 26.8593 66.7429 26.8816 66.8805 26.904C67.0189 26.9195 67.1576 26.9348 67.2966 26.9502L67.5052 26.9729L67.7146 26.9865C67.8543 26.9951 67.9944 27.004 68.1348 27.0129C69.7878 27.0772 71.3752 26.9055 72.8778 26.691C73.2537 26.637 73.6249 26.5785 73.9905 26.5185C74.0831 26.5032 74.1751 26.4878 74.2673 26.4725C74.3655 26.4556 74.4607 26.4358 74.5545 26.415C74.7411 26.3723 74.9233 26.3258 75.0996 26.2744C75.806 26.0703 76.4604 25.8297 77.0965 25.5917C78.3644 25.112 79.5441 24.6298 80.6591 24.198C81.7725 23.7651 82.8174 23.3766 83.7877 23.0577C84.7573 22.7375 85.6538 22.4877 86.4579 22.3238C87.2616 22.161 87.9757 22.0887 88.5568 22.1122C89.1387 22.1334 89.5786 22.2534 89.8455 22.3767C89.9142 22.405 89.9712 22.4349 90.0194 22.4621C90.0691 22.4874 90.1088 22.5113 90.1388 22.5322C90.2008 22.5724 90.2326 22.5932 90.2326 22.5932C90.2326 22.5932 90.2027 22.5707 90.144 22.5274C90.1153 22.5047 90.0777 22.4788 90.0297 22.4507C89.9832 22.4208 89.928 22.3876 89.8611 22.3554C89.601 22.2167 89.1602 22.0712 88.5655 22.0215C87.9715 21.9698 87.2364 22.0118 86.4083 22.1438C85.5797 22.277 84.6559 22.4957 83.6591 22.7852C82.6614 23.0734 81.5897 23.4317 80.4531 23.8358C79.3161 24.2385 78.1154 24.693 76.8464 25.1432C76.2116 25.3658 75.5587 25.5914 74.887 25.7736C74.7194 25.8196 74.5508 25.8596 74.3825 25.8957C74.2982 25.913 74.2144 25.929 74.1313 25.9422L73.8619 25.9833C73.4977 26.0381 73.1306 26.0919 72.7598 26.141C71.2796 26.3367 69.7336 26.4917 68.1714 26.4303C68.0392 26.422 67.9079 26.4137 67.7765 26.4057L67.5794 26.3933L67.3853 26.3723C67.2559 26.3583 67.1269 26.3442 66.9979 26.3304C66.8713 26.31 66.7447 26.2896 66.6185 26.2696C66.5557 26.2589 66.4918 26.2509 66.4297 26.2383L66.2455 26.1972C66.1234 26.1688 65.9989 26.1458 65.8795 26.1134C65.6446 26.0418 65.4038 25.9818 65.1852 25.8888C64.7316 25.7301 64.33 25.5041 63.9754 25.2448C63.626 24.9848 63.3297 24.6813 63.1707 24.3594C63.0948 24.1989 63.0537 24.0362 63.0668 23.8828C63.0796 23.7298 63.1389 23.5848 63.2493 23.4554C63.3014 23.3896 63.3691 23.329 63.4407 23.2709C63.5167 23.2124 63.6067 23.1544 63.688 23.0958C63.7771 23.0441 63.8647 22.9907 63.955 22.9422C64.05 22.8998 64.1389 22.8486 64.2369 22.8122C65.0089 22.493 65.8999 22.455 66.7271 22.5507C67.5601 22.6442 68.3449 22.8558 69.071 23.0892C69.7964 23.3284 70.4677 23.5931 71.0868 23.8587C72.3241 24.3927 73.361 24.9161 74.2014 25.3462C75.012 25.8128 75.9941 26.4002 77.1241 27.0826C78.2562 27.7634 79.5327 28.5425 80.9757 29.3505C81.6977 29.7539 82.4624 30.163 83.2833 30.5553C84.1057 30.9446 84.9832 31.3235 85.9602 31.6074C86.4489 31.747 86.9653 31.8612 87.5138 31.9113C88.0453 31.9505 88.59 31.9653 89.1446 31.9204C89.6979 31.8707 90.2626 31.7631 90.7959 31.5486C91.0567 31.4315 91.3182 31.3043 91.5403 31.1246C91.6582 31.0427 91.7541 30.9386 91.8542 30.8392C91.9004 30.7863 91.9401 30.7292 91.9829 30.6738C92.0277 30.6195 92.0601 30.559 92.0922 30.4978C92.2857 30.143 92.3316 29.7249 92.1954 29.356C92.066 28.9851 91.7962 28.668 91.4751 28.4235C91.1522 28.1786 90.7807 27.992 90.3948 27.8644C90.0098 27.7343 89.6138 27.6419 89.2184 27.592C88.4275 27.4838 87.6465 27.4955 86.9011 27.5673C86.7156 27.5802 86.5258 27.6077 86.3382 27.6339C86.1526 27.6677 85.9674 27.7002 85.788 27.7462C85.4286 27.8343 85.0815 27.9434 84.7573 28.078C84.4323 28.2116 84.1257 28.3629 83.8366 28.526C83.55 28.6916 83.2813 28.8682 83.0281 29.0513C82.5244 29.4203 82.0864 29.816 81.6942 30.2145C80.9126 31.0146 80.3093 31.8222 79.7745 32.5587C79.6418 32.743 79.5125 32.9228 79.3862 33.0982C79.2541 33.2788 79.1472 33.4636 79.0537 33.6446C78.8673 34.0068 78.7381 34.3606 78.6424 34.6953C78.4562 35.3651 78.4165 35.9667 78.5162 36.4461C78.5659 36.6852 78.6507 36.8928 78.7584 37.0582C78.8653 37.2242 78.995 37.3454 79.1106 37.4303C79.1713 37.4709 79.223 37.5076 79.2747 37.5314C79.3244 37.5575 79.3658 37.5796 79.4028 37.5922C79.4762 37.621 79.5128 37.6353 79.5128 37.6353Z" fill="#9A9999"/>
<path d="M79.5249 37.6363C79.5249 37.6363 79.5615 37.6219 79.6332 37.5934C79.6701 37.5808 79.7115 37.5588 79.7612 37.5326C79.8129 37.5087 79.865 37.472 79.9254 37.4316C80.0409 37.3466 80.1706 37.2254 80.2776 37.0594C80.3852 36.8941 80.47 36.6868 80.5197 36.4473C80.6198 35.9679 80.5801 35.3664 80.3935 34.6965C80.298 34.3617 80.1686 34.0081 79.9826 33.6457C79.8891 33.4652 79.7818 33.2803 79.6501 33.0993C79.5238 32.9239 79.3941 32.7442 79.2618 32.5599C78.727 31.8235 78.1237 31.0155 77.3421 30.2156C76.9498 29.8168 76.5118 29.4216 76.0082 29.0526C75.755 28.8694 75.4863 28.6928 75.1996 28.5272C74.9109 28.3641 74.6043 28.2128 74.279 28.0792C73.9548 27.9446 73.6074 27.8355 73.2483 27.7473C73.0689 27.7011 72.884 27.669 72.6981 27.6351C72.5104 27.609 72.3207 27.5811 72.1352 27.5685C71.3898 27.497 70.6088 27.485 69.8178 27.5932C69.4225 27.6432 69.0265 27.7356 68.6415 27.8656C68.2556 27.9931 67.8844 28.1798 67.5612 28.4246C67.24 28.6695 66.9703 28.9862 66.8409 29.3572C66.7047 29.7261 66.7502 30.1442 66.9441 30.499C66.9758 30.5601 67.0082 30.6207 67.0534 30.6751C67.0959 30.7304 67.1359 30.7875 67.1821 30.8404C67.2822 30.9397 67.378 31.044 67.496 31.1258C67.7181 31.3052 67.9792 31.4328 68.2404 31.5499C68.7736 31.7643 69.3384 31.8723 69.8917 31.9216C70.4463 31.9664 70.9914 31.9518 71.5225 31.9125C72.071 31.8625 72.5874 31.7482 73.0765 31.6087C74.0534 31.325 74.931 30.946 75.7533 30.5564C76.5742 30.164 77.339 29.7548 78.0606 29.3517C79.5032 28.5438 80.7801 27.7646 81.9122 27.0838C83.0426 26.4014 84.0243 25.8136 84.8349 25.3474C85.6753 24.9176 86.7122 24.3939 87.9495 23.8599C88.5686 23.5944 89.2399 23.3296 89.9653 23.0905C90.6914 22.8571 91.4762 22.6458 92.3092 22.5518C93.1364 22.4563 94.0274 22.4944 94.7994 22.8134C94.8973 22.8499 94.9863 22.9006 95.0812 22.9435C95.172 22.992 95.2592 23.0454 95.3481 23.0971C95.4296 23.1556 95.5196 23.2136 95.5956 23.2722C95.6672 23.3302 95.7349 23.3905 95.787 23.4565C95.8977 23.586 95.957 23.731 95.9697 23.884C95.9829 24.0373 95.9419 24.2001 95.8659 24.3606C95.7069 24.6825 95.4106 24.9862 95.0612 25.246C94.7062 25.5054 94.3051 25.7313 93.8511 25.8901C93.6325 25.9831 93.3916 26.0428 93.1568 26.1146C93.0374 26.147 92.9128 26.1699 92.7912 26.1984L92.607 26.2395C92.5452 26.2521 92.4813 26.2602 92.4182 26.2707C92.292 26.2909 92.1657 26.3113 92.0388 26.3316C91.9101 26.3457 91.7811 26.3595 91.6514 26.3736L91.4572 26.3946L91.2602 26.4068C91.1288 26.4152 90.9974 26.4232 90.8653 26.4315C89.303 26.4927 87.757 26.3379 86.2768 26.1421C85.906 26.093 85.539 26.0396 85.1748 25.9845L84.9054 25.9435C84.8222 25.9303 84.7384 25.9142 84.6542 25.8969C84.4858 25.8608 84.3172 25.8206 84.1496 25.7749C83.4783 25.5926 82.8249 25.367 82.1902 25.1444C80.9212 24.6943 79.7205 24.2397 78.5835 23.8369C77.447 23.433 76.3755 23.0746 75.3776 22.7864C74.3811 22.4967 73.457 22.2782 72.6288 22.145C71.8005 22.0129 71.0655 21.971 70.4715 22.0227C69.8764 22.072 69.4359 22.218 69.1759 22.3566C69.1086 22.3891 69.0535 22.4221 69.0072 22.452C68.9593 22.48 68.9214 22.5058 68.893 22.5285C68.8344 22.5722 68.8044 22.5943 68.8044 22.5943C68.8044 22.5943 68.8362 22.5736 68.8982 22.5334C68.9282 22.5126 68.9679 22.4887 69.0176 22.4634C69.0658 22.4364 69.1227 22.4062 69.1914 22.3778C69.4584 22.2547 69.8982 22.1347 70.4802 22.1134C71.0617 22.0902 71.7753 22.1623 72.5791 22.325C73.3836 22.4889 74.2797 22.7384 75.2493 23.0589C76.22 23.3779 77.2645 23.7663 78.378 24.1993C79.4928 24.6314 80.6728 25.1131 81.9405 25.5928C82.5763 25.8306 83.231 26.0715 83.9374 26.2756C84.1141 26.3268 84.2958 26.3736 84.4825 26.4163C84.5762 26.437 84.6715 26.4568 84.7698 26.4738C84.8616 26.489 84.954 26.5045 85.0464 26.5197C85.412 26.5797 85.7833 26.6383 86.1592 26.6923C87.6614 26.9067 89.2492 27.0781 90.9022 27.0141C91.0426 27.0052 91.1827 26.9966 91.3224 26.9877L91.5318 26.9742L91.7404 26.9515C91.8794 26.936 92.0181 26.9205 92.1564 26.9053C92.294 26.8828 92.4313 26.8605 92.5683 26.8381C92.6366 26.8263 92.7052 26.8171 92.7732 26.8028L92.9756 26.7571C93.1099 26.7253 93.2454 26.6991 93.3778 26.6624C93.64 26.582 93.9052 26.5125 94.1533 26.4063C94.6638 26.2216 95.1267 25.9573 95.529 25.6544C95.9277 25.3474 96.2796 24.9894 96.4864 24.5521C96.5854 24.3331 96.6448 24.0916 96.6186 23.8444C96.5944 23.5989 96.4824 23.3554 96.3105 23.1639C96.2278 23.0655 96.1294 22.9808 96.028 22.9029C95.927 22.8283 95.8266 22.7666 95.7266 22.6988C95.6197 22.6392 95.5141 22.578 95.4051 22.5229C95.2912 22.4734 95.1832 22.4166 95.0656 22.375C94.6034 22.1964 94.1088 22.1005 93.6272 22.0698C93.1447 22.0384 92.6749 22.0683 92.2285 22.1301C91.3334 22.2547 90.5293 22.4992 89.7932 22.762C89.0592 23.0305 88.391 23.3222 87.7791 23.6127C86.5569 24.1966 85.5504 24.7632 84.7377 25.2303C83.8957 25.6618 82.876 26.2107 81.7094 26.8533C80.5418 27.4939 79.2292 28.2322 77.7681 28.9965C77.0372 29.3781 76.2676 29.7646 75.4532 30.1321C74.6384 30.4968 73.7764 30.8479 72.8595 31.0996C72.4015 31.2237 71.9293 31.3198 71.4538 31.358C70.961 31.3887 70.4618 31.3971 69.969 31.354C69.4784 31.3066 68.9941 31.2076 68.565 31.033C68.359 30.938 68.1531 30.838 67.9923 30.7048C67.9027 30.6444 67.8388 30.5691 67.7654 30.4993C67.7334 30.4623 67.7074 30.4224 67.6771 30.3844C67.6443 30.3475 67.6239 30.3061 67.6033 30.265C67.4754 30.0265 67.4415 29.7609 67.533 29.5117C67.6191 29.2622 67.8064 29.0316 68.0517 28.8424C68.298 28.6534 68.5944 28.4973 68.9203 28.3876C69.2442 28.2757 69.5864 28.1904 69.9388 28.1427C70.6416 28.0384 71.3638 28.038 72.0651 28.0947C72.2431 28.1042 72.4107 28.1266 72.5791 28.1467C72.7458 28.1749 72.912 28.2004 73.0737 28.2392C73.398 28.313 73.7139 28.4046 74.0127 28.5217C74.3121 28.6374 74.5984 28.7703 74.871 28.9156C75.1417 29.0635 75.399 29.2228 75.6439 29.3899C76.1317 29.7267 76.5667 30.0942 76.9623 30.4694C77.7512 31.2225 78.3848 31.9989 78.955 32.7132C79.0975 32.8927 79.2366 33.0675 79.3724 33.2383C79.5049 33.4026 79.6156 33.5722 79.7154 33.7422C79.9136 34.0825 80.0602 34.4212 80.173 34.7422C80.3948 35.3856 80.4724 35.9682 80.4086 36.435C80.3769 36.6681 80.31 36.8714 80.2183 37.0359C80.1272 37.201 80.0109 37.3245 79.9044 37.4134C79.8484 37.4557 79.8002 37.4947 79.7511 37.5208C79.7043 37.5493 79.665 37.5734 79.6294 37.588C79.5601 37.62 79.5249 37.6363 79.5249 37.6363Z" fill="#9A9999"/>
<path d="M79.6167 36.8301C77.3936 38.9814 79.5357 39.3408 79.5357 39.3408C81.7454 38.934 79.6167 36.8301 79.6167 36.8301ZM79.4612 38.7516C79.4625 38.7054 79.5102 38.669 79.567 38.6704C79.624 38.6718 79.6688 38.7101 79.6675 38.7563C79.666 38.8025 79.6185 38.839 79.5616 38.8376C79.5046 38.8364 79.4595 38.798 79.4612 38.7516ZM79.5688 38.5192C78.9544 37.5028 79.6057 37.3733 79.6057 37.3733C80.2587 37.5941 79.5688 38.5192 79.5688 38.5192Z" fill="#9A9999"/>
<path d="M79.9168 36.6733C79.921 36.5459 79.7968 36.4399 79.6395 36.4364C79.4822 36.4331 79.3515 36.5339 79.3473 36.6613C79.3432 36.7887 79.4674 36.8947 79.6246 36.8982C79.7816 36.9013 79.9128 36.8005 79.9168 36.6733Z" fill="#9A9999"/>
<path d="M7.59706 23.4113C2.71542 20.2464 2 23.3932 2 23.3932C2.99482 26.608 7.59706 23.4113 7.59706 23.4113ZM3.3094 23.2602C3.4122 23.2606 3.49533 23.3283 3.49498 23.4118C3.49465 23.4951 3.41083 23.5625 3.30802 23.562C3.20523 23.5617 3.12211 23.494 3.12244 23.4105C3.12279 23.3272 3.20661 23.26 3.3094 23.2602ZM3.83234 23.4087C6.07207 22.4698 6.387 23.417 6.387 23.417C5.92098 24.3806 3.83234 23.4087 3.83234 23.4087Z" fill="#9A9999"/>
<path d="M7.95854 23.8437C8.24276 23.8446 8.47388 23.6588 8.47496 23.4285C8.47592 23.1982 8.2466 23.011 7.96268 23.0102C7.67843 23.0094 7.44732 23.1951 7.44629 23.4254C7.44525 23.6553 7.67429 23.8429 7.95854 23.8437Z" fill="#9A9999"/>
<path d="M11.9101 23.8553C12.1944 23.8563 12.4255 23.6705 12.4264 23.4402C12.4275 23.21 12.1981 23.0228 11.9143 23.0219C11.6304 23.021 11.3989 23.2068 11.3978 23.437C11.3968 23.6673 11.6262 23.8545 11.9101 23.8553Z" fill="#9A9999"/>
<path d="M9.93668 24.5378C9.93668 24.5378 8.17676 23.4336 8.19224 23.4278C8.17676 23.4218 9.94772 22.3293 9.94772 22.3293C10.1526 22.6905 11.7025 23.4379 11.6994 23.4393C11.7246 23.4511 10.145 24.1781 9.93668 24.5378Z" fill="#9A9999"/>
<path d="M59.48 23.41C59.48 23.41 59.0144 21.3609 55.8354 23.4218C55.8354 23.4218 58.8322 25.5035 59.48 23.41ZM58.7494 23.4214C58.7498 23.4758 58.6957 23.5199 58.6287 23.5202C58.5618 23.5205 58.5073 23.4766 58.5069 23.4224C58.5066 23.368 58.5608 23.3238 58.6276 23.3236C58.6946 23.3232 58.7491 23.3672 58.7494 23.4214ZM56.6235 23.4257C56.6235 23.4257 56.8285 22.809 58.2872 23.4203C58.2872 23.4203 56.9271 24.0531 56.6235 23.4257Z" fill="#9A9999"/>
<path d="M55.6004 23.7016C55.4155 23.7022 55.2648 23.5814 55.2641 23.4315C55.2634 23.2816 55.4128 23.1596 55.5977 23.159C55.7826 23.1584 55.9333 23.2794 55.934 23.4292C55.9346 23.5791 55.7854 23.701 55.6004 23.7016Z" fill="#9A9999"/>
<path d="M55.2636 23.2925H11.9124V23.5874H55.2636V23.2925Z" fill="#9A9999"/>
</svg>
