<svg width="38" height="29" viewBox="0 0 38 29" fill="none" xmlns="http://www.w3.org/2000/svg">
<g clip-path="url(#clip0_665_220)">
<path d="M36.4213 4.90944C35.9887 3.18679 34.7397 1.84112 33.1409 1.37498C30.2646 0.529785 18.6881 0.529785 18.6881 0.529785C18.6881 0.529785 7.11151 0.555397 4.2352 1.40059C2.63637 1.86674 1.38742 3.2124 0.954784 4.93505C0.0847605 10.4416 -0.25279 18.8321 0.978555 24.1184C1.41119 25.8411 2.66014 27.1867 4.25897 27.6529C7.13528 28.4981 18.7118 28.4981 18.7118 28.4981C18.7118 28.4981 30.2884 28.4981 33.1647 27.6529C34.7635 27.1867 36.0125 25.8411 36.4451 24.1184C37.3627 18.6042 37.6455 10.2188 36.4213 4.90944Z" fill="white"/>
<path d="M15.0035 20.5069L24.6071 14.5137L15.0035 8.52051V20.5069Z" fill="#2D2D2D"/>
</g>
<defs>
<clipPath id="clip0_665_220">
<rect width="37.0656" height="28.08" fill="white" transform="translate(0.174316 0.529785)"/>
</clipPath>
</defs>
</svg>
