<svg width="30" height="38" viewBox="0 0 30 38" fill="none" xmlns="http://www.w3.org/2000/svg">
<g clip-path="url(#clip0_956_855)">
<path d="M7.19268 3.64565V23.6494H5.33519V3.64565H7.19268ZM14.9084 22.7635V23.6494H7.10695V22.7635H14.9084ZM16.6516 19.02L14.9942 23.6494H10.2504L11.2792 22.7635C12.2889 22.7635 13.1081 22.6111 13.7368 22.3063C14.3845 21.9824 14.9084 21.5347 15.3085 20.9632C15.7086 20.3917 16.061 19.7439 16.3658 19.02H16.6516ZM5.42092 21.5633V23.6494H3.13478V23.3636C3.13478 23.3636 3.19193 23.3636 3.30624 23.3636C3.4396 23.3636 3.50628 23.3636 3.50628 23.3636C4.00161 23.3636 4.42073 23.1922 4.76366 22.8493C5.12563 22.4873 5.31614 22.0586 5.33519 21.5633H5.42092ZM5.42092 5.73176H5.33519C5.31614 5.23643 5.12563 4.8173 4.76366 4.47438C4.42073 4.11241 4.00161 3.93142 3.50628 3.93142C3.50628 3.93142 3.4396 3.93142 3.30624 3.93142C3.19193 3.93142 3.13478 3.93142 3.13478 3.93142V3.64565H5.42092V5.73176ZM7.10695 5.73176V3.64565H9.3931V3.93142C9.37405 3.93142 9.30737 3.93142 9.19306 3.93142C9.07875 3.93142 9.0216 3.93142 9.0216 3.93142C8.52627 3.93142 8.09762 4.11241 7.73564 4.47438C7.39272 4.8173 7.21174 5.23643 7.19268 5.73176H7.10695Z" fill="white"/>
<path d="M16.1234 13.1403H19.8955C21.1148 13.1403 22.1626 13.3594 23.039 13.7975C23.9153 14.2357 24.5917 14.8739 25.0679 15.7122C25.5442 16.5314 25.7824 17.5125 25.7824 18.6556C25.7824 19.532 25.6109 20.3226 25.268 21.0275C24.9251 21.7133 24.4678 22.2944 23.8963 22.7707C23.3248 23.2469 22.677 23.6089 21.9531 23.8566C21.2291 24.0852 20.4766 24.1709 19.6955 24.1138C18.9335 24.0566 18.1905 23.8375 17.4665 23.4565V23.1707C17.4665 23.1707 17.6285 23.1993 17.9523 23.2565C18.2762 23.2946 18.6858 23.3041 19.1811 23.285C19.6955 23.2469 20.2289 23.1422 20.7814 22.9707C21.353 22.7802 21.8769 22.4563 22.3531 21.9991C22.8485 21.5419 23.22 20.9036 23.4676 20.0844C23.5248 19.8749 23.5724 19.6177 23.6105 19.3129C23.6486 18.989 23.6582 18.6747 23.6391 18.3698C23.6201 17.0553 23.2771 15.998 22.6103 15.1978C21.9435 14.3977 21.0005 13.9976 19.7812 13.9976H16.4092C16.4092 13.9976 16.3806 13.9309 16.3234 13.7975C16.2853 13.6451 16.2377 13.5023 16.1806 13.3689C16.1425 13.2165 16.1234 13.1403 16.1234 13.1403ZM16.4949 13.1403V33.144H14.6374V13.1403H16.4949ZM14.7231 31.0579V33.144H12.437V32.8583C12.437 32.8583 12.4942 32.8583 12.6085 32.8583C12.7418 32.8583 12.8085 32.8583 12.8085 32.8583C13.3038 32.8583 13.723 32.6868 14.0659 32.3439C14.4278 31.9819 14.6184 31.5533 14.6374 31.0579H14.7231ZM14.7231 15.2264H14.6374C14.6374 14.7311 14.4564 14.3119 14.0945 13.969C13.7325 13.607 13.3038 13.4261 12.8085 13.4261C12.8085 13.4261 12.7513 13.4261 12.637 13.4261C12.5227 13.4261 12.4656 13.4261 12.4656 13.4261L12.437 13.1403H14.7231V15.2264ZM16.4092 31.0579H16.4949C16.514 31.5533 16.6949 31.9819 17.0379 32.3439C17.3998 32.6868 17.8285 32.8583 18.3238 32.8583C18.3238 32.8583 18.381 32.8583 18.4953 32.8583C18.6286 32.8583 18.6953 32.8583 18.6953 32.8583V33.144H16.4092V31.0579Z" fill="white"/>
</g>
<defs>
<clipPath id="clip0_956_855">
<rect width="28.5768" height="37.3086" fill="white" transform="translate(0.71167)"/>
</clipPath>
</defs>
</svg>
