<svg width="138" height="36" viewBox="0 0 138 36" fill="none" xmlns="http://www.w3.org/2000/svg">
<path d="M4.23141 2V16H2.93141V2H4.23141ZM9.63141 15.38V16H4.17141V15.38H9.63141ZM10.8514 12.76L9.69141 16H6.37141L7.09141 15.38C7.79807 15.38 8.37141 15.2733 8.81141 15.06C9.26474 14.8333 9.63141 14.52 9.91141 14.12C10.1914 13.72 10.4381 13.2667 10.6514 12.76H10.8514ZM2.99141 14.54V16H1.39141V15.8C1.39141 15.8 1.43141 15.8 1.51141 15.8C1.60474 15.8 1.65141 15.8 1.65141 15.8C1.99807 15.8 2.29141 15.68 2.53141 15.44C2.78474 15.1867 2.91807 14.8867 2.93141 14.54H2.99141ZM2.99141 3.46H2.93141C2.91807 3.11333 2.78474 2.82 2.53141 2.58C2.29141 2.32667 1.99807 2.2 1.65141 2.2C1.65141 2.2 1.60474 2.2 1.51141 2.2C1.43141 2.2 1.39141 2.2 1.39141 2.2V2H2.99141V3.46ZM4.17141 3.46V2H5.77141V2.2C5.75807 2.2 5.71141 2.2 5.63141 2.2C5.55141 2.2 5.51141 2.2 5.51141 2.2C5.16474 2.2 4.86474 2.32667 4.61141 2.58C4.37141 2.82 4.24474 3.11333 4.23141 3.46H4.17141ZM14.7619 4V11.56C14.7619 12.8533 15.0885 13.8733 15.7419 14.62C16.4085 15.3667 17.3152 15.74 18.4619 15.74C19.7285 15.74 20.7219 15.3867 21.4419 14.68C22.1752 13.9733 22.5419 13.0067 22.5419 11.78V4H23.4619V11.78C23.4619 13.1667 23.0152 14.2667 22.1219 15.08C21.2419 15.88 20.0285 16.28 18.4819 16.28C16.9485 16.28 15.7285 15.88 14.8219 15.08C13.9285 14.28 13.4819 13.1867 13.4819 11.8V4H14.7619ZM13.5219 4V5.06H13.4819C13.4685 4.82 13.3685 4.62 13.1819 4.46C13.0085 4.28667 12.7885 4.2 12.5219 4.2C12.5219 4.2 12.4685 4.2 12.3619 4.2C12.2685 4.2 12.2219 4.2 12.2219 4.2V4H13.5219ZM16.0219 4V4.2C16.0219 4.2 15.9685 4.2 15.8619 4.2C15.7685 4.2 15.7219 4.2 15.7219 4.2C15.4685 4.2 15.2419 4.28667 15.0419 4.46C14.8552 4.62 14.7619 4.82 14.7619 5.06H14.7219V4H16.0219ZM22.5819 4V5.06H22.5419C22.5419 4.82 22.4485 4.62 22.2619 4.46C22.0752 4.28667 21.8485 4.2 21.5819 4.2C21.5819 4.2 21.5285 4.2 21.4219 4.2C21.3285 4.2 21.2819 4.2 21.2819 4.2V4H22.5819ZM24.7219 4V4.2C24.7219 4.2 24.6685 4.2 24.5619 4.2C24.4685 4.2 24.4219 4.2 24.4219 4.2C24.1685 4.2 23.9485 4.28667 23.7619 4.46C23.5752 4.62 23.4752 4.82 23.4619 5.06H23.4219V4H24.7219ZM28.4658 4.02L36.8058 15.98H35.1858L26.8858 4.02H28.4658ZM28.6658 14.72C28.4924 14.9733 28.4924 15.22 28.6658 15.46C28.8524 15.6867 29.0724 15.8 29.3258 15.8C29.3258 15.8 29.3658 15.8 29.4458 15.8C29.5258 15.8 29.5658 15.8 29.5658 15.8V16H25.2058V15.8H25.4658C25.8658 15.8 26.2324 15.7 26.5658 15.5C26.8991 15.2867 27.1724 15.0467 27.3858 14.78L28.6658 14.72ZM31.3458 9.74L31.7458 10.56L27.7258 15.98H26.4658L31.3458 9.74ZM34.3258 14.74L35.9658 14.8C36.1658 15.0533 36.4391 15.2867 36.7858 15.5C37.1324 15.7 37.5058 15.8 37.9058 15.8H38.1658V16H33.4258V15.8C33.4258 15.8 33.4658 15.8 33.5458 15.8C33.6258 15.8 33.6658 15.8 33.6658 15.8C33.9324 15.8 34.1458 15.6867 34.3058 15.46C34.4791 15.22 34.4858 14.98 34.3258 14.74ZM30.2258 4V4.2C30.2258 4.2 30.1858 4.2 30.1058 4.2C30.0258 4.2 29.9858 4.2 29.9858 4.2C29.7324 4.2 29.5191 4.32 29.3458 4.56C29.1724 4.78667 29.1658 5.02 29.3258 5.26L27.7258 5.2C27.5258 4.93333 27.2524 4.7 26.9058 4.5C26.5591 4.3 26.1858 4.2 25.7858 4.2H25.5258V4H30.2258ZM36.4858 4.02L32.2258 9.94L31.7258 9.1L35.1258 4.02H36.4858ZM37.8258 4V4.2H37.5458C37.1458 4.2 36.7724 4.3 36.4258 4.5C36.0924 4.7 35.8258 4.94 35.6258 5.22L34.2858 5.28C34.4458 5.02667 34.4391 4.78667 34.2658 4.56C34.1058 4.32 33.8924 4.2 33.6258 4.2C33.6258 4.2 33.5858 4.2 33.5058 4.2C33.4258 4.2 33.3858 4.2 33.3858 4.2V4H37.8258ZM41.2853 4V11.56C41.2853 12.8533 41.612 13.8733 42.2653 14.62C42.932 15.3667 43.8386 15.74 44.9853 15.74C46.252 15.74 47.2453 15.3867 47.9653 14.68C48.6986 13.9733 49.0653 13.0067 49.0653 11.78V4H49.9853V11.78C49.9853 13.1667 49.5386 14.2667 48.6453 15.08C47.7653 15.88 46.552 16.28 45.0053 16.28C43.472 16.28 42.252 15.88 41.3453 15.08C40.452 14.28 40.0053 13.1867 40.0053 11.8V4H41.2853ZM40.0453 4V5.06H40.0053C39.992 4.82 39.892 4.62 39.7053 4.46C39.532 4.28667 39.312 4.2 39.0453 4.2C39.0453 4.2 38.992 4.2 38.8853 4.2C38.792 4.2 38.7453 4.2 38.7453 4.2V4H40.0453ZM42.5453 4V4.2C42.5453 4.2 42.492 4.2 42.3853 4.2C42.292 4.2 42.2453 4.2 42.2453 4.2C41.992 4.2 41.7653 4.28667 41.5653 4.46C41.3786 4.62 41.2853 4.82 41.2853 5.06H41.2453V4H42.5453ZM49.1053 4V5.06H49.0653C49.0653 4.82 48.972 4.62 48.7853 4.46C48.5986 4.28667 48.372 4.2 48.1053 4.2C48.1053 4.2 48.052 4.2 47.9453 4.2C47.852 4.2 47.8053 4.2 47.8053 4.2V4H49.1053ZM51.2453 4V4.2C51.2453 4.2 51.192 4.2 51.0853 4.2C50.992 4.2 50.9453 4.2 50.9453 4.2C50.692 4.2 50.472 4.28667 50.2853 4.46C50.0986 4.62 49.9986 4.82 49.9853 5.06H49.9453V4H51.2453ZM55.4892 4H58.0692C58.6959 4 59.2559 4.07333 59.7492 4.22C60.2559 4.36667 60.6826 4.58 61.0292 4.86C61.3892 5.14 61.6626 5.48 61.8492 5.88C62.0359 6.28 62.1292 6.73333 62.1292 7.24C62.1292 7.8 61.9959 8.32 61.7292 8.8C61.4626 9.28 61.0892 9.67333 60.6092 9.98C60.1426 10.2867 59.6092 10.4733 59.0092 10.54C59.2359 10.6333 59.4959 10.84 59.7892 11.16C60.0959 11.48 60.3559 11.7933 60.5692 12.1C60.5692 12.1 60.6559 12.22 60.8292 12.46C61.0026 12.6867 61.2226 12.9733 61.4892 13.32C61.7692 13.6533 62.0426 13.9733 62.3092 14.28C62.5892 14.5867 62.8426 14.8533 63.0692 15.08C63.3092 15.3067 63.5626 15.4867 63.8292 15.62C64.1092 15.74 64.4292 15.8 64.7892 15.8V16H64.1692C63.4359 16 62.8292 15.9067 62.3492 15.72C61.8826 15.5333 61.5026 15.3067 61.2092 15.04C60.9159 14.76 60.6626 14.4933 60.4492 14.24C60.3959 14.1733 60.2692 14.0067 60.0692 13.74C59.8826 13.46 59.6759 13.16 59.4492 12.84C59.2226 12.52 59.0159 12.2333 58.8292 11.98C58.6426 11.7133 58.5292 11.5533 58.4892 11.5C58.2226 11.1533 57.9159 10.8467 57.5692 10.58C57.2226 10.3 56.8559 10.16 56.4692 10.16V9.96C56.4692 9.96 56.5759 9.96667 56.7892 9.98C57.0026 9.98 57.2759 9.97333 57.6092 9.96C57.9826 9.94667 58.3559 9.92 58.7292 9.88C59.1026 9.82667 59.4492 9.68 59.7692 9.44C60.1026 9.2 60.3626 8.8 60.5492 8.24C60.6026 8.09333 60.6426 7.92 60.6692 7.72C60.6959 7.52 60.7026 7.31333 60.6892 7.1C60.6759 6.72667 60.6026 6.39333 60.4692 6.1C60.3492 5.80667 60.1692 5.55333 59.9292 5.34C59.7026 5.12667 59.4292 4.96 59.1092 4.84C58.7892 4.72 58.4292 4.65333 58.0292 4.64C57.4026 4.61333 56.8559 4.60667 56.3892 4.62C55.9226 4.63333 55.6892 4.63333 55.6892 4.62C55.6892 4.60667 55.6692 4.55333 55.6292 4.46C55.6026 4.35333 55.5692 4.25333 55.5292 4.16C55.5026 4.05333 55.4892 4 55.4892 4ZM55.7292 4V16H54.4492V4H55.7292ZM54.5092 14.72L54.7492 16H53.0492V15.8C53.0492 15.8 53.0959 15.8 53.1892 15.8C53.2826 15.8 53.3292 15.8 53.3292 15.8C53.6492 15.8 53.9159 15.6933 54.1292 15.48C54.3426 15.2667 54.4559 15.0133 54.4692 14.72H54.5092ZM54.5092 5.26H54.4692C54.4559 4.95333 54.3426 4.7 54.1292 4.5C53.9159 4.3 53.6492 4.2 53.3292 4.2C53.3292 4.2 53.2826 4.2 53.1892 4.2C53.0959 4.2 53.0492 4.2 53.0492 4.2V4H54.7492L54.5092 5.26ZM55.6692 14.72H55.7292C55.7426 15.0133 55.8559 15.2667 56.0692 15.48C56.2826 15.6933 56.5492 15.8 56.8692 15.8C56.8692 15.8 56.9092 15.8 56.9892 15.8C57.0826 15.8 57.1292 15.8 57.1292 15.8L57.1492 16H55.4292L55.6692 14.72ZM66.5698 4.02L70.2698 10.6L69.4498 11.3L64.8298 4.02H66.5698ZM70.5698 10.84V16H69.2698V10.84H70.5698ZM73.9298 4.02H75.1898L70.4298 11.26L69.6898 11.04L73.9298 4.02ZM73.1698 5.28C73.3165 5.01333 73.3232 4.76667 73.1898 4.54C73.0565 4.31333 72.8432 4.2 72.5498 4.2C72.5498 4.2 72.5098 4.2 72.4298 4.2C72.3498 4.2 72.3098 4.2 72.3098 4.2V4H76.4898V4.2H76.2498C75.8765 4.2 75.5232 4.30667 75.1898 4.52C74.8698 4.72 74.6165 4.95333 74.4298 5.22L73.1698 5.28ZM67.2698 5.26L65.5698 5.2C65.3565 4.89333 65.0898 4.65333 64.7698 4.48C64.4632 4.29333 64.1165 4.2 63.7298 4.2H63.4898V4H68.1298V4.2C68.1298 4.2 68.0898 4.2 68.0098 4.2C67.9298 4.2 67.8898 4.2 67.8898 4.2C67.5965 4.2 67.3832 4.32 67.2498 4.56C67.1298 4.78667 67.1365 5.02 67.2698 5.26ZM69.3298 14.72V16H67.8698V15.8C67.8832 15.8 67.9232 15.8 67.9898 15.8C68.0698 15.8 68.1098 15.8 68.1098 15.8C68.4298 15.8 68.6965 15.6933 68.9098 15.48C69.1365 15.2667 69.2565 15.0133 69.2698 14.72H69.3298ZM70.5098 14.72H70.5698C70.5832 15.0133 70.6965 15.2667 70.9098 15.48C71.1365 15.6933 71.4098 15.8 71.7298 15.8C71.7298 15.8 71.7698 15.8 71.8498 15.8C71.9298 15.8 71.9698 15.8 71.9698 15.8V16H70.5098V14.72ZM85.1628 2H87.8028C88.6561 2 89.3895 2.15333 90.0028 2.46C90.6161 2.76667 91.0895 3.21333 91.4228 3.8C91.7561 4.37333 91.9228 5.06 91.9228 5.86C91.9228 6.47333 91.8028 7.02667 91.5628 7.52C91.3228 8 91.0028 8.40667 90.6028 8.74C90.2028 9.07333 89.7495 9.32667 89.2428 9.5C88.7361 9.66 88.2095 9.72 87.6628 9.68C87.1295 9.64 86.6095 9.48667 86.1028 9.22V9.02C86.1028 9.02 86.2161 9.04 86.4428 9.08C86.6695 9.10667 86.9561 9.11333 87.3028 9.1C87.6628 9.07333 88.0361 9 88.4228 8.88C88.8228 8.74667 89.1895 8.52 89.5228 8.2C89.8695 7.88 90.1295 7.43333 90.3028 6.86C90.3428 6.71333 90.3761 6.53333 90.4028 6.32C90.4295 6.09333 90.4361 5.87333 90.4228 5.66C90.4095 4.74 90.1695 4 89.7028 3.44C89.2361 2.88 88.5761 2.6 87.7228 2.6H85.3628C85.3628 2.6 85.3428 2.55333 85.3028 2.46C85.2761 2.35333 85.2428 2.25333 85.2028 2.16C85.1761 2.05333 85.1628 2 85.1628 2ZM85.4228 2V16H84.1228V2H85.4228ZM84.1828 14.54V16H82.5828V15.8C82.5828 15.8 82.6228 15.8 82.7028 15.8C82.7961 15.8 82.8428 15.8 82.8428 15.8C83.1895 15.8 83.4828 15.68 83.7228 15.44C83.9761 15.1867 84.1095 14.8867 84.1228 14.54H84.1828ZM84.1828 3.46H84.1228C84.1228 3.11333 83.9961 2.82 83.7428 2.58C83.4895 2.32667 83.1895 2.2 82.8428 2.2C82.8428 2.2 82.8028 2.2 82.7228 2.2C82.6428 2.2 82.6028 2.2 82.6028 2.2L82.5828 2H84.1828V3.46ZM85.3628 14.54H85.4228C85.4361 14.8867 85.5628 15.1867 85.8028 15.44C86.0561 15.68 86.3561 15.8 86.7028 15.8C86.7028 15.8 86.7428 15.8 86.8228 15.8C86.9161 15.8 86.9628 15.8 86.9628 15.8V16H85.3628V14.54ZM96.2658 4V11.56C96.2658 12.8533 96.5924 13.8733 97.2458 14.62C97.9124 15.3667 98.8191 15.74 99.9658 15.74C101.232 15.74 102.226 15.3867 102.946 14.68C103.679 13.9733 104.046 13.0067 104.046 11.78V4H104.966V11.78C104.966 13.1667 104.519 14.2667 103.626 15.08C102.746 15.88 101.532 16.28 99.9858 16.28C98.4524 16.28 97.2324 15.88 96.3258 15.08C95.4324 14.28 94.9858 13.1867 94.9858 11.8V4H96.2658ZM95.0258 4V5.06H94.9858C94.9724 4.82 94.8724 4.62 94.6858 4.46C94.5124 4.28667 94.2924 4.2 94.0258 4.2C94.0258 4.2 93.9724 4.2 93.8658 4.2C93.7724 4.2 93.7258 4.2 93.7258 4.2V4H95.0258ZM97.5258 4V4.2C97.5258 4.2 97.4724 4.2 97.3658 4.2C97.2724 4.2 97.2258 4.2 97.2258 4.2C96.9724 4.2 96.7458 4.28667 96.5458 4.46C96.3591 4.62 96.2658 4.82 96.2658 5.06H96.2258V4H97.5258ZM104.086 4V5.06H104.046C104.046 4.82 103.952 4.62 103.766 4.46C103.579 4.28667 103.352 4.2 103.086 4.2C103.086 4.2 103.032 4.2 102.926 4.2C102.832 4.2 102.786 4.2 102.786 4.2V4H104.086ZM106.226 4V4.2C106.226 4.2 106.172 4.2 106.066 4.2C105.972 4.2 105.926 4.2 105.926 4.2C105.672 4.2 105.452 4.28667 105.266 4.46C105.079 4.62 104.979 4.82 104.966 5.06H104.926V4H106.226ZM110.75 4V16H109.47V4H110.75ZM116.13 15.38L116.09 16H110.71V15.38H116.13ZM117.25 13.14L116.15 16H113.11L113.79 15.38C114.456 15.38 114.99 15.2867 115.39 15.1C115.803 14.9 116.136 14.6333 116.39 14.3C116.643 13.9533 116.863 13.5667 117.05 13.14H117.25ZM109.51 14.72L109.77 16H108.03V15.8C108.03 15.8 108.076 15.8 108.17 15.8C108.263 15.8 108.31 15.8 108.31 15.8C108.643 15.8 108.916 15.6933 109.13 15.48C109.343 15.2667 109.456 15.0133 109.47 14.72H109.51ZM110.69 5.28V4H112.17V4.2C112.17 4.2 112.13 4.2 112.05 4.2C111.97 4.2 111.93 4.2 111.93 4.2C111.61 4.2 111.33 4.30667 111.09 4.52C110.863 4.72 110.75 4.97333 110.75 5.28H110.69ZM109.51 5.28H109.47C109.456 4.97333 109.336 4.72 109.11 4.52C108.883 4.30667 108.603 4.2 108.27 4.2C108.27 4.2 108.23 4.2 108.15 4.2C108.07 4.2 108.03 4.2 108.03 4.2V4H109.51V5.28ZM122.332 3.72C122.706 3.72 123.032 3.73333 123.312 3.76C123.592 3.78667 123.832 3.82 124.032 3.86C124.246 3.88667 124.426 3.92667 124.572 3.98C124.732 4.02 124.872 4.06 124.992 4.1L125.012 6.08H124.772C124.772 5.53333 124.586 5.10667 124.212 4.8C123.839 4.48 123.259 4.32 122.472 4.32C121.806 4.32 121.232 4.50667 120.752 4.88C120.286 5.24 120.059 5.68667 120.072 6.22C120.072 6.39333 120.092 6.57333 120.132 6.76C120.186 6.93333 120.266 7.10667 120.372 7.28C120.492 7.45333 120.652 7.62667 120.852 7.8L124.892 10.92C125.199 11.1733 125.426 11.5 125.572 11.9C125.719 12.2867 125.799 12.6733 125.812 13.06C125.826 13.6467 125.672 14.1867 125.352 14.68C125.032 15.1733 124.599 15.5667 124.052 15.86C123.519 16.14 122.926 16.28 122.272 16.28C121.886 16.28 121.466 16.2467 121.012 16.18C120.572 16.1133 120.159 16.0133 119.772 15.88C119.386 15.7333 119.066 15.5533 118.812 15.34C118.772 15.1533 118.752 14.92 118.752 14.64C118.752 14.3467 118.772 14.04 118.812 13.72C118.866 13.4 118.932 13.1133 119.012 12.86H119.252C119.199 13.46 119.286 13.9733 119.512 14.4C119.739 14.8267 120.072 15.1533 120.512 15.38C120.952 15.5933 121.466 15.6933 122.052 15.68C122.879 15.6533 123.526 15.4467 123.992 15.06C124.472 14.66 124.712 14.1333 124.712 13.48C124.712 13.16 124.652 12.8733 124.532 12.62C124.426 12.3533 124.246 12.1067 123.992 11.88L119.992 8.8C119.619 8.48 119.366 8.12667 119.232 7.74C119.099 7.35333 119.032 6.98667 119.032 6.64C119.032 6.09333 119.179 5.6 119.472 5.16C119.766 4.72 120.159 4.37333 120.652 4.12C121.159 3.85333 121.719 3.72 122.332 3.72ZM124.972 3.9L124.992 4.26H123.572V3.9H124.972ZM130.711 4V16H129.431V4H130.711ZM136.091 15.38L136.051 16H130.671V15.38H136.091ZM135.151 9.7V10.3H130.671V9.7H135.151ZM136.071 4V4.62H130.671V4H136.071ZM137.211 13.14L136.111 16H133.071L133.751 15.38C134.417 15.38 134.951 15.2867 135.351 15.1C135.764 14.9 136.097 14.6333 136.351 14.3C136.604 13.9533 136.824 13.5667 137.011 13.14H137.211ZM135.151 10.26V11.4H134.931V11.14C134.931 10.9133 134.864 10.72 134.731 10.56C134.597 10.3867 134.391 10.3 134.111 10.3V10.26H135.151ZM135.151 8.6V9.74H134.111V9.7C134.391 9.7 134.597 9.62 134.731 9.46C134.864 9.28667 134.931 9.08667 134.931 8.86V8.6H135.151ZM136.071 4.56V5.94H135.851V5.64C135.851 5.36 135.757 5.12 135.571 4.92C135.397 4.72 135.157 4.62 134.851 4.62V4.56H136.071ZM136.071 3.68V4.2L133.791 4C134.204 4 134.644 3.96667 135.111 3.9C135.577 3.82 135.897 3.74667 136.071 3.68ZM129.471 14.72L129.731 16H127.991V15.8C127.991 15.8 128.037 15.8 128.131 15.8C128.224 15.8 128.271 15.8 128.271 15.8C128.604 15.8 128.877 15.6933 129.091 15.48C129.304 15.2667 129.417 15.0133 129.431 14.72H129.471ZM129.471 5.26H129.431C129.417 4.95333 129.304 4.7 129.091 4.5C128.877 4.3 128.604 4.2 128.271 4.2C128.271 4.2 128.224 4.2 128.131 4.2C128.037 4.2 127.991 4.2 127.991 4.2V4H129.731L129.471 5.26Z" fill="black"/>
<path d="M134 21.1609C134 21.1609 133.404 18.5389 129.336 21.176C129.336 21.176 133.171 23.8401 134 21.1609ZM133.065 21.1757C133.065 21.2451 132.996 21.3016 132.91 21.3021C132.825 21.3023 132.755 21.2463 132.755 21.1769C132.754 21.1075 132.824 21.0511 132.909 21.0506C132.995 21.0501 133.065 21.1061 133.065 21.1757ZM130.345 21.181C130.345 21.181 130.607 20.3917 132.473 21.1741C132.473 21.1741 130.733 21.9839 130.345 21.181Z" fill="black"/>
<path d="M129.035 21.5364C128.798 21.5371 128.605 21.3823 128.604 21.1904C128.604 20.9985 128.795 20.8425 129.031 20.8418C129.268 20.8411 129.461 20.9959 129.462 21.1878C129.463 21.3794 129.271 21.5357 129.035 21.5364Z" fill="black"/>
<path d="M125.741 21.5461C125.504 21.5469 125.312 21.3921 125.311 21.2002C125.31 21.0083 125.501 20.8523 125.738 20.8516C125.975 20.8508 126.167 21.0057 126.168 21.1975C126.169 21.3894 125.978 21.5454 125.741 21.5461Z" fill="black"/>
<path d="M127.386 22.1148C127.386 22.1148 128.853 21.1946 128.84 21.1898C128.852 21.1848 127.377 20.2744 127.377 20.2744C127.206 20.5754 125.915 21.1982 125.917 21.1994C125.896 21.2092 127.212 21.815 127.386 22.1148Z" fill="black"/>
<path d="M89.1373 21.1848C86.4882 19.4674 86.1001 21.175 86.1001 21.175C86.6396 22.9196 89.1373 21.1848 89.1373 21.1848ZM86.8104 21.103C86.8662 21.1032 86.9113 21.14 86.911 21.1853C86.9107 21.2305 86.8653 21.2671 86.8095 21.2668C86.7538 21.2666 86.7086 21.2298 86.7089 21.1845C86.7092 21.1393 86.7546 21.1027 86.8104 21.103ZM87.0941 21.1836C88.3098 20.674 88.4805 21.1881 88.4805 21.1881C88.2275 21.7109 87.0941 21.1836 87.0941 21.1836Z" fill="black"/>
<path d="M89.3336 21.419C89.4877 21.4195 89.6133 21.3187 89.6139 21.1938C89.6145 21.069 89.49 20.9673 89.3359 20.9668C89.1819 20.9663 89.0562 21.067 89.0557 21.1919C89.0551 21.3168 89.1796 21.4185 89.3336 21.419Z" fill="black"/>
<path d="M125.74 21.0771H89.6138V21.3229H125.74V21.0771Z" fill="black"/>
<path d="M69.594 33.0294C69.594 33.0294 69.5646 33.0158 69.5072 32.989C69.4775 32.977 69.4448 32.9567 69.4057 32.933C69.3649 32.9112 69.3246 32.8787 69.2781 32.8435C69.1892 32.7694 69.0924 32.6665 69.0165 32.5289C68.94 32.3918 68.8842 32.2224 68.8578 32.0282C68.8046 31.6391 68.8693 31.1537 69.0541 30.6175C69.1481 30.3498 69.2703 30.0677 69.4356 29.7841C69.5187 29.6425 69.6109 29.5009 69.7213 29.3643C69.8343 29.2221 69.9501 29.0762 70.0691 28.9266C70.5443 28.3314 71.0723 27.6844 71.7297 27.0569C72.0592 26.7444 72.4219 26.4379 72.8281 26.1572C73.0322 26.0182 73.2466 25.8852 73.4723 25.762C73.6997 25.6409 73.938 25.5304 74.1875 25.4337C74.4364 25.3361 74.6997 25.2598 74.9699 25.1983C75.1047 25.166 75.2436 25.1447 75.3821 25.1213C75.5224 25.1045 75.6621 25.0858 75.8104 25.078C76.3948 25.0306 76.9968 25.0311 77.5823 25.1179C77.8761 25.1576 78.1612 25.2287 78.4312 25.322C78.7028 25.4134 78.95 25.5438 79.155 25.701C79.3593 25.8586 79.5151 26.0508 79.5873 26.2587C79.6632 26.4664 79.635 26.6874 79.5287 26.8865C79.5111 26.9207 79.4944 26.9552 79.4669 26.986C79.4416 27.0176 79.42 27.0509 79.3935 27.0817C79.332 27.1399 79.2791 27.2026 79.2044 27.253C79.0705 27.3641 78.8988 27.4471 78.7272 27.5265C78.3696 27.672 77.9661 27.7545 77.5573 27.794C77.1465 27.8299 76.7306 27.8232 76.3198 27.7974C75.924 27.7655 75.5302 27.6854 75.1484 27.582C74.3841 27.3724 73.6658 27.0796 72.9871 26.7757C72.3084 26.4695 71.6671 26.1472 71.058 25.8295C69.8403 25.1926 68.7468 24.5772 67.7735 24.0434C66.8014 23.5079 65.9519 23.0505 65.25 22.6909C64.5727 22.3018 63.7337 21.8298 62.7155 21.3429C62.2056 21.1008 61.6485 20.8577 61.037 20.634C60.4236 20.4153 59.7533 20.2112 59.0076 20.1074C58.6357 20.0559 58.2442 20.0311 57.842 20.0571C57.4407 20.0827 57.0288 20.1626 56.6433 20.3115C56.5456 20.3459 56.4553 20.3935 56.3605 20.4347C56.2696 20.4806 56.1817 20.5316 56.0926 20.5813C56.0089 20.6378 55.9253 20.6892 55.841 20.7515C55.7565 20.8163 55.6746 20.8869 55.6056 20.9689C55.4625 21.1285 55.369 21.3314 55.3489 21.536C55.3271 21.742 55.3765 21.9432 55.459 22.1258C55.6315 22.4901 55.9247 22.7883 56.257 23.0443C56.5922 23.2967 56.9779 23.517 57.4033 23.6709C57.61 23.7594 57.8311 23.8173 58.0493 23.8843C58.1594 23.9147 58.2723 23.9367 58.3844 23.9633L58.5532 24.0013C58.6098 24.013 58.667 24.0207 58.7239 24.0307C58.838 24.0494 58.9524 24.068 59.0671 24.0867C59.1824 24.0996 59.298 24.1123 59.4138 24.1252L59.5877 24.1441L59.7622 24.1554C59.8786 24.1626 59.9953 24.17 60.1123 24.1774C61.4898 24.231 62.8127 24.0879 64.0648 23.9092C64.3781 23.8642 64.6874 23.8154 64.9921 23.7654C65.0692 23.7527 65.1459 23.7398 65.2227 23.7271C65.3046 23.713 65.3839 23.6965 65.4621 23.6792C65.6176 23.6436 65.7694 23.6048 65.9163 23.562C66.505 23.3919 67.0503 23.1914 67.5804 22.9931C68.637 22.5933 69.6201 22.1915 70.5492 21.8317C71.4771 21.4709 72.3478 21.1472 73.1564 20.8814C73.9644 20.6146 74.7115 20.4064 75.3816 20.2698C76.0513 20.1342 76.6464 20.0739 77.1307 20.0935C77.6156 20.1112 77.9822 20.2112 78.2046 20.3139C78.2618 20.3375 78.3093 20.3624 78.3495 20.3851C78.3909 20.4062 78.424 20.4261 78.449 20.4435C78.5007 20.477 78.5272 20.4943 78.5272 20.4943C78.5272 20.4943 78.5022 20.4756 78.4533 20.4395C78.4294 20.4206 78.3981 20.399 78.3581 20.3756C78.3193 20.3507 78.2733 20.323 78.2176 20.2962C78.0008 20.1806 77.6335 20.0593 77.1379 20.0179C76.6429 19.9748 76.0303 20.0098 75.3402 20.1198C74.6497 20.2308 73.8799 20.4131 73.0492 20.6543C72.2178 20.8945 71.3247 21.1931 70.3776 21.5298C69.4301 21.8654 68.4295 22.2442 67.372 22.6193C66.843 22.8048 66.2989 22.9928 65.7392 23.1447C65.5995 23.183 65.459 23.2163 65.3187 23.2464C65.2485 23.2608 65.1787 23.2742 65.1094 23.2852L64.8849 23.3194C64.5814 23.3651 64.2755 23.4099 63.9665 23.4508C62.733 23.6139 61.4447 23.7431 60.1428 23.6919C60.0327 23.685 59.9232 23.6781 59.8137 23.6714L59.6495 23.6611L59.4877 23.6436C59.3799 23.6319 59.2724 23.6202 59.1649 23.6087C59.0594 23.5917 58.9539 23.5747 58.8487 23.558C58.7964 23.5491 58.7432 23.5424 58.6914 23.5319L58.5379 23.4977C58.4362 23.474 58.3324 23.4548 58.2329 23.4278C58.0372 23.3682 57.8365 23.3182 57.6543 23.2407C57.2763 23.1084 56.9417 22.9201 56.6462 22.704C56.355 22.4873 56.1081 22.2344 55.9756 21.9662C55.9123 21.8324 55.8781 21.6968 55.889 21.569C55.8997 21.4415 55.9491 21.3207 56.0411 21.2128C56.0845 21.158 56.1409 21.1075 56.2006 21.0591C56.2639 21.0103 56.3389 20.962 56.4067 20.9132C56.4809 20.8701 56.5539 20.8256 56.6292 20.7852C56.7083 20.7498 56.7824 20.7072 56.8641 20.6768C57.5074 20.4108 58.2499 20.3792 58.9392 20.4589C59.6334 20.5368 60.2874 20.7132 60.8925 20.9077C61.497 21.107 62.0564 21.3276 62.5723 21.5489C63.6034 21.9939 64.4675 22.4301 65.1678 22.7885C65.8433 23.1773 66.6617 23.6668 67.6034 24.2355C68.5468 24.8028 69.6106 25.4521 70.8131 26.1254C71.4147 26.4616 72.052 26.8025 72.7361 27.1294C73.4214 27.4538 74.1527 27.7696 74.9668 28.0062C75.3741 28.1225 75.8044 28.2177 76.2615 28.2594C76.7044 28.2921 77.1583 28.3044 77.6205 28.267C78.0816 28.2256 78.5522 28.1359 78.9966 27.9572C79.2139 27.8596 79.4318 27.7536 79.6169 27.6038C79.7152 27.5356 79.7951 27.4488 79.8785 27.366C79.917 27.3219 79.9501 27.2743 79.9857 27.2282C80.0231 27.1829 80.0501 27.1325 80.0768 27.0815C80.2381 26.7858 80.2763 26.4374 80.1628 26.13C80.055 25.8209 79.8302 25.5567 79.5626 25.3529C79.2935 25.1488 78.9839 24.9933 78.6623 24.887C78.3415 24.7786 78.0115 24.7016 77.682 24.66C77.0229 24.5698 76.3721 24.5796 75.7509 24.6394C75.5963 24.6502 75.4382 24.6731 75.2818 24.6949C75.1272 24.7231 74.9728 24.7502 74.8233 24.7885C74.5238 24.8619 74.2346 24.9528 73.9644 25.065C73.6936 25.1763 73.4381 25.3024 73.1972 25.4383C72.9583 25.5763 72.7344 25.7235 72.5234 25.8761C72.1037 26.1836 71.7387 26.5133 71.4118 26.8454C70.7605 27.5122 70.2577 28.1852 69.8121 28.7989C69.7015 28.9525 69.5937 29.1023 69.4885 29.2485C69.3784 29.399 69.2893 29.553 69.2114 29.7038C69.0561 30.0057 68.9484 30.3005 68.8687 30.5794C68.7135 31.1376 68.6804 31.6389 68.7635 32.0384C68.8049 32.2377 68.8756 32.4107 68.9653 32.5485C69.0544 32.6868 69.1625 32.7878 69.2588 32.8586C69.3094 32.8924 69.3525 32.923 69.3956 32.9428C69.437 32.9646 69.4715 32.983 69.5023 32.9935C69.5635 33.0175 69.594 33.0294 69.594 33.0294Z" fill="black"/>
<path d="M69.6041 33.0302C69.6041 33.0302 69.6346 33.0182 69.6943 32.9945C69.7251 32.984 69.7596 32.9656 69.801 32.9438C69.8441 32.9239 69.8875 32.8933 69.9378 32.8596C70.0341 32.7888 70.1422 32.6878 70.2313 32.5495C70.321 32.4117 70.3917 32.239 70.4331 32.0394C70.5165 31.6399 70.4834 31.1386 70.3279 30.5804C70.2483 30.3014 70.1405 30.0067 69.9855 29.7047C69.9076 29.5543 69.8182 29.4002 69.7084 29.2494C69.6032 29.1032 69.4951 28.9535 69.3848 28.7999C68.9392 28.1862 68.4364 27.5129 67.7851 26.8463C67.4582 26.514 67.0932 26.1846 66.6735 25.8771C66.4625 25.7245 66.2386 25.5773 65.9997 25.4393C65.7591 25.3034 65.5036 25.1773 65.2325 25.066C64.9623 24.9538 64.6728 24.8629 64.3736 24.7894C64.2241 24.7509 64.07 24.7241 63.9151 24.6959C63.7587 24.6741 63.6006 24.6509 63.446 24.6404C62.8248 24.5808 62.174 24.5708 61.5148 24.661C61.1854 24.7026 60.8554 24.7796 60.5346 24.888C60.213 24.9942 59.9037 25.1498 59.6343 25.3538C59.3667 25.5579 59.1419 25.8218 59.0341 26.131C58.9206 26.4384 58.9585 26.7868 59.1201 27.0825C59.1465 27.1334 59.1735 27.1839 59.2112 27.2292C59.2466 27.2753 59.2799 27.3229 59.3184 27.367C59.4018 27.4497 59.4817 27.5366 59.58 27.6048C59.7651 27.7543 59.9827 27.8606 60.2003 27.9582C60.6447 28.1369 61.1153 28.2269 61.5764 28.268C62.0386 28.3053 62.4928 28.2931 62.9354 28.2604C63.3925 28.2187 63.8228 28.1235 64.2304 28.0072C65.0445 27.7708 65.7758 27.455 66.4611 27.1303C67.1452 26.8033 67.7825 26.4623 68.3838 26.1264C69.586 25.4531 70.6501 24.8038 71.5935 24.2365C72.5355 23.6678 73.3536 23.178 74.0291 22.7895C74.7294 22.4313 75.5935 21.9949 76.6246 21.5499C77.1405 21.3286 77.6999 21.108 78.3044 20.9087C78.9095 20.7142 79.5635 20.5381 80.2577 20.4598C80.947 20.3802 81.6895 20.412 82.3328 20.6778C82.4144 20.7082 82.4886 20.7505 82.5677 20.7862C82.6433 20.8266 82.716 20.8711 82.7901 20.9142C82.858 20.963 82.933 21.0113 82.9963 21.0601C83.056 21.1085 83.1124 21.1587 83.1558 21.2137C83.2481 21.3216 83.2975 21.4425 83.3081 21.57C83.3191 21.6977 83.2849 21.8334 83.2216 21.9671C83.0891 22.2354 82.8422 22.4885 82.551 22.705C82.2552 22.9211 81.9209 23.1094 81.5426 23.2417C81.3604 23.3192 81.1597 23.369 80.964 23.4288C80.8645 23.4558 80.7607 23.4749 80.6593 23.4986L80.5058 23.5329C80.4543 23.5434 80.4011 23.5501 80.3485 23.5589C80.2433 23.5757 80.1381 23.5927 80.0323 23.6096C79.9251 23.6214 79.8176 23.6329 79.7095 23.6446L79.5477 23.6621L79.3835 23.6723C79.274 23.6793 79.1645 23.686 79.0544 23.6929C77.7525 23.7439 76.4642 23.6149 75.2307 23.4517C74.9217 23.4108 74.6158 23.3663 74.3123 23.3204L74.0878 23.2862C74.0185 23.2752 73.9487 23.2618 73.8785 23.2474C73.7382 23.2173 73.5977 23.1838 73.458 23.1457C72.8986 22.9938 72.3541 22.8058 71.8252 22.6203C70.7677 22.2452 69.7671 21.8664 68.8196 21.5307C67.8725 21.1941 66.9796 20.8955 66.148 20.6553C65.3176 20.4139 64.5475 20.2318 63.8573 20.1208C63.1671 20.0107 62.5546 19.9758 62.0596 20.0189C61.5637 20.06 61.1966 20.1816 60.9799 20.2971C60.9238 20.3242 60.8779 20.3517 60.8393 20.3766C60.7994 20.4 60.7678 20.4215 60.7442 20.4404C60.6953 20.4768 60.6703 20.4952 60.6703 20.4952C60.6703 20.4952 60.6968 20.478 60.7485 20.4445C60.7735 20.4271 60.8066 20.4072 60.848 20.3861C60.8882 20.3636 60.9356 20.3385 60.9928 20.3148C61.2153 20.2122 61.5818 20.1122 62.0668 20.0945C62.5514 20.0751 63.1461 20.1352 63.8159 20.2708C64.4863 20.4074 65.2331 20.6153 66.0411 20.8824C66.85 21.1482 67.7204 21.4719 68.6483 21.8327C69.5773 22.1928 70.5607 22.5942 71.6171 22.994C72.1469 23.1921 72.6925 23.3929 73.2812 23.563C73.4284 23.6056 73.5798 23.6446 73.7354 23.6802C73.8135 23.6975 73.8929 23.714 73.9748 23.7281C74.0513 23.7408 74.1283 23.7537 74.2053 23.7664C74.51 23.8164 74.8194 23.8652 75.1327 23.9102C76.3845 24.0889 77.7077 24.2317 79.0852 24.1784C79.2022 24.171 79.3189 24.1638 79.4353 24.1564L79.6098 24.1451L79.7837 24.1262C79.8995 24.1133 80.0151 24.1004 80.1303 24.0877C80.245 24.069 80.3594 24.0504 80.4736 24.0317C80.5305 24.0219 80.5877 24.0142 80.6443 24.0023L80.813 23.9642C80.9249 23.9377 81.0378 23.9159 81.1482 23.8853C81.3667 23.8183 81.5877 23.7604 81.7944 23.6719C82.2198 23.518 82.6056 23.2977 82.9408 23.0453C83.2731 22.7895 83.5663 22.4911 83.7387 22.1267C83.8212 21.9442 83.8707 21.743 83.8488 21.537C83.8287 21.3324 83.7353 21.1295 83.5921 20.9699C83.5232 20.8879 83.4412 20.8173 83.3567 20.7524C83.2725 20.6902 83.1888 20.6388 83.1055 20.5823C83.0164 20.5326 82.9284 20.4816 82.8376 20.4357C82.7427 20.3945 82.6527 20.3471 82.5547 20.3125C82.1695 20.1636 81.7573 20.0837 81.356 20.0581C80.9539 20.032 80.5624 20.0569 80.1904 20.1084C79.4445 20.2122 78.7744 20.416 78.161 20.635C77.5493 20.8587 76.9925 21.1018 76.4826 21.3439C75.4641 21.8305 74.6253 22.3026 73.9481 22.6919C73.2464 23.0515 72.3967 23.5089 71.4245 24.0444C70.4515 24.5782 69.3577 25.1935 68.1401 25.8304C67.531 26.1484 66.8897 26.4705 66.211 26.7767C65.532 27.0806 64.8137 27.3732 64.0496 27.583C63.6679 27.6864 63.2744 27.7665 62.8782 27.7983C62.4675 27.8239 62.0515 27.8309 61.6408 27.795C61.232 27.7555 60.8284 27.673 60.4708 27.5275C60.2992 27.4483 60.1276 27.365 59.9936 27.254C59.9189 27.2036 59.8657 27.1409 59.8045 27.0827C59.7778 27.0519 59.7562 27.0186 59.7309 26.987C59.7036 26.9562 59.6866 26.9217 59.6694 26.8875C59.5628 26.6887 59.5346 26.4674 59.6108 26.2597C59.6826 26.0518 59.8387 25.8596 60.0431 25.702C60.2483 25.5445 60.4953 25.4144 60.7669 25.323C61.0368 25.2297 61.322 25.1586 61.6157 25.1189C62.2013 25.032 62.8032 25.0316 63.3876 25.0789C63.5359 25.0868 63.6756 25.1055 63.8159 25.1222C63.9548 25.1457 64.0933 25.167 64.2281 25.1993C64.4983 25.2608 64.7616 25.3371 65.0106 25.4347C65.2601 25.5311 65.4987 25.6419 65.7258 25.763C65.9514 25.8862 66.1658 26.019 66.3699 26.1582C66.7764 26.4389 67.1389 26.7451 67.4686 27.0578C68.126 27.6854 68.654 28.3324 69.1292 28.9276C69.2479 29.0772 69.3638 29.2229 69.477 29.3652C69.5874 29.5021 69.6797 29.6435 69.7628 29.7851C69.928 30.0687 70.0502 30.351 70.1442 30.6185C70.329 31.1546 70.3937 31.6401 70.3405 32.0291C70.3141 32.2234 70.2583 32.3928 70.1819 32.5299C70.106 32.6675 70.0091 32.7704 69.9203 32.8445C69.8737 32.8797 69.8335 32.9122 69.7926 32.934C69.7536 32.9577 69.7208 32.9778 69.6912 32.99C69.6334 33.0166 69.6041 33.0302 69.6041 33.0302Z" fill="black"/>
<path d="M69.6806 32.3584C67.828 34.1512 69.6131 34.4507 69.6131 34.4507C71.4545 34.1117 69.6806 32.3584 69.6806 32.3584ZM69.551 33.9597C69.5521 33.9212 69.5918 33.8908 69.6392 33.892C69.6867 33.8932 69.724 33.9251 69.7229 33.9636C69.7217 34.0021 69.6821 34.0325 69.6347 34.0313C69.5872 34.0303 69.5496 33.9983 69.551 33.9597ZM69.6407 33.766C69.1287 32.919 69.6714 32.8111 69.6714 32.8111C70.2156 32.9951 69.6407 33.766 69.6407 33.766Z" fill="black"/>
<path d="M69.9307 32.2277C69.9342 32.1215 69.8307 32.0332 69.6996 32.0303C69.5685 32.0275 69.4596 32.1115 69.4561 32.2177C69.4527 32.3239 69.5562 32.4122 69.6872 32.4151C69.818 32.4177 69.9273 32.3337 69.9307 32.2277Z" fill="black"/>
<path d="M9.66422 21.1761C5.59618 18.5387 5 21.161 5 21.161C5.82902 23.84 9.66422 21.1761 9.66422 21.1761ZM6.09117 21.0502C6.17683 21.0505 6.24611 21.1069 6.24582 21.1765C6.24554 21.2459 6.17569 21.3021 6.09002 21.3017C6.00436 21.3014 5.93509 21.245 5.93537 21.1754C5.93566 21.106 6.00551 21.05 6.09117 21.0502ZM6.52695 21.1739C8.39339 20.3915 8.65583 21.1808 8.65583 21.1808C8.26748 21.9838 6.52695 21.1739 6.52695 21.1739Z" fill="black"/>
<path d="M9.96545 21.5364C10.2023 21.5371 10.3949 21.3823 10.3958 21.1904C10.3966 20.9985 10.2055 20.8425 9.9689 20.8418C9.73203 20.8411 9.53944 20.9959 9.53858 21.1878C9.53771 21.3794 9.72858 21.5357 9.96545 21.5364Z" fill="black"/>
<path d="M13.2584 21.5461C13.4953 21.5469 13.6879 21.3921 13.6887 21.2002C13.6896 21.0083 13.4984 20.8523 13.2619 20.8516C13.0253 20.8508 12.8324 21.0057 12.8315 21.1975C12.8307 21.3894 13.0218 21.5454 13.2584 21.5461Z" fill="black"/>
<path d="M11.6139 22.1148C11.6139 22.1148 10.1473 21.1946 10.1602 21.1898C10.1473 21.1848 11.6231 20.2744 11.6231 20.2744C11.7938 20.5754 13.0854 21.1982 13.0828 21.1994C13.1038 21.2092 11.7875 21.815 11.6139 22.1148Z" fill="black"/>
<path d="M52.9 21.175C52.9 21.175 52.512 19.4674 49.8628 21.1848C49.8628 21.1848 52.3602 22.9196 52.9 21.175ZM52.2912 21.1845C52.2915 21.2298 52.2464 21.2666 52.1906 21.2668C52.1348 21.2671 52.0894 21.2305 52.0891 21.1853C52.0888 21.14 52.134 21.1032 52.1897 21.103C52.2455 21.1027 52.2909 21.1393 52.2912 21.1845ZM50.5196 21.1881C50.5196 21.1881 50.6904 20.6742 51.906 21.1836C51.906 21.1836 50.7726 21.7109 50.5196 21.1881Z" fill="black"/>
<path d="M49.667 21.418C49.5129 21.4185 49.3873 21.3178 49.3867 21.1929C49.3861 21.068 49.5106 20.9663 49.6647 20.9658C49.8188 20.9653 49.9444 21.0661 49.945 21.191C49.9455 21.3159 49.8211 21.4175 49.667 21.418Z" fill="black"/>
<path d="M49.3863 21.0771H13.2603V21.3229H49.3863V21.0771Z" fill="black"/>
</svg>
