<svg width="24" height="28" viewBox="0 0 24 28" fill="none" xmlns="http://www.w3.org/2000/svg">
<path fill-rule="evenodd" clip-rule="evenodd" d="M20.7364 9.20136C23.1336 4.78987 24.0315 1.34573 23.4893 0.834108C23.0252 0.393638 19.1863 1.80145 17.3261 3.21773C16.9704 3.49218 15.527 7.63091 15.073 7.81049C14.685 7.96973 14.7443 5.30658 14.9629 4.13933C13.1586 4.97792 10.1278 7.14131 8.45405 8.6406C8.3236 8.75919 7.98648 14.1855 7.83062 14.3481C7.51212 14.6666 6.55325 10.6735 6.28558 11.0158C2.4501 15.8948 0.727181 21.3363 2.32643 23.6742C0.798334 26.1341 0.0325928 27.7265 0.0325928 27.7265L1.21 27.6808C1.92153 26.4627 2.62798 25.3192 3.33104 24.2112L3.37847 24.2367C5.0692 24.4027 9.18591 23.9266 13.2958 20.081C13.2958 20.081 11.0088 18.7748 11.3815 18.3835C11.7508 17.9904 15.3 16.8215 15.671 16.381C17.0009 14.7919 17.7531 14.0533 18.7611 12.5083C19.027 12.1051 15.998 12.8386 16.2436 12.4405C16.4825 12.0542 17.0381 10.0908 20.7364 9.20136Z" fill="#E9E9E9"/>
</svg>
