<svg width="36" height="47" viewBox="0 0 36 47" fill="none" xmlns="http://www.w3.org/2000/svg">
<g clip-path="url(#clip0_153_242)">
<path d="M8.16458 4.8V30H5.82458V4.8H8.16458ZM17.8846 28.884V30H8.05658V28.884H17.8846ZM20.0806 24.168L17.9926 30H12.0166L13.3126 28.884C14.5846 28.884 15.6166 28.692 16.4086 28.308C17.2246 27.9 17.8846 27.336 18.3886 26.616C18.8926 25.896 19.3366 25.08 19.7206 24.168H20.0806ZM5.93258 27.372V30H3.05258V29.64C3.05258 29.64 3.12458 29.64 3.26858 29.64C3.43658 29.64 3.52058 29.64 3.52058 29.64C4.14458 29.64 4.67258 29.424 5.10458 28.992C5.56058 28.536 5.80058 27.996 5.82458 27.372H5.93258ZM5.93258 7.428H5.82458C5.80058 6.804 5.56058 6.276 5.10458 5.844C4.67258 5.388 4.14458 5.16 3.52058 5.16C3.52058 5.16 3.43658 5.16 3.26858 5.16C3.12458 5.16 3.05258 5.16 3.05258 5.16V4.8H5.93258V7.428ZM8.05658 7.428V4.8H10.9366V5.16C10.9126 5.16 10.8286 5.16 10.6846 5.16C10.5406 5.16 10.4686 5.16 10.4686 5.16C9.84458 5.16 9.30458 5.388 8.84858 5.844C8.41658 6.276 8.18858 6.804 8.16458 7.428H8.05658Z" fill="black"/>
<path d="M19.4153 16.8H24.1673C25.7033 16.8 27.0233 17.076 28.1273 17.628C29.2313 18.18 30.0833 18.984 30.6833 20.04C31.2833 21.072 31.5833 22.308 31.5833 23.748C31.5833 24.852 31.3673 25.848 30.9353 26.736C30.5033 27.6 29.9273 28.332 29.2073 28.932C28.4873 29.532 27.6713 29.988 26.7593 30.3C25.8473 30.588 24.8993 30.696 23.9153 30.624C22.9553 30.552 22.0193 30.276 21.1073 29.796V29.436C21.1073 29.436 21.3113 29.472 21.7193 29.544C22.1273 29.592 22.6433 29.604 23.2673 29.58C23.9153 29.532 24.5873 29.4 25.2833 29.184C26.0033 28.944 26.6633 28.536 27.2633 27.96C27.8873 27.384 28.3553 26.58 28.6673 25.548C28.7393 25.284 28.7993 24.96 28.8473 24.576C28.8953 24.168 28.9073 23.772 28.8833 23.388C28.8593 21.732 28.4273 20.4 27.5873 19.392C26.7473 18.384 25.5593 17.88 24.0233 17.88H19.7753C19.7753 17.88 19.7393 17.796 19.6673 17.628C19.6193 17.436 19.5593 17.256 19.4873 17.088C19.4393 16.896 19.4153 16.8 19.4153 16.8ZM19.8833 16.8V42H17.5433V16.8H19.8833ZM17.6513 39.372V42H14.7713V41.64C14.7713 41.64 14.8433 41.64 14.9873 41.64C15.1553 41.64 15.2393 41.64 15.2393 41.64C15.8633 41.64 16.3913 41.424 16.8233 40.992C17.2793 40.536 17.5193 39.996 17.5433 39.372H17.6513ZM17.6513 19.428H17.5433C17.5433 18.804 17.3153 18.276 16.8593 17.844C16.4033 17.388 15.8633 17.16 15.2393 17.16C15.2393 17.16 15.1673 17.16 15.0233 17.16C14.8793 17.16 14.8073 17.16 14.8073 17.16L14.7713 16.8H17.6513V19.428ZM19.7753 39.372H19.8833C19.9073 39.996 20.1353 40.536 20.5673 40.992C21.0233 41.424 21.5633 41.64 22.1873 41.64C22.1873 41.64 22.2593 41.64 22.4033 41.64C22.5713 41.64 22.6553 41.64 22.6553 41.64V42H19.7753V39.372Z" fill="black"/>
</g>
<defs>
<clipPath id="clip0_153_242">
<rect width="36" height="47" fill="white"/>
</clipPath>
</defs>
</svg>
