<svg width="210" height="92" viewBox="0 0 210 92" fill="none" xmlns="http://www.w3.org/2000/svg">
<path d="M89.5728 19.0441C84.3468 19.8276 76.4034 21.3948 72.1181 22.4395C67.8328 23.4842 63.8611 24.0066 63.3385 23.6148C62.8159 23.2231 62.7113 23.6148 63.0249 24.3984C63.5475 25.182 61.7707 26.0961 58.5306 26.6185C55.7085 27.1409 53.0956 27.9244 52.782 28.5774C52.573 29.0998 54.7679 28.9692 57.7989 28.3162C65.2198 26.4879 74.7311 27.7938 88.3186 32.4952C101.802 37.1966 123.333 40.3308 139.533 40.2002C150.194 40.0696 149.567 39.8085 130.649 38.3719C111.208 36.8048 102.847 35.4989 94.2762 32.4952C90.9316 31.4505 90.3044 30.6669 90.0954 27.4021C89.8864 23.7454 90.0954 23.4842 94.6943 22.5701C103.056 21.003 113.403 22.7007 119.465 26.4879C124.796 29.7527 124.796 29.8833 121.869 26.7491C118.316 22.9619 119.361 21.9171 124.796 24.0066C127.827 25.0514 128.454 25.7043 127.2 26.3573C125.005 27.4021 124.796 32.3646 126.886 33.2788C128.768 34.1929 133.994 30.0139 133.157 28.4468C132.844 27.7938 135.248 28.708 138.592 30.5363C141.832 32.3646 144.759 33.8011 145.177 33.8011C146.327 33.6706 136.607 27.5327 128.559 23.2231C118.943 18.1299 104.624 16.5628 89.5728 19.0441ZM87.1689 26.7491C88.2141 30.0139 87.5869 30.0139 81.9429 27.2715L76.8215 24.7902L81.6293 24.6596C85.2875 24.6596 86.7508 25.182 87.1689 26.7491Z" fill="#E0C76E"/>
<path d="M24.0394 32.7572C19.7541 33.4102 15.6778 34.5855 14.8417 35.3691C12.6468 37.7197 8.15243 47.906 8.57051 49.6038C8.77954 50.5179 10.5564 47.906 12.5422 43.8576L15.9914 36.5444L23.8303 35.6302C28.1156 35.2385 36.8952 35.2385 43.2709 35.8914C49.6466 36.4138 58.2172 36.9362 62.1889 37.0668C66.2652 37.0668 69.7143 37.4586 70.0279 37.8503C70.3414 38.2421 75.6719 39.8092 81.8386 41.507C91.8724 44.1188 93.9628 44.38 99.7114 42.9435C105.146 41.6375 108.805 41.8987 123.019 44.1188C141.833 47.2531 143.4 47.3837 141.101 45.686C139.533 44.5106 117.271 40.9846 103.474 39.6786C92.4995 38.6339 71.5957 35.2385 69.4008 34.1937C68.1465 33.6713 67.833 33.8019 68.3556 34.8467C69.2962 36.8056 69.2962 36.8056 61.9799 34.4549C54.559 31.9736 34.5958 31.0595 24.0394 32.7572Z" fill="#E0C76E"/>
<path d="M150.299 34.7157C142.669 35.7604 146.432 37.7193 155.838 37.7193C165.036 37.7193 167.44 39.1559 161.064 40.9842C159.392 41.376 157.406 42.6819 156.674 43.7267C155.107 46.2079 156.256 46.0773 159.392 43.4655C166.186 37.8499 186.567 42.8125 196.914 52.607C202.349 57.5696 203.395 57.9614 200.154 53.5212C198.482 51.3011 194.615 47.9056 191.479 46.0773C185.417 42.5513 159.705 33.6709 156.256 34.0627C155.107 34.1933 152.389 34.4545 150.299 34.7157Z" fill="#E0C76E"/>
<path d="M29.6831 38.2415C27.8017 39.2863 26.0249 40.7228 25.6068 41.637C25.1887 42.5511 26.1294 42.2899 28.0107 41.1146C34.5955 36.805 48.183 40.2004 51.5276 46.9913C52.2592 48.4278 53.1999 49.4726 53.7225 49.4726C55.2903 49.4726 47.9739 40.331 44.7338 38.2415C41.1802 35.8909 33.9684 36.0215 29.6831 38.2415Z" fill="#E0C76E"/>
<path d="M96.8121 82.12L96.6321 84.475C96.3721 84.905 96.0421 85.29 95.6421 85.63C95.2521 85.96 94.7871 86.225 94.2471 86.425C93.7171 86.615 93.1071 86.71 92.4171 86.71C91.3771 86.7 90.4521 86.47 89.6421 86.02C88.8321 85.57 88.1971 84.94 87.7371 84.13C87.2871 83.31 87.0621 82.345 87.0621 81.235C87.0621 80.145 87.2871 79.195 87.7371 78.385C88.1871 77.565 88.8171 76.93 89.6271 76.48C90.4471 76.02 91.4071 75.79 92.5071 75.79C93.2471 75.79 93.9121 75.89 94.5021 76.09C95.1021 76.28 95.6221 76.52 96.0621 76.81L96.3621 78.925H96.2271C96.0071 78.045 95.5571 77.38 94.8771 76.93C94.1971 76.47 93.4071 76.24 92.5071 76.24C91.6271 76.24 90.8621 76.45 90.2121 76.87C89.5721 77.28 89.0721 77.86 88.7121 78.61C88.3621 79.35 88.1871 80.22 88.1871 81.22C88.1871 82.22 88.3621 83.095 88.7121 83.845C89.0721 84.595 89.5671 85.18 90.1971 85.6C90.8371 86.02 91.5771 86.24 92.4171 86.26C93.1271 86.26 93.7821 86.13 94.3821 85.87C94.9921 85.6 95.5021 85.165 95.9121 84.565C96.3221 83.955 96.5821 83.14 96.6921 82.12H96.8121ZM102.599 77.29L106.724 86.41H105.539L102.344 78.625L102.599 77.29ZM99.7036 85.405C99.5936 85.705 99.6086 85.94 99.7486 86.11C99.8886 86.27 100.049 86.35 100.229 86.35H100.349V86.5H97.4836V86.35C97.4836 86.35 97.5036 86.35 97.5436 86.35C97.5836 86.35 97.6036 86.35 97.6036 86.35C97.8136 86.35 98.0286 86.28 98.2486 86.14C98.4686 85.99 98.6586 85.745 98.8186 85.405H99.7036ZM102.599 77.29L102.704 78.325L99.2686 86.455H98.3236L101.879 78.835C101.879 78.835 101.904 78.775 101.954 78.655C102.014 78.535 102.079 78.39 102.149 78.22C102.229 78.04 102.299 77.865 102.359 77.695C102.419 77.525 102.454 77.39 102.464 77.29H102.599ZM104.369 83.005V83.455H100.394V83.005H104.369ZM105.134 85.405H106.274C106.424 85.745 106.609 85.99 106.829 86.14C107.049 86.28 107.259 86.35 107.459 86.35C107.459 86.35 107.479 86.35 107.519 86.35C107.559 86.35 107.579 86.35 107.579 86.35V86.5H104.504V86.35H104.624C104.794 86.35 104.949 86.27 105.089 86.11C105.229 85.94 105.244 85.705 105.134 85.405ZM110.16 77.5H112.095C112.565 77.5 112.985 77.555 113.355 77.665C113.735 77.775 114.055 77.935 114.315 78.145C114.585 78.355 114.79 78.61 114.93 78.91C115.07 79.21 115.14 79.55 115.14 79.93C115.14 80.35 115.04 80.74 114.84 81.1C114.64 81.46 114.36 81.755 114 81.985C113.65 82.215 113.25 82.355 112.8 82.405C112.97 82.475 113.165 82.63 113.385 82.87C113.615 83.11 113.81 83.345 113.97 83.575C113.97 83.575 114.035 83.665 114.165 83.845C114.295 84.015 114.46 84.23 114.66 84.49C114.87 84.74 115.075 84.98 115.275 85.21C115.485 85.44 115.675 85.64 115.845 85.81C116.025 85.98 116.215 86.115 116.415 86.215C116.625 86.305 116.865 86.35 117.135 86.35V86.5H116.67C116.12 86.5 115.665 86.43 115.305 86.29C114.955 86.15 114.67 85.98 114.45 85.78C114.23 85.57 114.04 85.37 113.88 85.18C113.84 85.13 113.745 85.005 113.595 84.805C113.455 84.595 113.3 84.37 113.13 84.13C112.96 83.89 112.805 83.675 112.665 83.485C112.525 83.285 112.44 83.165 112.41 83.125C112.21 82.865 111.98 82.635 111.72 82.435C111.46 82.225 111.185 82.12 110.895 82.12V81.97C110.895 81.97 110.975 81.975 111.135 81.985C111.295 81.985 111.5 81.98 111.75 81.97C112.03 81.96 112.31 81.94 112.59 81.91C112.87 81.87 113.13 81.76 113.37 81.58C113.62 81.4 113.815 81.1 113.955 80.68C113.995 80.57 114.025 80.44 114.045 80.29C114.065 80.14 114.07 79.985 114.06 79.825C114.05 79.545 113.995 79.295 113.895 79.075C113.805 78.855 113.67 78.665 113.49 78.505C113.32 78.345 113.115 78.22 112.875 78.13C112.635 78.04 112.365 77.99 112.065 77.98C111.595 77.96 111.185 77.955 110.835 77.965C110.485 77.975 110.31 77.975 110.31 77.965C110.31 77.955 110.295 77.915 110.265 77.845C110.245 77.765 110.22 77.69 110.19 77.62C110.17 77.54 110.16 77.5 110.16 77.5ZM110.34 77.5V86.5H109.38V77.5H110.34ZM109.425 85.54L109.605 86.5H108.33V86.35C108.33 86.35 108.365 86.35 108.435 86.35C108.505 86.35 108.54 86.35 108.54 86.35C108.78 86.35 108.98 86.27 109.14 86.11C109.3 85.95 109.385 85.76 109.395 85.54H109.425ZM109.425 78.445H109.395C109.385 78.215 109.3 78.025 109.14 77.875C108.98 77.725 108.78 77.65 108.54 77.65C108.54 77.65 108.505 77.65 108.435 77.65C108.365 77.65 108.33 77.65 108.33 77.65V77.5H109.605L109.425 78.445ZM110.295 85.54H110.34C110.35 85.76 110.435 85.95 110.595 86.11C110.755 86.27 110.955 86.35 111.195 86.35C111.195 86.35 111.225 86.35 111.285 86.35C111.355 86.35 111.39 86.35 111.39 86.35L111.405 86.5H110.115L110.295 85.54ZM120.419 77.29C120.699 77.29 120.944 77.3 121.154 77.32C121.364 77.34 121.544 77.365 121.694 77.395C121.854 77.415 121.989 77.445 122.099 77.485C122.219 77.515 122.324 77.545 122.414 77.575L122.429 79.06H122.249C122.249 78.65 122.109 78.33 121.829 78.1C121.549 77.86 121.114 77.74 120.524 77.74C120.024 77.74 119.594 77.88 119.234 78.16C118.884 78.43 118.714 78.765 118.724 79.165C118.724 79.295 118.739 79.43 118.769 79.57C118.809 79.7 118.869 79.83 118.949 79.96C119.039 80.09 119.159 80.22 119.309 80.35L122.339 82.69C122.569 82.88 122.739 83.125 122.849 83.425C122.959 83.715 123.019 84.005 123.029 84.295C123.039 84.735 122.924 85.14 122.684 85.51C122.444 85.88 122.119 86.175 121.709 86.395C121.309 86.605 120.864 86.71 120.374 86.71C120.084 86.71 119.769 86.685 119.429 86.635C119.099 86.585 118.789 86.51 118.499 86.41C118.209 86.3 117.969 86.165 117.779 86.005C117.749 85.865 117.734 85.69 117.734 85.48C117.734 85.26 117.749 85.03 117.779 84.79C117.819 84.55 117.869 84.335 117.929 84.145H118.109C118.069 84.595 118.134 84.98 118.304 85.3C118.474 85.62 118.724 85.865 119.054 86.035C119.384 86.195 119.769 86.27 120.209 86.26C120.829 86.24 121.314 86.085 121.664 85.795C122.024 85.495 122.204 85.1 122.204 84.61C122.204 84.37 122.159 84.155 122.069 83.965C121.989 83.765 121.854 83.58 121.664 83.41L118.664 81.1C118.384 80.86 118.194 80.595 118.094 80.305C117.994 80.015 117.944 79.74 117.944 79.48C117.944 79.07 118.054 78.7 118.274 78.37C118.494 78.04 118.789 77.78 119.159 77.59C119.539 77.39 119.959 77.29 120.419 77.29ZM122.399 77.425L122.414 77.695H121.349V77.425H122.399Z" fill="#F0DD77"/>
</svg>
