<svg width="154" height="94" viewBox="0 0 154 94" fill="none" xmlns="http://www.w3.org/2000/svg">
<path d="M25.8672 26.4522L23.5198 29.4796L31.1743 37.2111C35.4098 41.496 38.7268 45.0822 38.5737 45.222C38.4206 45.3617 37.0938 45.6877 35.665 45.874C32.1439 46.3863 28.1125 48.6219 23.9281 52.4877C18.3658 57.5643 16.4267 62.1753 19.1823 63.852C22.8565 66.041 40.0536 64.4574 43.6257 61.5698C45.973 59.7534 47.1978 56.6794 46.7385 53.8383C46.5854 52.6274 46.3813 51.2301 46.3303 50.7178C46.2282 50.0192 46.5344 49.7397 47.555 49.6466C48.7287 49.5069 48.9838 49.7397 49.4431 51.2767C50.6168 55.0027 49.9534 58.1232 47.555 60.4054C45.973 61.9424 46.1261 61.9424 49.5962 60.6849C52.0456 59.7999 52.5559 59.7534 55.1074 60.3123C56.6383 60.6383 60.2104 60.9177 63.0171 60.9643C66.5381 61.0575 77.2034 62.4081 97.4623 65.3424C123.386 69.1149 135.122 70.8382 140.685 71.6766C142.471 71.956 142.522 71.9094 146.91 65.2492C148.85 62.3616 147.217 63.2931 145.124 66.3204C143.9 68.0437 142.675 69.2547 141.909 69.441C140.379 69.8136 110.271 64.5506 98.4829 61.8958C93.584 60.778 86.695 59.3342 83.2249 58.6821C79.7549 58.0301 76.7952 57.378 76.6421 57.2383C76.0807 56.726 78.8874 52.2082 80.4693 51.0904C82.0513 49.9726 83.6842 49.8795 83.6842 50.9041C83.6842 51.6959 86.5419 52.8137 88.481 52.8137C91.747 52.8137 94.4005 50.8575 94.4005 48.3891C94.4005 46.9918 91.5939 44.8959 89.7058 44.8959C88.5831 44.8959 87.8176 44.6165 87.4094 43.9644C86.8481 43.1727 87.2053 42.2877 90.114 37.3508C92.0021 34.1837 93.533 31.5755 93.584 31.5755C93.584 31.5289 97.9726 32.833 103.28 34.4631C112.924 37.4439 114.813 37.8631 114.813 36.9782C114.813 36.6987 114.557 36.5124 114.2 36.5124C113.077 36.5124 94.9108 30.2248 94.9108 29.8056C94.9108 29.6193 94.4005 28.9673 93.7882 28.3618L92.6655 27.2906L91.2877 28.2221L89.9099 29.1536L84.1945 27.4303C81.0817 26.4988 78.4281 25.8002 78.275 25.9399C78.0709 26.1262 82.6126 27.8961 88.6852 30.0385C89.8078 30.4111 89.7568 30.5043 87.2053 33.8111C84.1435 37.77 81.1838 40.7042 80.2652 40.7042C79.908 40.7042 79.6018 41.0302 79.6018 41.4028C79.6018 42.5672 77.4075 42.148 75.8256 40.6576C73.9885 39.0275 69.5489 37.6768 66.9464 38.096C64.599 38.422 62.7619 40.0521 62.7619 41.7288C62.7619 42.4275 62.5578 43.0329 62.3537 43.0329C62.1496 43.0329 59.1388 43.359 55.6687 43.7316L49.341 44.4768L45.3607 42.0549C38.6758 38.0494 27.8064 30.4577 27.4492 29.4796C27.245 28.9673 27.4492 27.7563 28.0615 26.4522C30.0007 22.4002 29.0821 22.4002 25.8672 26.4522ZM86.4909 39.7727C85.7765 41.0302 85.2151 42.5206 85.2151 43.0795C85.2151 44.011 81.3368 48.4356 79.8059 49.2274C79.3467 49.4603 78.6833 49.1808 77.8668 48.3425C76.489 46.8521 77.4586 46.7589 63.2722 49.7863C52.5049 52.0685 52.658 52.0219 51.6374 50.8575C49.6982 48.6685 48.9328 48.1562 47.5039 48.1562C45.871 48.1562 44.3911 49.5534 44.3911 51.0904C44.3911 51.7425 44.187 51.8822 43.5236 51.6493C43.0133 51.4164 41.3293 51.137 39.7984 50.9041C35.767 50.4384 32.6032 49.5069 32.8073 48.9014C32.9094 48.6219 34.2361 48.063 35.8181 47.6904C38.9819 46.8987 40.3087 46.1069 40.3087 44.9425C40.3087 44.5233 39.1861 42.8932 37.7572 41.3097C36.3794 39.7261 35.2057 38.2823 35.2057 38.1426C35.2057 38.0028 37.7572 39.4932 40.87 41.4494C48.4225 46.2 48.6266 46.2932 55.9749 45.5014C59.2919 45.1288 63.4763 44.7562 65.2624 44.6631C68.9365 44.3836 70.9267 43.2192 70.9267 41.3562C70.9267 40.3782 71.0798 40.3316 72.2535 40.7042C72.9679 40.9836 74.2947 41.6823 75.2132 42.3343C76.1318 42.9864 77.4586 43.4987 78.173 43.4987C79.6018 43.4987 82.5616 41.6823 85.1641 39.1206C87.6135 36.8385 88.0218 37.0248 86.4909 39.7727ZM68.5283 40.7973C69.1407 41.496 69.4979 42.1946 69.3448 42.2877C69.2427 42.4275 67.9159 42.6603 66.4361 42.8466L63.7825 43.1727V41.7754C63.7825 39.0741 66.6402 38.4686 68.5283 40.7973ZM88.8383 47.737C90.063 49.8329 87.4604 52.3014 85.1641 51.2767C84.1945 50.811 83.9394 50.3452 83.9394 48.8548C83.9394 47.3644 84.1945 46.8987 85.1641 46.4329C86.644 45.7809 87.9707 46.2466 88.8383 47.737ZM76.7952 50.0192C76.591 50.5781 76.3359 50.9041 76.1828 50.7644C75.9787 50.6247 75.5704 50.7178 75.1622 50.9973C74.6519 51.4164 74.4988 51.2301 74.4988 50.0658C74.4988 48.5288 75.3153 48.1096 75.6725 49.4137C75.8256 50.0192 75.9277 49.8795 75.9787 49.0877C76.0297 48.2959 76.1828 48.1096 76.591 48.4822C76.8972 48.7617 76.9993 49.4603 76.7952 50.0192ZM30.1027 50.2055C30.511 49.6466 33.4653 47.5018 32.5468 48.6196C35.5722 44.9379 31.5826 50.0169 30.1027 48.6196L25.459 51.5562L27.143 50.5315C29.1331 49.3671 29.2862 49.3671 30.1027 50.2055ZM70.4164 50.9507C70.4164 51.7425 69.5489 52.674 69.1407 52.3014C69.0386 52.2082 69.0896 51.5562 69.2427 50.8575C69.5489 49.4603 70.4164 49.5534 70.4164 50.9507ZM68.3752 51.137C68.3752 51.789 68.1711 52.4411 67.8649 52.5808C67.5587 52.7671 67.3546 52.2548 67.3546 51.463C67.3546 50.6712 67.6098 50.0192 67.8649 50.0192C68.1711 50.0192 68.3752 50.5315 68.3752 51.137ZM66.334 51.8822C66.334 52.6274 66.1299 53.2794 65.8237 53.2794C65.5686 53.2794 65.3134 52.6274 65.3134 51.8822C65.3134 51.0904 65.5686 50.4849 65.8237 50.4849C66.1299 50.4849 66.334 51.0904 66.334 51.8822ZM34.4403 51.6027C36.6346 52.1616 37.9649 50.9281 37.8118 51.8596C37.4068 51.8596 37.565 51.757 37.4068 52.2646C36.8965 52.8235 41.2851 52.7446 37.4068 51.8596L36.5968 52.6696L37.8118 51.8596C39.6704 50.9747 32.1418 50.6446 32.1418 50.6446C32.1418 50.6446 33.0625 51.2767 34.4403 51.6027ZM61.7923 53.8849C61.3841 54.2575 61.231 53.9781 61.231 53C61.231 51.137 61.9454 50.4849 62.1496 52.1151C62.2516 52.8137 62.0985 53.6055 61.7923 53.8849ZM64.2928 52.3479C64.2928 53.0931 64.0887 53.7452 63.7825 53.7452C63.5274 53.7452 63.2722 53.0931 63.2722 52.3479C63.2722 51.5562 63.5274 50.9507 63.7825 50.9507C64.0887 50.9507 64.2928 51.5562 64.2928 52.3479ZM57.6589 53.2794C57.6589 54.0246 57.4548 54.6767 57.1486 54.6767C56.5873 54.6767 56.4342 52.674 56.9955 52.2082C57.5569 51.6493 57.6589 51.8356 57.6589 53.2794ZM43.2302 53.047C43.6352 51.832 40.8002 51.427 40.8002 51.427C37.5853 51.427 38.9389 51.0582 37.4648 52.4733C37.8731 51.4487 40.3569 51.6334 41.2052 52.642C43.3995 52.8748 43.2302 53.047 43.2302 53.047ZM55.5157 54.2575C55.2605 55.8876 54.0868 55.9342 54.0868 54.3041C54.0868 53.5589 54.2399 52.8137 54.444 52.6274C55.0054 52.1151 55.7198 53.0931 55.5157 54.2575ZM75.7746 53.652C74.4988 58.3561 74.9581 58.915 80.8776 60.0794C83.1229 60.4986 85.1641 61.0575 85.4192 61.2438C86.0316 61.7095 83.8883 61.5232 75.0091 60.2657C71.2329 59.7068 65.7217 59.1945 62.7619 59.1479C57.6589 59.0082 53.0662 58.263 53.0662 57.5643C53.0662 57.378 54.2909 56.8657 55.7708 56.4C58.5264 55.515 58.7305 55.4685 63.0171 54.9561C64.4459 54.7698 67.4567 54.1644 69.8041 53.5589C75.8256 52.1151 76.2338 52.1151 75.7746 53.652ZM52.9642 54.7233C52.709 56.3534 51.5353 56.4 51.5353 54.7698C51.5353 54.0246 51.6884 53.2794 51.8925 53.0931C52.4539 52.5808 53.1683 53.5589 52.9642 54.7233ZM31.7368 50.5315C33.778 52.2548 40.6345 54.4314 42.9309 53.3602C44.2576 52.7081 44.6973 56.9123 43.6257 58.8684C42.6051 60.6849 41.7376 61.0575 36.1243 62.1287C29.8476 63.3396 22.4992 63.3862 20.9173 62.2218C19.8457 61.4301 19.8457 61.3369 20.5601 59.6602C21.3256 58.0301 28.385 50.1323 29.7118 50.6446C29.3455 49.4296 21.6453 57.3454 22.2576 56.6002C22.819 55.9016 22.4218 56.3146 22.8268 55.9096C23.2318 55.5046 30.2569 49.3206 31.7368 50.5315Z" fill="#E0C76E"/>
<path d="M66.5039 76.925V87.425C66.5039 87.845 66.4339 88.235 66.2939 88.595C66.1539 88.965 65.9589 89.285 65.7089 89.555C65.4589 89.825 65.1689 90.035 64.8389 90.185C64.5089 90.345 64.1539 90.425 63.7739 90.425V90.29C64.1039 90.17 64.3989 89.96 64.6589 89.66C64.9289 89.37 65.1389 89.025 65.2889 88.625C65.4489 88.225 65.5289 87.81 65.5289 87.38V76.925H66.5039ZM65.5739 78.02H65.5289C65.5189 77.76 65.4189 77.54 65.2289 77.36C65.0489 77.17 64.8289 77.075 64.5689 77.075C64.5689 77.075 64.5339 77.075 64.4639 77.075C64.4039 77.075 64.3739 77.075 64.3739 77.075V76.925H65.5739V78.02ZM66.4589 78.02V76.925H67.6589V77.075C67.6589 77.075 67.6239 77.075 67.5539 77.075C67.4939 77.075 67.4639 77.075 67.4639 77.075C67.2039 77.075 66.9789 77.17 66.7889 77.36C66.6089 77.54 66.5139 77.76 66.5039 78.02H66.4589ZM71.2022 78.425V87.425H70.2422V78.425H71.2022ZM75.2372 86.96L75.2072 87.425H71.1722V86.96H75.2372ZM74.5322 82.7V83.15H71.1722V82.7H74.5322ZM75.2222 78.425V78.89H71.1722V78.425H75.2222ZM76.0772 85.28L75.2522 87.425H72.9722L73.4822 86.96C73.9822 86.96 74.3822 86.89 74.6822 86.75C74.9922 86.6 75.2422 86.4 75.4322 86.15C75.6222 85.89 75.7872 85.6 75.9272 85.28H76.0772ZM74.5322 83.12V83.975H74.3672V83.78C74.3672 83.61 74.3172 83.465 74.2172 83.345C74.1172 83.215 73.9622 83.15 73.7522 83.15V83.12H74.5322ZM74.5322 81.875V82.73H73.7522V82.7C73.9622 82.7 74.1172 82.64 74.2172 82.52C74.3172 82.39 74.3672 82.24 74.3672 82.07V81.875H74.5322ZM75.2222 78.845V79.88H75.0572V79.655C75.0572 79.445 74.9872 79.265 74.8472 79.115C74.7172 78.965 74.5372 78.89 74.3072 78.89V78.845H75.2222ZM75.2222 78.185V78.575L73.5122 78.425C73.8222 78.425 74.1522 78.4 74.5022 78.35C74.8522 78.29 75.0922 78.235 75.2222 78.185ZM70.2722 86.465L70.4672 87.425H69.1622V87.275C69.1622 87.275 69.1972 87.275 69.2672 87.275C69.3372 87.275 69.3722 87.275 69.3722 87.275C69.6222 87.275 69.8272 87.195 69.9872 87.035C70.1472 86.875 70.2322 86.685 70.2422 86.465H70.2722ZM70.2722 79.37H70.2422C70.2322 79.14 70.1472 78.95 69.9872 78.8C69.8272 78.65 69.6222 78.575 69.3722 78.575C69.3722 78.575 69.3372 78.575 69.2672 78.575C69.1972 78.575 69.1622 78.575 69.1622 78.575V78.425H70.4672L70.2722 79.37ZM81.3556 78.47V87.425H80.3806V78.47H81.3556ZM84.9856 78.41V78.86H76.7506V78.41H84.9856ZM84.9856 78.83V79.865H84.8206V79.625C84.8206 79.415 84.7506 79.24 84.6106 79.1C84.4806 78.95 84.3006 78.87 84.0706 78.86V78.83H84.9856ZM84.9856 78.17V78.56L83.3056 78.41C83.5056 78.41 83.7156 78.4 83.9356 78.38C84.1656 78.35 84.3756 78.315 84.5656 78.275C84.7556 78.235 84.8956 78.2 84.9856 78.17ZM80.4106 86.465V87.425H79.3156V87.275C79.3256 87.275 79.3556 87.275 79.4056 87.275C79.4656 87.275 79.4956 87.275 79.4956 87.275C79.7356 87.275 79.9406 87.195 80.1106 87.035C80.2806 86.875 80.3706 86.685 80.3806 86.465H80.4106ZM81.3106 86.465H81.3556C81.3656 86.685 81.4556 86.875 81.6256 87.035C81.7956 87.195 82.0006 87.275 82.2406 87.275C82.2406 87.275 82.2656 87.275 82.3156 87.275C82.3756 87.275 82.4056 87.275 82.4056 87.275V87.425H81.3106V86.465ZM77.6656 78.83V78.86C77.4356 78.87 77.2506 78.95 77.1106 79.1C76.9806 79.24 76.9156 79.415 76.9156 79.625V79.865H76.7506V78.83H77.6656ZM76.7506 78.17C76.8406 78.2 76.9756 78.235 77.1556 78.275C77.3456 78.315 77.5556 78.35 77.7856 78.38C78.0156 78.4 78.2306 78.41 78.4306 78.41L76.7506 78.56V78.17ZM88.7075 78.215C88.9875 78.215 89.2325 78.225 89.4425 78.245C89.6525 78.265 89.8325 78.29 89.9825 78.32C90.1425 78.34 90.2775 78.37 90.3875 78.41C90.5075 78.44 90.6125 78.47 90.7025 78.5L90.7175 79.985H90.5375C90.5375 79.575 90.3975 79.255 90.1175 79.025C89.8375 78.785 89.4025 78.665 88.8125 78.665C88.3125 78.665 87.8825 78.805 87.5225 79.085C87.1725 79.355 87.0025 79.69 87.0125 80.09C87.0125 80.22 87.0275 80.355 87.0575 80.495C87.0975 80.625 87.1575 80.755 87.2375 80.885C87.3275 81.015 87.4475 81.145 87.5975 81.275L90.6275 83.615C90.8575 83.805 91.0275 84.05 91.1375 84.35C91.2475 84.64 91.3075 84.93 91.3175 85.22C91.3275 85.66 91.2125 86.065 90.9725 86.435C90.7325 86.805 90.4075 87.1 89.9975 87.32C89.5975 87.53 89.1525 87.635 88.6625 87.635C88.3725 87.635 88.0575 87.61 87.7175 87.56C87.3875 87.51 87.0775 87.435 86.7875 87.335C86.4975 87.225 86.2575 87.09 86.0675 86.93C86.0375 86.79 86.0225 86.615 86.0225 86.405C86.0225 86.185 86.0375 85.955 86.0675 85.715C86.1075 85.475 86.1575 85.26 86.2175 85.07H86.3975C86.3575 85.52 86.4225 85.905 86.5925 86.225C86.7625 86.545 87.0125 86.79 87.3425 86.96C87.6725 87.12 88.0575 87.195 88.4975 87.185C89.1175 87.165 89.6025 87.01 89.9525 86.72C90.3125 86.42 90.4925 86.025 90.4925 85.535C90.4925 85.295 90.4475 85.08 90.3575 84.89C90.2775 84.69 90.1425 84.505 89.9525 84.335L86.9525 82.025C86.6725 81.785 86.4825 81.52 86.3825 81.23C86.2825 80.94 86.2325 80.665 86.2325 80.405C86.2325 79.995 86.3425 79.625 86.5625 79.295C86.7825 78.965 87.0775 78.705 87.4475 78.515C87.8275 78.315 88.2475 78.215 88.7075 78.215ZM90.6875 78.35L90.7025 78.62H89.6375V78.35H90.6875Z" fill="#F0DD77"/>
</svg>
