<svg width="143" height="106" viewBox="0 0 143 106" fill="none" xmlns="http://www.w3.org/2000/svg">
<path d="M64.6881 10.5902C59.8991 13.4267 59.7823 13.4267 45.1815 13.3321L30.347 13.143L23.105 16.6413C9.6723 23.1652 9.43869 22.8816 26.726 22.5034C35.1361 22.3143 42.1445 22.5034 42.1445 22.8816C42.1445 23.3543 42.9621 23.638 44.0134 23.638C44.9478 23.638 45.5319 23.2598 45.1815 22.787C44.247 21.5579 47.6344 19.5724 49.2697 20.4233C50.2041 20.8961 50.3209 20.707 49.7369 19.856C49.1529 19.0051 49.2697 18.816 50.2041 19.2887C52.1898 20.3288 49.5033 22.787 47.284 22.0306C46.2327 21.747 45.6487 22.0306 45.8823 22.787C46.1159 23.7325 42.6117 23.9216 28.4781 23.7325C12.9429 23.4489 10.6068 23.638 10.6068 24.9617C10.6068 25.9072 11.3076 26.1908 12.4757 25.8126C14.1109 25.3399 14.2278 25.529 13.0597 27.3254C12.1252 28.6491 11.7748 35.0784 11.8916 46.8025L12.0084 64.2941H15.279H18.4328L18.1992 45.9516C18.0824 35.9294 17.6151 27.3254 17.2647 26.8526C16.9143 26.3799 23.3387 25.9072 31.7487 25.9072L46.6999 25.7181L56.9789 19.6669C62.5856 16.3577 67.8419 13.3321 68.6595 12.9539C69.4772 12.5757 74.2663 14.6558 80.3402 18.1541L90.5024 24.1107L70.178 24.5835L49.7369 25.1508L76.6024 25.529C91.4368 25.7181 108.023 25.9072 113.63 25.9072C120.522 25.9072 123.559 26.1908 122.741 26.8526C122.04 27.4199 121.573 35.173 121.573 46.0461V64.2941H124.843H127.997L127.413 45.0061C126.946 29.8782 127.18 25.9072 128.348 26.1908C129.165 26.4745 129.749 26.0017 129.749 25.0562C129.749 23.5434 128.114 23.4489 111.995 23.8271C102.183 24.0162 95.0578 24.0162 96.2259 23.8271C97.2771 23.638 98.2116 23.1652 98.2116 22.8816C98.2116 22.5034 102.533 22.3143 107.907 22.5034C113.28 22.6925 119.938 22.6925 122.741 22.5034L127.997 22.2197L118.536 17.6814L109.075 13.2376H94.941C85.5965 13.2376 80.5738 13.6158 79.9898 14.3722C79.5226 15.034 79.6394 15.1286 80.5738 14.7504C81.2746 14.3722 84.5452 15.6013 88.0494 17.5868C96.3427 22.4088 96.5763 22.5979 93.7729 22.4088C92.4881 22.4088 91.4368 21.8415 91.5536 21.2743C91.6704 20.8015 90.736 20.3288 89.4511 20.3288C88.1662 20.3288 87.115 19.6669 87.115 18.9105C87.115 18.1541 86.1805 17.5868 85.1293 17.5868C83.9612 17.6814 83.2604 17.3032 83.3772 16.6413C83.494 16.0741 82.5595 15.6013 81.2746 15.6013C79.9898 15.5068 79.0553 15.034 79.1721 14.4667C79.4057 13.6158 74.7335 10.212 70.7621 8.32102C70.178 8.03738 67.3747 9.07742 64.6881 10.5902ZM32.4496 15.885C31.2815 16.8304 30.4638 18.5323 30.4638 19.6669C30.4638 21.5579 29.8798 21.747 23.2218 21.747H15.863L23.4555 18.0596C31.9823 13.8994 35.6033 13.0485 32.4496 15.885ZM59.0814 15.2231C59.4318 15.6013 58.731 16.4522 57.6797 17.1141C56.0445 18.2487 55.8108 18.2487 56.6285 17.1141C57.3293 16.2631 57.0957 15.9795 56.0445 16.2631C55.11 16.5468 54.4092 17.2086 54.4092 17.7759C54.4092 18.4378 54.0587 18.9105 53.5915 18.9105C53.0075 18.9105 51.9562 18.9105 51.2554 18.9105C50.4377 18.9105 51.0218 18.0596 52.6571 17.0195C57.3293 14.0885 54.2924 14.8449 48.9193 17.965C43.5462 21.0852 38.6403 21.747 38.6403 19.1942C38.6403 18.3432 37.7058 16.8304 36.6546 15.885C34.6689 14.0885 34.9025 14.0885 46.5831 14.2776C53.2411 14.3722 58.8478 14.8449 59.0814 15.2231ZM102.533 15.885C101.365 16.8304 100.548 18.3432 100.548 19.1942C100.548 21.6524 96.3427 21.0852 90.5024 17.965C87.699 16.3577 85.3629 14.8449 85.3629 14.6558C85.3629 14.3722 89.6847 14.1831 94.941 14.1831C104.052 14.1831 104.286 14.2776 102.533 15.885ZM115.149 17.5868C119.003 19.4778 122.391 21.1797 122.624 21.3688C122.858 21.5579 120.171 21.747 116.55 21.747C110.476 21.747 109.892 21.5579 109.892 19.6669C109.892 18.5323 109.075 16.8304 107.907 15.885C104.986 13.2376 107.439 13.8049 115.149 17.5868ZM37.4722 19.4778C37.4722 20.2342 36.3042 20.8015 34.5521 20.8015C31.3983 20.8015 30.6975 19.0996 33.0336 17.2086C34.6689 15.885 37.4722 17.3977 37.4722 19.4778ZM107.673 18.7214C108.491 20.6124 108.257 20.8015 105.103 20.8015C103.117 20.8015 101.833 20.5179 102.066 20.0451C102.3 19.6669 102.884 18.6269 103.234 17.6814C104.286 15.5068 106.505 15.9795 107.673 18.7214ZM124.727 54.0828C124.61 58.9048 124.376 55.2174 124.376 45.857C124.376 36.4967 124.61 32.5256 124.727 37.064C124.96 41.6023 124.96 49.2608 124.727 54.0828Z" fill="#E0C76E"/>
<path d="M67.7256 17.8704C69.0104 18.5322 69.0104 18.7213 67.7256 19.1941C66.3239 19.5723 66.4407 19.8559 67.8424 20.7069C69.3609 21.6523 69.3609 21.8414 67.8424 22.6924C66.5575 23.3542 67.0247 23.6379 69.9449 23.6379C73.4491 23.6379 73.6827 23.4488 73.6827 20.3287C73.6827 17.2085 73.4491 17.0194 69.9449 17.0194C67.2583 17.0194 66.5575 17.3031 67.7256 17.8704Z" fill="#E0C76E"/>
<path d="M39.5751 45.2898L39.2246 64.2942H42.4952H45.649L45.4154 45.5735C45.065 27.1364 45.065 26.9473 42.4952 26.6637C39.9255 26.38 39.9255 26.38 39.5751 45.2898ZM42.9624 54.0829C42.8456 58.9049 42.612 55.2175 42.612 45.8571C42.612 36.4968 42.8456 32.5257 42.9624 37.0641C43.1961 41.6024 43.1961 49.2609 42.9624 54.0829Z" fill="#E0C76E"/>
<path d="M95.5256 27.0419C95.0584 27.4201 94.7079 35.9295 94.7079 46.0462V64.2942H97.6281H100.548L100.315 45.668C99.9642 29.6892 99.7306 26.9473 98.2121 26.6637C97.1609 26.5691 95.9928 26.6637 95.5256 27.0419Z" fill="#E0C76E"/>
<path d="M23.4552 34.8897V40.4681H29.2955L35.1358 40.5627V34.8897V29.3113H29.2955H23.4552V34.8897ZM28.5947 31.8641C29.4123 34.1333 27.777 39.0499 26.0249 39.5226C25.2073 39.7117 24.6233 38.8608 24.6233 37.4425C24.6233 35.9297 25.3241 34.9843 26.3754 34.9843C27.3098 34.9843 28.1275 34.5115 28.1275 34.0388C28.1275 33.4715 27.3098 33.0933 26.3754 33.0933C25.4409 33.0933 24.6233 32.4314 24.6233 31.675C24.6233 29.6895 27.777 29.8786 28.5947 31.8641ZM33.7342 37.0643C33.1501 40.0899 30.4636 40.3736 30.4636 37.4425C30.4636 35.8352 31.0476 34.9843 32.3325 34.9843C33.5006 34.9843 33.9678 35.6461 33.7342 37.0643Z" fill="#E0C76E"/>
<path d="M64.3377 34.8897V40.4681H70.178L76.0183 40.5627V34.8897V29.3113H70.178H64.3377V34.8897ZM69.3604 32.1478C70.178 34.6061 68.6595 39.0499 66.9074 39.5226C66.0898 39.7117 65.5057 38.8608 65.5057 37.4425C65.5057 35.9297 66.2066 34.9843 67.2578 34.9843C68.1923 34.9843 69.0099 34.5115 69.0099 34.0388C69.0099 33.4715 68.1923 33.0933 67.2578 33.0933C66.3234 33.0933 65.5057 32.4314 65.5057 31.675C65.5057 29.595 68.6595 29.9732 69.3604 32.1478ZM74.6166 37.0643C74.0326 40.0899 71.3461 40.3736 71.3461 37.4425C71.3461 35.8352 71.9301 34.9843 73.215 34.9843C74.383 34.9843 74.8503 35.6461 74.6166 37.0643Z" fill="#E0C76E"/>
<path d="M105.453 34.7006L105.804 40.1845L111.41 40.3736L116.9 40.5627V34.9843V29.3113H111.06H105.103L105.453 34.7006ZM115.732 37.5371C115.732 40.5627 113.162 39.9008 112.111 36.6861C111.41 34.6061 111.644 34.3224 113.513 34.7006C114.914 35.0788 115.732 36.0243 115.732 37.5371ZM109.892 37.4425C109.892 40.3736 107.205 40.0899 106.621 37.0643C106.388 35.6461 106.855 34.9843 108.023 34.9843C109.308 34.9843 109.892 35.8352 109.892 37.4425Z" fill="#E0C76E"/>
<path d="M19.9513 43.4933C19.9513 44.0606 23.8059 44.4388 29.2958 44.4388C34.7857 44.4388 38.6403 44.0606 38.6403 43.4933C38.6403 42.926 34.7857 42.5478 29.2958 42.5478C23.8059 42.5478 19.9513 42.926 19.9513 43.4933Z" fill="#E0C76E"/>
<path d="M46.8168 43.4933C46.8168 44.0606 55.3436 44.4388 70.1781 44.4388C85.0125 44.4388 93.5394 44.0606 93.5394 43.4933C93.5394 42.926 85.0125 42.5478 70.1781 42.5478C55.3436 42.5478 46.8168 42.926 46.8168 43.4933Z" fill="#E0C76E"/>
<path d="M101.715 43.4932C101.715 44.0605 105.57 44.4387 111.06 44.4387C116.55 44.4387 120.404 44.0605 120.404 43.4932C120.404 42.9259 116.55 42.5477 111.06 42.5477C105.57 42.5477 101.715 42.9259 101.715 43.4932Z" fill="#E0C76E"/>
<path d="M63.1697 56.3519V65.2396L36.6546 65.5232C21.937 65.6178 37.1218 65.7123 70.1781 65.7123C103.234 65.7123 118.302 65.6178 103.468 65.5232L76.6024 65.2396L76.9528 56.2574L77.3032 47.3698H70.2949L63.1697 47.4643V56.3519ZM67.8419 49.7335C67.8419 50.4899 68.426 50.8681 69.01 50.5845C69.7108 50.3008 70.1781 50.5845 70.1781 51.3408C70.1781 52.2863 69.2436 52.57 67.2579 52.1918C64.1041 51.719 63.0529 48.2207 66.0898 48.2207C67.0243 48.2207 67.8419 48.8826 67.8419 49.7335ZM74.8503 50.1117C74.8503 51.1517 74.0327 52.0027 73.0982 52.0027C72.1638 52.0027 71.3461 51.1517 71.3461 50.1117C71.3461 49.0717 72.1638 48.2207 73.0982 48.2207C74.0327 48.2207 74.8503 49.0717 74.8503 50.1117ZM74.8503 59.0939V64.2941H69.594H64.3377V59.0939V53.8937H69.594H74.8503V59.0939Z" fill="#E0C76E"/>
<path d="M23.4555 54.8392V60.5121H29.2958H35.1361V54.8392V49.1662H29.2958H23.4555V54.8392ZM28.595 51.719C29.4126 53.9882 27.7773 58.9048 26.0252 59.3775C25.2076 59.5666 24.6235 58.7157 24.6235 57.2974C24.6235 55.7847 25.3244 54.8392 26.3756 54.8392C27.3101 54.8392 28.1277 54.3664 28.1277 53.8937C28.1277 53.3264 27.3101 52.9482 26.3756 52.9482C25.4412 52.9482 24.6235 52.2863 24.6235 51.53C24.6235 49.5444 27.7773 49.7335 28.595 51.719ZM33.7344 56.9192C33.1504 59.9448 30.4639 60.2285 30.4639 57.2974C30.4639 55.6901 31.0479 54.8392 32.3328 54.8392C33.5008 54.8392 33.9681 55.501 33.7344 56.9192Z" fill="#E0C76E"/>
<path d="M105.22 54.8392V60.5121H111.06H116.901V54.8392V49.1662H111.06H105.22V54.8392ZM115.733 57.392C115.733 60.4176 113.163 59.7557 112.112 56.5411C111.411 54.461 111.644 54.1773 113.513 54.5555C114.915 54.9337 115.733 55.8792 115.733 57.392ZM109.892 57.2974C109.892 60.2285 107.206 59.9448 106.622 56.9192C106.388 55.501 106.855 54.8392 108.023 54.8392C109.308 54.8392 109.892 55.6901 109.892 57.2974Z" fill="#E0C76E"/>
<path d="M8.27063 68.0761C8.27063 68.7379 29.5294 69.0215 69.594 69.0215C109.659 69.0215 130.917 68.7379 130.917 68.0761C130.917 67.4142 109.659 67.1306 69.594 67.1306C29.5294 67.1306 8.27063 67.4142 8.27063 68.0761Z" fill="#E0C76E"/>
<path d="M29.5456 90.5H31.6606C32.1106 90.5 32.5156 90.565 32.8756 90.695C33.2456 90.825 33.5556 91.015 33.8056 91.265C34.0556 91.505 34.2456 91.8 34.3756 92.15C34.5156 92.49 34.5856 92.88 34.5856 93.32C34.5856 93.8 34.4706 94.26 34.2406 94.7C34.0206 95.14 33.7156 95.5 33.3256 95.78C32.9456 96.05 32.5156 96.185 32.0356 96.185C32.2056 96.255 32.3906 96.4 32.5906 96.62C32.7906 96.83 32.9656 97.035 33.1156 97.235C33.1156 97.235 33.1806 97.335 33.3106 97.535C33.4506 97.725 33.6206 97.96 33.8206 98.24C34.0306 98.52 34.2406 98.795 34.4506 99.065C34.6606 99.335 34.8406 99.55 34.9906 99.71C35.1906 99.93 35.3906 100.125 35.5906 100.295C35.7906 100.465 36.0056 100.6 36.2356 100.7C36.4756 100.8 36.7406 100.85 37.0306 100.85V101H36.2056C35.7456 101 35.3456 100.93 35.0056 100.79C34.6756 100.65 34.3956 100.48 34.1656 100.28C33.9356 100.07 33.7406 99.87 33.5806 99.68C33.5506 99.64 33.4656 99.525 33.3256 99.335C33.1956 99.145 33.0356 98.92 32.8456 98.66C32.6656 98.39 32.4856 98.125 32.3056 97.865C32.1256 97.605 31.9706 97.385 31.8406 97.205C31.7106 97.015 31.6356 96.905 31.6156 96.875C31.4256 96.625 31.2156 96.395 30.9856 96.185C30.7556 95.975 30.5056 95.87 30.2356 95.87V95.72C30.2356 95.72 30.3106 95.725 30.4606 95.735C30.6206 95.735 30.8106 95.73 31.0306 95.72C31.2906 95.71 31.5756 95.67 31.8856 95.6C32.1956 95.53 32.4856 95.385 32.7556 95.165C33.0256 94.945 33.2306 94.61 33.3706 94.16C33.4006 94.05 33.4256 93.915 33.4456 93.755C33.4656 93.585 33.4706 93.42 33.4606 93.26C33.4506 92.58 33.2756 92.04 32.9356 91.64C32.6056 91.23 32.1606 91.01 31.6006 90.98C31.3206 90.96 31.0306 90.955 30.7306 90.965C30.4406 90.965 30.1956 90.965 29.9956 90.965C29.7956 90.965 29.6956 90.965 29.6956 90.965C29.6956 90.955 29.6806 90.915 29.6506 90.845C29.6306 90.765 29.6056 90.69 29.5756 90.62C29.5556 90.54 29.5456 90.5 29.5456 90.5ZM29.7406 90.5V101H28.7656V90.5H29.7406ZM28.8106 99.905V101H27.6106V100.85C27.6106 100.85 27.6406 100.85 27.7006 100.85C27.7706 100.85 27.8056 100.85 27.8056 100.85C28.0656 100.85 28.2856 100.76 28.4656 100.58C28.6556 100.39 28.7556 100.165 28.7656 99.905H28.8106ZM28.8106 91.595H28.7656C28.7556 91.335 28.6556 91.115 28.4656 90.935C28.2856 90.745 28.0656 90.65 27.8056 90.65C27.8056 90.65 27.7706 90.65 27.7006 90.65C27.6406 90.65 27.6106 90.65 27.6106 90.65V90.5H28.8106V91.595ZM29.6956 99.905H29.7406C29.7406 100.165 29.8356 100.39 30.0256 100.58C30.2156 100.76 30.4406 100.85 30.7006 100.85C30.7006 100.85 30.7306 100.85 30.7906 100.85C30.8506 100.85 30.8806 100.85 30.8806 100.85V101H29.6956V99.905ZM39.2729 92V101H38.3129V92H39.2729ZM43.3079 100.535L43.2779 101H39.2429V100.535H43.3079ZM42.6029 96.275V96.725H39.2429V96.275H42.6029ZM43.2929 92V92.465H39.2429V92H43.2929ZM44.1479 98.855L43.3229 101H41.0429L41.5529 100.535C42.0529 100.535 42.4529 100.465 42.7529 100.325C43.0629 100.175 43.3129 99.975 43.5029 99.725C43.6929 99.465 43.8579 99.175 43.9979 98.855H44.1479ZM42.6029 96.695V97.55H42.4379V97.355C42.4379 97.185 42.3879 97.04 42.2879 96.92C42.1879 96.79 42.0329 96.725 41.8229 96.725V96.695H42.6029ZM42.6029 95.45V96.305H41.8229V96.275C42.0329 96.275 42.1879 96.215 42.2879 96.095C42.3879 95.965 42.4379 95.815 42.4379 95.645V95.45H42.6029ZM43.2929 92.42V93.455H43.1279V93.23C43.1279 93.02 43.0579 92.84 42.9179 92.69C42.7879 92.54 42.6079 92.465 42.3779 92.465V92.42H43.2929ZM43.2929 91.76V92.15L41.5829 92C41.8929 92 42.2229 91.975 42.5729 91.925C42.9229 91.865 43.1629 91.81 43.2929 91.76ZM38.3429 100.04L38.5379 101H37.2329V100.85C37.2329 100.85 37.2679 100.85 37.3379 100.85C37.4079 100.85 37.4429 100.85 37.4429 100.85C37.6929 100.85 37.8979 100.77 38.0579 100.61C38.2179 100.45 38.3029 100.26 38.3129 100.04H38.3429ZM38.3429 92.945H38.3129C38.3029 92.715 38.2179 92.525 38.0579 92.375C37.8979 92.225 37.6929 92.15 37.4429 92.15C37.4429 92.15 37.4079 92.15 37.3379 92.15C37.2679 92.15 37.2329 92.15 37.2329 92.15V92H38.5379L38.3429 92.945ZM49.6364 91.79L53.7614 100.91H52.5764L49.3814 93.125L49.6364 91.79ZM46.7414 99.905C46.6314 100.205 46.6464 100.44 46.7864 100.61C46.9264 100.77 47.0864 100.85 47.2664 100.85H47.3864V101H44.5214V100.85C44.5214 100.85 44.5414 100.85 44.5814 100.85C44.6214 100.85 44.6414 100.85 44.6414 100.85C44.8514 100.85 45.0664 100.78 45.2864 100.64C45.5064 100.49 45.6964 100.245 45.8564 99.905H46.7414ZM49.6364 91.79L49.7414 92.825L46.3064 100.955H45.3614L48.9164 93.335C48.9164 93.335 48.9414 93.275 48.9914 93.155C49.0514 93.035 49.1164 92.89 49.1864 92.72C49.2664 92.54 49.3364 92.365 49.3964 92.195C49.4564 92.025 49.4914 91.89 49.5014 91.79H49.6364ZM51.4064 97.505V97.955H47.4314V97.505H51.4064ZM52.1714 99.905H53.3114C53.4614 100.245 53.6464 100.49 53.8664 100.64C54.0864 100.78 54.2964 100.85 54.4964 100.85C54.4964 100.85 54.5164 100.85 54.5564 100.85C54.5964 100.85 54.6164 100.85 54.6164 100.85V101H51.5414V100.85H51.6614C51.8314 100.85 51.9864 100.77 52.1264 100.61C52.2664 100.44 52.2814 100.205 52.1714 99.905ZM57.4077 92V101H56.4477V92H57.4077ZM61.4427 100.535L61.4127 101H57.3777V100.535H61.4427ZM62.2827 98.855L61.4577 101H59.1777L59.6877 100.535C60.1877 100.535 60.5877 100.465 60.8877 100.325C61.1977 100.175 61.4477 99.975 61.6377 99.725C61.8277 99.465 61.9927 99.175 62.1327 98.855H62.2827ZM56.4777 100.04L56.6727 101H55.3677V100.85C55.3677 100.85 55.4027 100.85 55.4727 100.85C55.5427 100.85 55.5777 100.85 55.5777 100.85C55.8277 100.85 56.0327 100.77 56.1927 100.61C56.3527 100.45 56.4377 100.26 56.4477 100.04H56.4777ZM57.3627 92.96V92H58.4727V92.15C58.4727 92.15 58.4427 92.15 58.3827 92.15C58.3227 92.15 58.2927 92.15 58.2927 92.15C58.0527 92.15 57.8427 92.23 57.6627 92.39C57.4927 92.54 57.4077 92.73 57.4077 92.96H57.3627ZM56.4777 92.96H56.4477C56.4377 92.73 56.3477 92.54 56.1777 92.39C56.0077 92.23 55.7977 92.15 55.5477 92.15C55.5477 92.15 55.5177 92.15 55.4577 92.15C55.3977 92.15 55.3677 92.15 55.3677 92.15V92H56.4777V92.96ZM69.3647 90.5V101H68.3897V90.5H69.3647ZM73.4147 100.535V101H69.3197V100.535H73.4147ZM72.7697 95.6V96.05H69.3197V95.6H72.7697ZM73.4147 90.5V90.965H69.3197V90.5H73.4147ZM74.3297 98.57L73.4597 101H70.9697L71.5097 100.535C72.0397 100.535 72.4697 100.455 72.7997 100.295C73.1397 100.125 73.4147 99.89 73.6247 99.59C73.8347 99.29 74.0197 98.95 74.1797 98.57H74.3297ZM72.7697 96.02V97.01H72.6197V96.785C72.6197 96.585 72.5497 96.415 72.4097 96.275C72.2697 96.125 72.0997 96.05 71.8997 96.05V96.02H72.7697ZM72.7697 94.64V95.63H71.8997V95.6C72.0997 95.59 72.2697 95.515 72.4097 95.375C72.5497 95.225 72.6197 95.05 72.6197 94.85V94.64H72.7697ZM73.4147 90.92V92.12H73.2647V91.85C73.2647 91.61 73.1797 91.405 73.0097 91.235C72.8397 91.055 72.6297 90.96 72.3797 90.95V90.92H73.4147ZM73.4147 90.23V90.665L71.5847 90.5C71.8047 90.5 72.0347 90.485 72.2747 90.455C72.5247 90.425 72.7547 90.39 72.9647 90.35C73.1747 90.31 73.3247 90.27 73.4147 90.23ZM68.4347 99.905V101H67.2347V100.85C67.2347 100.85 67.2647 100.85 67.3247 100.85C67.3947 100.85 67.4297 100.85 67.4297 100.85C67.6897 100.85 67.9097 100.76 68.0897 100.58C68.2797 100.39 68.3797 100.165 68.3897 99.905H68.4347ZM68.4347 91.595H68.3897C68.3897 91.335 68.2947 91.115 68.1047 90.935C67.9147 90.745 67.6897 90.65 67.4297 90.65C67.4297 90.65 67.3997 90.65 67.3397 90.65C67.2797 90.65 67.2497 90.65 67.2497 90.65L67.2347 90.5H68.4347V91.595ZM78.5019 91.79C78.7819 91.79 79.0269 91.8 79.2369 91.82C79.4469 91.84 79.6269 91.865 79.7769 91.895C79.9369 91.915 80.0719 91.945 80.1819 91.985C80.3019 92.015 80.4069 92.045 80.4969 92.075L80.5119 93.56H80.3319C80.3319 93.15 80.1919 92.83 79.9119 92.6C79.6319 92.36 79.1969 92.24 78.6069 92.24C78.1069 92.24 77.6769 92.38 77.3169 92.66C76.9669 92.93 76.7969 93.265 76.8069 93.665C76.8069 93.795 76.8219 93.93 76.8519 94.07C76.8919 94.2 76.9519 94.33 77.0319 94.46C77.1219 94.59 77.2419 94.72 77.3919 94.85L80.4219 97.19C80.6519 97.38 80.8219 97.625 80.9319 97.925C81.0419 98.215 81.1019 98.505 81.1119 98.795C81.1219 99.235 81.0069 99.64 80.7669 100.01C80.5269 100.38 80.2019 100.675 79.7919 100.895C79.3919 101.105 78.9469 101.21 78.4569 101.21C78.1669 101.21 77.8519 101.185 77.5119 101.135C77.1819 101.085 76.8719 101.01 76.5819 100.91C76.2919 100.8 76.0519 100.665 75.8619 100.505C75.8319 100.365 75.8169 100.19 75.8169 99.98C75.8169 99.76 75.8319 99.53 75.8619 99.29C75.9019 99.05 75.9519 98.835 76.0119 98.645H76.1919C76.1519 99.095 76.2169 99.48 76.3869 99.8C76.5569 100.12 76.8069 100.365 77.1369 100.535C77.4669 100.695 77.8519 100.77 78.2919 100.76C78.9119 100.74 79.3969 100.585 79.7469 100.295C80.1069 99.995 80.2869 99.6 80.2869 99.11C80.2869 98.87 80.2419 98.655 80.1519 98.465C80.0719 98.265 79.9369 98.08 79.7469 97.91L76.7469 95.6C76.4669 95.36 76.2769 95.095 76.1769 94.805C76.0769 94.515 76.0269 94.24 76.0269 93.98C76.0269 93.57 76.1369 93.2 76.3569 92.87C76.5769 92.54 76.8719 92.28 77.2419 92.09C77.6219 91.89 78.0419 91.79 78.5019 91.79ZM80.4819 91.925L80.4969 92.195H79.4319V91.925H80.4819ZM86.7506 92.045V101H85.7756V92.045H86.7506ZM90.3806 91.985V92.435H82.1456V91.985H90.3806ZM90.3806 92.405V93.44H90.2156V93.2C90.2156 92.99 90.1456 92.815 90.0056 92.675C89.8756 92.525 89.6956 92.445 89.4656 92.435V92.405H90.3806ZM90.3806 91.745V92.135L88.7006 91.985C88.9006 91.985 89.1106 91.975 89.3306 91.955C89.5606 91.925 89.7706 91.89 89.9606 91.85C90.1506 91.81 90.2906 91.775 90.3806 91.745ZM85.8056 100.04V101H84.7106V100.85C84.7206 100.85 84.7506 100.85 84.8006 100.85C84.8606 100.85 84.8906 100.85 84.8906 100.85C85.1306 100.85 85.3356 100.77 85.5056 100.61C85.6756 100.45 85.7656 100.26 85.7756 100.04H85.8056ZM86.7056 100.04H86.7506C86.7606 100.26 86.8506 100.45 87.0206 100.61C87.1906 100.77 87.3956 100.85 87.6356 100.85C87.6356 100.85 87.6606 100.85 87.7106 100.85C87.7706 100.85 87.8006 100.85 87.8006 100.85V101H86.7056V100.04ZM83.0606 92.405V92.435C82.8306 92.445 82.6456 92.525 82.5056 92.675C82.3756 92.815 82.3106 92.99 82.3106 93.2V93.44H82.1456V92.405H83.0606ZM82.1456 91.745C82.2356 91.775 82.3706 91.81 82.5506 91.85C82.7406 91.89 82.9506 91.925 83.1806 91.955C83.4106 91.975 83.6256 91.985 83.8256 91.985L82.1456 92.135V91.745ZM94.5778 91.79L98.7028 100.91H97.5178L94.3228 93.125L94.5778 91.79ZM91.6828 99.905C91.5728 100.205 91.5878 100.44 91.7278 100.61C91.8678 100.77 92.0278 100.85 92.2078 100.85H92.3278V101H89.4628V100.85C89.4628 100.85 89.4828 100.85 89.5228 100.85C89.5628 100.85 89.5828 100.85 89.5828 100.85C89.7928 100.85 90.0078 100.78 90.2278 100.64C90.4478 100.49 90.6378 100.245 90.7978 99.905H91.6828ZM94.5778 91.79L94.6828 92.825L91.2478 100.955H90.3028L93.8578 93.335C93.8578 93.335 93.8828 93.275 93.9328 93.155C93.9928 93.035 94.0578 92.89 94.1278 92.72C94.2078 92.54 94.2778 92.365 94.3378 92.195C94.3978 92.025 94.4328 91.89 94.4428 91.79H94.5778ZM96.3478 97.505V97.955H92.3728V97.505H96.3478ZM97.1128 99.905H98.2528C98.4028 100.245 98.5878 100.49 98.8078 100.64C99.0278 100.78 99.2378 100.85 99.4378 100.85C99.4378 100.85 99.4578 100.85 99.4978 100.85C99.5378 100.85 99.5578 100.85 99.5578 100.85V101H96.4828V100.85H96.6028C96.7728 100.85 96.9278 100.77 97.0678 100.61C97.2078 100.44 97.2228 100.205 97.1128 99.905ZM103.259 92.045V101H102.284V92.045H103.259ZM106.889 91.985V92.435H98.6544V91.985H106.889ZM106.889 92.405V93.44H106.724V93.2C106.724 92.99 106.654 92.815 106.514 92.675C106.384 92.525 106.204 92.445 105.974 92.435V92.405H106.889ZM106.889 91.745V92.135L105.209 91.985C105.409 91.985 105.619 91.975 105.839 91.955C106.069 91.925 106.279 91.89 106.469 91.85C106.659 91.81 106.799 91.775 106.889 91.745ZM102.314 100.04V101H101.219V100.85C101.229 100.85 101.259 100.85 101.309 100.85C101.369 100.85 101.399 100.85 101.399 100.85C101.639 100.85 101.844 100.77 102.014 100.61C102.184 100.45 102.274 100.26 102.284 100.04H102.314ZM103.214 100.04H103.259C103.269 100.26 103.359 100.45 103.529 100.61C103.699 100.77 103.904 100.85 104.144 100.85C104.144 100.85 104.169 100.85 104.219 100.85C104.279 100.85 104.309 100.85 104.309 100.85V101H103.214V100.04ZM99.5694 92.405V92.435C99.3394 92.445 99.1544 92.525 99.0144 92.675C98.8844 92.815 98.8194 92.99 98.8194 93.2V93.44H98.6544V92.405H99.5694ZM98.6544 91.745C98.7444 91.775 98.8794 91.81 99.0594 91.85C99.2494 91.89 99.4594 91.925 99.6894 91.955C99.9194 91.975 100.134 91.985 100.334 91.985L98.6544 92.135V91.745ZM109.966 92V101H109.006V92H109.966ZM114.001 100.535L113.971 101H109.936V100.535H114.001ZM113.296 96.275V96.725H109.936V96.275H113.296ZM113.986 92V92.465H109.936V92H113.986ZM114.841 98.855L114.016 101H111.736L112.246 100.535C112.746 100.535 113.146 100.465 113.446 100.325C113.756 100.175 114.006 99.975 114.196 99.725C114.386 99.465 114.551 99.175 114.691 98.855H114.841ZM113.296 96.695V97.55H113.131V97.355C113.131 97.185 113.081 97.04 112.981 96.92C112.881 96.79 112.726 96.725 112.516 96.725V96.695H113.296ZM113.296 95.45V96.305H112.516V96.275C112.726 96.275 112.881 96.215 112.981 96.095C113.081 95.965 113.131 95.815 113.131 95.645V95.45H113.296ZM113.986 92.42V93.455H113.821V93.23C113.821 93.02 113.751 92.84 113.611 92.69C113.481 92.54 113.301 92.465 113.071 92.465V92.42H113.986ZM113.986 91.76V92.15L112.276 92C112.586 92 112.916 91.975 113.266 91.925C113.616 91.865 113.856 91.81 113.986 91.76ZM109.036 100.04L109.231 101H107.926V100.85C107.926 100.85 107.961 100.85 108.031 100.85C108.101 100.85 108.136 100.85 108.136 100.85C108.386 100.85 108.591 100.77 108.751 100.61C108.911 100.45 108.996 100.26 109.006 100.04H109.036ZM109.036 92.945H109.006C108.996 92.715 108.911 92.525 108.751 92.375C108.591 92.225 108.386 92.15 108.136 92.15C108.136 92.15 108.101 92.15 108.031 92.15C107.961 92.15 107.926 92.15 107.926 92.15V92H109.231L109.036 92.945Z" fill="#F0DD77"/>
</svg>
