<svg width="131" height="98" viewBox="0 0 131 98" fill="none" xmlns="http://www.w3.org/2000/svg">
<path d="M17.426 7.78618C24.2729 10.0393 37.0114 12.147 43.4602 12.147C46.8041 12.147 52.0587 11.6382 55.1637 10.9841C66.1506 8.73103 75.1471 10.9114 84.064 18.0341C90.6721 23.3398 100.306 27.7733 112.248 30.9712C120.926 33.3697 123.076 33.6604 122.279 32.4975C122.041 32.1341 119.254 31.1166 116.069 30.3171C100.942 26.3197 92.2644 22.5403 85.1787 16.7986C79.526 12.147 77.6152 11.2022 70.9275 9.6032C65.3544 8.29495 61.0552 8.36763 49.6702 10.0393C42.1864 11.1295 32.2345 10.33 21.566 7.78618C14.0822 5.96917 11.853 6.04185 17.426 7.78618Z" fill="#E0C76E"/>
<path d="M70.9269 8.51253C72.5192 9.45737 74.3504 9.45737 73.7135 8.51253C73.4746 8.07644 72.4396 7.78572 71.4842 7.78572C70.0512 7.78572 69.9715 7.93108 70.9269 8.51253Z" fill="#E0C76E"/>
<path d="M59.542 12.1472C52.8543 13.6735 47.5201 17.5255 44.0966 23.2673C42.1062 26.5379 42.1062 37.7307 44.0966 41.0013C46.3258 44.7807 50.227 48.4147 53.7301 50.159C58.2682 52.3395 69.892 52.4121 74.5097 50.3044C90.8309 42.9637 90.9105 21.2322 74.6689 14.0369C69.892 11.9292 63.9209 11.2024 59.542 12.1472ZM69.7328 13.8915C73.3155 14.473 79.0478 18.107 81.3566 21.2322C87.2482 29.0817 86.0539 39.8384 78.6497 46.2343C77.4555 47.1792 76.1816 47.6879 75.6243 47.3972C75.067 47.0338 74.8282 47.1065 75.1466 47.5426C76.5001 49.5049 61.7712 52.6302 59.3828 50.8859C58.2682 50.0864 55.5612 45.5802 55.9593 45.2168C56.1185 44.9987 58.3478 45.4348 60.8159 46.0889L65.4335 47.2518L62.4082 48.9235C58.6662 51.0312 59.4624 51.2493 63.2839 49.1415C65.4335 47.9786 66.9462 47.7606 69.4939 48.0513C72.8378 48.4147 72.8378 48.4147 70.2105 47.6879C68.7774 47.3245 67.6628 46.8884 67.822 46.7431C67.9812 46.6704 70.0512 45.5075 72.3601 44.1993L76.6593 41.8735L76.2612 44.2719C75.7836 46.5977 75.8632 46.5977 76.6593 43.9812C77.2962 42.0915 78.4109 40.9286 80.6401 39.7657C82.312 38.8936 83.6655 38.0214 83.6655 37.8034C83.6655 37.5853 82.3916 38.0941 80.8789 38.9663C77.7739 40.6379 77.7739 40.5652 78.9682 36.4951C80.4013 31.2621 80.4809 31.2621 82.2324 33.806C84.5413 37.2219 84.9393 36.6405 82.6305 33.1518C80.9586 30.608 80.7993 29.8085 81.4363 27.6281C81.8343 26.2472 81.9936 24.7209 81.8343 24.2848C81.6751 23.7761 81.277 24.8663 80.8789 26.6106L80.3216 29.7359L78.0128 26.0292C76.7389 24.0668 75.7039 22.1771 75.7039 21.8864C75.7039 21.6683 77.0574 21.5956 78.7293 21.8137C81.4363 22.1771 81.3566 22.1771 77.9332 21.1596C75.2262 20.3601 73.7136 19.4152 72.5193 17.5982C70.3697 14.473 69.6532 14.2549 71.3251 17.2348C72.7582 19.7786 72.4397 19.8513 66.5482 18.4704L62.5674 17.4529L65.1947 16.2173C66.5482 15.5632 67.7424 14.8364 67.7424 14.6183C67.7424 14.4003 65.4335 15.3451 62.5674 16.7987C59.6216 18.2523 57.2332 19.0518 56.9943 18.6157C56.2778 17.6709 55.0039 18.5431 55.4816 19.6333C55.8001 20.4328 52.7747 22.7585 52.1378 22.1771C51.9785 21.959 52.1378 20.7962 52.6155 19.5606C53.0135 18.2523 53.0135 17.3802 52.6155 17.5982C52.297 17.7436 51.7397 19.1245 51.5008 20.5781C51.1028 22.4678 50.227 23.558 48.157 24.6482C44.8131 26.4652 44.5743 27.1194 47.8385 25.5931C50.5455 24.3575 50.5455 24.4302 49.3512 28.5003C47.9182 33.6606 47.8385 33.7333 46.5647 31.5529C45.9278 30.4627 45.2112 29.5905 44.9724 29.5905C44.7335 29.5905 45.2112 30.7534 46.087 32.0616C47.4405 34.1694 47.5997 35.0415 46.9628 37.2219C46.4851 38.6755 46.3258 40.0565 46.5647 40.2745C46.7239 40.4926 47.2016 39.475 47.5201 38.0214C48.0774 35.0415 47.9978 34.9688 51.8193 40.7833L53.6505 43.5451L50.9435 43.1817C48.2366 42.7456 48.2366 42.7456 51.262 43.6178C53.1728 44.1993 54.8447 45.3621 55.8797 46.9611C56.7555 48.2694 57.3128 49.5049 57.1535 49.6503C56.2778 50.5224 48.7939 44.7807 46.7239 41.6554C44.7335 38.7482 44.2558 37.2946 44.0966 33.0065C43.6985 19.706 54.7651 11.4204 69.7328 13.8915ZM67.6628 19.4152C69.4939 19.8513 71.6436 20.0694 72.2805 19.8513C72.9174 19.6333 73.1562 19.7786 72.9174 20.142C72.6786 20.5781 72.7582 20.8688 73.0766 20.8688C73.4747 20.8688 75.1466 22.9766 76.8186 25.5931L79.8439 30.3173L78.4905 35.623L77.0574 40.856L72.0416 43.6178C69.3347 45.0714 66.5482 46.307 65.9909 46.307C65.4335 46.307 62.647 45.7982 59.7809 45.0714C54.6058 43.9085 54.5262 43.8359 51.5008 39.1843L48.4755 34.5328L49.9882 29.1544C51.1824 24.5029 51.8193 23.4853 53.9689 22.2498C56.5166 20.7962 56.5962 20.7962 57.1535 22.1044C57.472 22.8312 58.9051 25.3023 60.2585 27.5554C61.6916 29.8812 62.647 31.7709 62.4082 31.7709C62.1693 31.7709 62.4082 32.2797 62.9655 32.8611C63.6024 33.5879 64.3189 33.7333 64.8762 33.2972C65.3539 32.9338 68.3793 31.9163 71.5639 31.1168C74.6689 30.2446 77.2962 29.2271 77.2962 28.8637C77.2962 27.9188 77.0574 27.9188 70.7678 29.5905C67.822 30.4627 64.9559 30.8987 64.5578 30.6807C63.682 30.1719 57.9497 20.142 58.3478 19.7786C59.7012 18.8338 62.0101 18.107 62.9655 18.325C63.6024 18.4704 65.752 18.9792 67.6628 19.4152Z" fill="#E0C76E"/>
<path d="M55.8003 16.5076C56.4373 16.871 57.7111 17.2344 58.5073 17.2344C60.5773 17.2344 59.9403 16.7984 56.9946 16.2169C55.243 15.8535 54.9246 15.9262 55.8003 16.5076Z" fill="#E0C76E"/>
<path d="M44.0969 18.8334C42.1065 21.0865 39.9569 26.0288 39.3996 29.3721C38.8423 33.2968 40.2753 40.8556 41.6288 41.6551C42.2657 42.0185 42.3453 41.7278 41.8676 40.7829C41.5492 40.0561 41.0715 36.6401 40.9123 33.2241C40.5938 27.4824 40.6734 26.7556 42.9823 22.6855C45.2911 18.5427 45.7688 16.9437 44.0969 18.8334Z" fill="#E0C76E"/>
<path d="M6.43878 31.5525C6.43878 31.9159 10.8176 33.4422 16.2315 34.9685C28.8903 38.5298 37.8072 42.5272 43.5395 47.3241C53.3322 55.3916 61.0549 57.0633 76.6595 54.5922C85.0988 53.2839 92.0253 53.5746 103.729 55.8277C114.795 57.9355 116.467 58.0808 111.133 56.4819C103.649 54.2288 91.468 52.121 85.7357 52.121C82.7899 52.121 77.6149 52.6298 74.2711 53.2839C62.6472 55.537 53.8099 53.4293 44.9726 46.2339C38.7626 41.219 30.4826 37.2942 19.1772 34.0963C9.78263 31.4071 6.43878 30.753 6.43878 31.5525Z" fill="#E0C76E"/>
<path d="M27.3268 81.84H28.5418L31.3318 90.795L31.0768 92.43L27.3268 81.84ZM34.0468 81.51L34.1668 82.725L31.5268 90.765C31.5268 90.765 31.5018 90.855 31.4518 91.035C31.4018 91.205 31.3518 91.42 31.3018 91.68C31.2518 91.93 31.2218 92.18 31.2118 92.43H31.0768L30.8068 91.095L33.9118 81.51H34.0468ZM34.0468 81.525L37.1968 90.36L36.8668 92.43L33.5368 83.145L34.0468 81.525ZM40.1368 81.84L37.3318 90.765C37.3318 90.765 37.3068 90.855 37.2568 91.035C37.2068 91.215 37.1518 91.435 37.0918 91.695C37.0418 91.945 37.0118 92.19 37.0018 92.43H36.8668L36.6868 90.945L39.2968 81.84H40.1368ZM39.0118 82.83C39.0918 82.53 39.0668 82.3 38.9368 82.14C38.8068 81.98 38.6418 81.9 38.4418 81.9H38.3068V81.75H41.2618V81.9C41.2618 81.9 41.2418 81.9 41.2018 81.9C41.1618 81.9 41.1418 81.9 41.1418 81.9C40.9118 81.9 40.6618 81.975 40.3918 82.125C40.1218 82.265 39.9318 82.5 39.8218 82.83H39.0118ZM28.8568 82.83H27.6718C27.5518 82.5 27.3568 82.265 27.0868 82.125C26.8268 81.975 26.5818 81.9 26.3518 81.9C26.3518 81.9 26.3318 81.9 26.2918 81.9C26.2518 81.9 26.2318 81.9 26.2318 81.9V81.75H29.5618V81.9H29.4268C29.2368 81.9 29.0668 81.98 28.9168 82.14C28.7768 82.3 28.7568 82.53 28.8568 82.83ZM44.664 83.04L48.789 92.16H47.604L44.409 84.375L44.664 83.04ZM41.769 91.155C41.659 91.455 41.674 91.69 41.814 91.86C41.954 92.02 42.114 92.1 42.294 92.1H42.414V92.25H39.549V92.1C39.549 92.1 39.569 92.1 39.609 92.1C39.649 92.1 39.669 92.1 39.669 92.1C39.879 92.1 40.094 92.03 40.314 91.89C40.534 91.74 40.724 91.495 40.884 91.155H41.769ZM44.664 83.04L44.769 84.075L41.334 92.205H40.389L43.944 84.585C43.944 84.585 43.969 84.525 44.019 84.405C44.079 84.285 44.144 84.14 44.214 83.97C44.294 83.79 44.364 83.615 44.424 83.445C44.484 83.275 44.519 83.14 44.529 83.04H44.664ZM46.434 88.755V89.205H42.459V88.755H46.434ZM47.199 91.155H48.339C48.489 91.495 48.674 91.74 48.894 91.89C49.114 92.03 49.324 92.1 49.524 92.1C49.524 92.1 49.544 92.1 49.584 92.1C49.624 92.1 49.644 92.1 49.644 92.1V92.25H46.569V92.1H46.689C46.859 92.1 47.014 92.02 47.154 91.86C47.294 91.69 47.309 91.455 47.199 91.155ZM53.3456 83.295V92.25H52.3706V83.295H53.3456ZM56.9756 83.235V83.685H48.7406V83.235H56.9756ZM56.9756 83.655V84.69H56.8106V84.45C56.8106 84.24 56.7406 84.065 56.6006 83.925C56.4706 83.775 56.2906 83.695 56.0606 83.685V83.655H56.9756ZM56.9756 82.995V83.385L55.2956 83.235C55.4956 83.235 55.7056 83.225 55.9256 83.205C56.1556 83.175 56.3656 83.14 56.5556 83.1C56.7456 83.06 56.8856 83.025 56.9756 82.995ZM52.4006 91.29V92.25H51.3056V92.1C51.3156 92.1 51.3456 92.1 51.3956 92.1C51.4556 92.1 51.4856 92.1 51.4856 92.1C51.7256 92.1 51.9306 92.02 52.1006 91.86C52.2706 91.7 52.3606 91.51 52.3706 91.29H52.4006ZM53.3006 91.29H53.3456C53.3556 91.51 53.4456 91.7 53.6156 91.86C53.7856 92.02 53.9906 92.1 54.2306 92.1C54.2306 92.1 54.2556 92.1 54.3056 92.1C54.3656 92.1 54.3956 92.1 54.3956 92.1V92.25H53.3006V91.29ZM49.6556 83.655V83.685C49.4256 83.695 49.2406 83.775 49.1006 83.925C48.9706 84.065 48.9056 84.24 48.9056 84.45V84.69H48.7406V83.655H49.6556ZM48.7406 82.995C48.8306 83.025 48.9656 83.06 49.1456 83.1C49.3356 83.14 49.5456 83.175 49.7756 83.205C50.0056 83.225 50.2206 83.235 50.4206 83.235L48.7406 83.385V82.995ZM66.7233 88.47L66.5583 90.525C66.2983 90.925 65.9583 91.27 65.5383 91.56C65.1183 91.85 64.6433 92.075 64.1133 92.235C63.5833 92.385 63.0233 92.46 62.4333 92.46C61.4233 92.45 60.5433 92.255 59.7933 91.875C59.0533 91.495 58.4833 90.955 58.0833 90.255C57.6833 89.555 57.4833 88.72 57.4833 87.75C57.4833 86.77 57.6833 85.93 58.0833 85.23C58.4833 84.53 59.0533 83.99 59.7933 83.61C60.5433 83.23 61.4233 83.04 62.4333 83.04C63.0533 83.04 63.6783 83.12 64.3083 83.28C64.9383 83.44 65.4833 83.665 65.9433 83.955L66.2733 86.07H66.1383C65.9183 85.15 65.4733 84.49 64.8033 84.09C64.1433 83.69 63.3483 83.49 62.4183 83.49C61.6283 83.49 60.9433 83.665 60.3633 84.015C59.7933 84.355 59.3483 84.845 59.0283 85.485C58.7183 86.115 58.5633 86.87 58.5633 87.75C58.5633 88.61 58.7183 89.36 59.0283 90C59.3483 90.63 59.7983 91.12 60.3783 91.47C60.9583 91.81 61.6433 91.985 62.4333 91.995C63.1833 91.995 63.8583 91.875 64.4583 91.635C65.0683 91.385 65.5633 91 65.9433 90.48C66.3233 89.96 66.5383 89.29 66.5883 88.47H66.7233ZM76.6395 83.25V92.25H75.6795V83.25H76.6395ZM70.1445 83.25V92.25H69.1845V83.25H70.1445ZM75.8295 87.585V88.035H69.9795V87.585H75.8295ZM69.2295 91.29V92.25H68.1345V92.1C68.1345 92.1 68.1645 92.1 68.2245 92.1C68.2845 92.1 68.3145 92.1 68.3145 92.1C68.5545 92.1 68.7545 92.02 68.9145 91.86C69.0845 91.7 69.1745 91.51 69.1845 91.29H69.2295ZM70.0995 91.29H70.1445C70.1445 91.51 70.2295 91.7 70.3995 91.86C70.5695 92.02 70.7745 92.1 71.0145 92.1C71.0145 92.1 71.0445 92.1 71.1045 92.1C71.1645 92.1 71.1945 92.1 71.1945 92.1V92.25H70.0995V91.29ZM70.0995 84.21V83.25H71.1945V83.4C71.1945 83.4 71.1645 83.4 71.1045 83.4C71.0445 83.4 71.0145 83.4 71.0145 83.4C70.7745 83.4 70.5695 83.48 70.3995 83.64C70.2295 83.79 70.1445 83.98 70.1445 84.21H70.0995ZM69.2295 84.21H69.1845C69.1745 83.98 69.0845 83.79 68.9145 83.64C68.7545 83.48 68.5545 83.4 68.3145 83.4C68.3145 83.4 68.2845 83.4 68.2245 83.4C68.1645 83.4 68.1345 83.4 68.1345 83.4V83.25H69.2295V84.21ZM75.7245 91.29V92.25H74.6295V92.1C74.6295 92.1 74.6595 92.1 74.7195 92.1C74.7795 92.1 74.8095 92.1 74.8095 92.1C75.0495 92.1 75.2495 92.02 75.4095 91.86C75.5795 91.7 75.6695 91.51 75.6795 91.29H75.7245ZM76.5945 91.29H76.6395C76.6495 91.51 76.7345 91.7 76.8945 91.86C77.0645 92.02 77.2695 92.1 77.5095 92.1C77.5095 92.1 77.5395 92.1 77.5995 92.1C77.6595 92.1 77.6895 92.1 77.6895 92.1V92.25H76.5945V91.29ZM76.5945 84.21V83.25H77.6895V83.4C77.6895 83.4 77.6595 83.4 77.5995 83.4C77.5395 83.4 77.5095 83.4 77.5095 83.4C77.2695 83.4 77.0645 83.48 76.8945 83.64C76.7345 83.79 76.6495 83.98 76.6395 84.21H76.5945ZM75.7245 84.21H75.6795C75.6695 83.98 75.5795 83.79 75.4095 83.64C75.2495 83.48 75.0495 83.4 74.8095 83.4C74.8095 83.4 74.7795 83.4 74.7195 83.4C74.6595 83.4 74.6295 83.4 74.6295 83.4V83.25H75.7245V84.21ZM81.3659 83.25V92.25H80.4059V83.25H81.3659ZM85.4009 91.785L85.3709 92.25H81.3359V91.785H85.4009ZM84.6959 87.525V87.975H81.3359V87.525H84.6959ZM85.3859 83.25V83.715H81.3359V83.25H85.3859ZM86.2409 90.105L85.4159 92.25H83.1359L83.6459 91.785C84.1459 91.785 84.5459 91.715 84.8459 91.575C85.1559 91.425 85.4059 91.225 85.5959 90.975C85.7859 90.715 85.9509 90.425 86.0909 90.105H86.2409ZM84.6959 87.945V88.8H84.5309V88.605C84.5309 88.435 84.4809 88.29 84.3809 88.17C84.2809 88.04 84.1259 87.975 83.9159 87.975V87.945H84.6959ZM84.6959 86.7V87.555H83.9159V87.525C84.1259 87.525 84.2809 87.465 84.3809 87.345C84.4809 87.215 84.5309 87.065 84.5309 86.895V86.7H84.6959ZM85.3859 83.67V84.705H85.2209V84.48C85.2209 84.27 85.1509 84.09 85.0109 83.94C84.8809 83.79 84.7009 83.715 84.4709 83.715V83.67H85.3859ZM85.3859 83.01V83.4L83.6759 83.25C83.9859 83.25 84.3159 83.225 84.6659 83.175C85.0159 83.115 85.2559 83.06 85.3859 83.01ZM80.4359 91.29L80.6309 92.25H79.3259V92.1C79.3259 92.1 79.3609 92.1 79.4309 92.1C79.5009 92.1 79.5359 92.1 79.5359 92.1C79.7859 92.1 79.9909 92.02 80.1509 91.86C80.3109 91.7 80.3959 91.51 80.4059 91.29H80.4359ZM80.4359 84.195H80.4059C80.3959 83.965 80.3109 83.775 80.1509 83.625C79.9909 83.475 79.7859 83.4 79.5359 83.4C79.5359 83.4 79.5009 83.4 79.4309 83.4C79.3609 83.4 79.3259 83.4 79.3259 83.4V83.25H80.6309L80.4359 84.195ZM90.1994 83.04C90.4794 83.04 90.7244 83.05 90.9344 83.07C91.1444 83.09 91.3244 83.115 91.4744 83.145C91.6344 83.165 91.7694 83.195 91.8794 83.235C91.9994 83.265 92.1044 83.295 92.1944 83.325L92.2094 84.81H92.0294C92.0294 84.4 91.8894 84.08 91.6094 83.85C91.3294 83.61 90.8944 83.49 90.3044 83.49C89.8044 83.49 89.3744 83.63 89.0144 83.91C88.6644 84.18 88.4944 84.515 88.5044 84.915C88.5044 85.045 88.5194 85.18 88.5494 85.32C88.5894 85.45 88.6494 85.58 88.7294 85.71C88.8194 85.84 88.9394 85.97 89.0894 86.1L92.1194 88.44C92.3494 88.63 92.5194 88.875 92.6294 89.175C92.7394 89.465 92.7994 89.755 92.8094 90.045C92.8194 90.485 92.7044 90.89 92.4644 91.26C92.2244 91.63 91.8994 91.925 91.4894 92.145C91.0894 92.355 90.6444 92.46 90.1544 92.46C89.8644 92.46 89.5494 92.435 89.2094 92.385C88.8794 92.335 88.5694 92.26 88.2794 92.16C87.9894 92.05 87.7494 91.915 87.5594 91.755C87.5294 91.615 87.5144 91.44 87.5144 91.23C87.5144 91.01 87.5294 90.78 87.5594 90.54C87.5994 90.3 87.6494 90.085 87.7094 89.895H87.8894C87.8494 90.345 87.9144 90.73 88.0844 91.05C88.2544 91.37 88.5044 91.615 88.8344 91.785C89.1644 91.945 89.5494 92.02 89.9894 92.01C90.6094 91.99 91.0944 91.835 91.4444 91.545C91.8044 91.245 91.9844 90.85 91.9844 90.36C91.9844 90.12 91.9394 89.905 91.8494 89.715C91.7694 89.515 91.6344 89.33 91.4444 89.16L88.4444 86.85C88.1644 86.61 87.9744 86.345 87.8744 86.055C87.7744 85.765 87.7244 85.49 87.7244 85.23C87.7244 84.82 87.8344 84.45 88.0544 84.12C88.2744 83.79 88.5694 83.53 88.9394 83.34C89.3194 83.14 89.7394 83.04 90.1994 83.04ZM92.1794 83.175L92.1944 83.445H91.1294V83.175H92.1794Z" fill="#F0DD77"/>
</svg>
