<svg width="178" height="92" viewBox="0 0 178 92" fill="none" xmlns="http://www.w3.org/2000/svg">
<path d="M36.939 35.7567C35.6115 38.2227 33.93 41.3526 33.1335 42.6804L31.7175 45.0515L34.815 42.9649C36.4965 41.8268 40.7445 39.7402 44.1075 38.3175C47.559 36.8948 50.6565 35.4722 51.0105 35.0928C51.453 34.7134 49.683 33.8598 47.028 33.1959C44.4615 32.6268 41.718 31.868 40.9215 31.6783C39.8595 31.3938 38.709 32.6268 36.939 35.7567Z" fill="#E0C76E"/>
<path d="M58.8871 37.2742C55.7896 37.6536 50.8335 38.9814 47.8246 40.2144C40.7446 43.1546 21.363 53.2082 21.8055 53.6825C22.3365 54.3464 34.107 49.9835 44.9925 45.1464C56.055 40.3093 62.4271 38.8866 71.9851 39.4557C76.764 39.7402 78.18 39.5505 77.118 38.7917C74.64 37.2742 64.905 36.4206 58.8871 37.2742Z" fill="#E0C76E"/>
<path d="M80.0386 41.8268C70.6576 43.0598 56.6746 46.7588 42.3376 51.8804C35.5231 54.3464 26.5846 57.2866 22.4251 58.4247C18.2656 59.5629 15.8761 60.6062 17.1151 60.6062C20.5666 60.701 42.5146 55.6742 59.5951 50.7423C72.8701 46.9485 76.6756 46.2845 86.2336 45.8103C96.2341 45.3361 103.757 46 111.633 48.0866C114.819 48.9402 113.846 46.8536 110.306 45.2412C102.606 41.732 90.9241 40.4041 80.0386 41.8268Z" fill="#E0C76E"/>
<path d="M123.531 49.0001C113.796 49.7589 94.7684 52.6042 72.6434 56.398C48.3944 60.5712 33.4012 62.422 22.5157 63.4653C19.1527 63.8447 16.5344 64.8393 16.7999 65.1238C16.7999 72.9653 39.3674 63.796 59.3684 61.0455C68.6609 59.8125 88.3117 57.7259 97.5157 56.398C118.048 53.6475 136.186 51.9403 147.337 52.3197L148.516 52.4653L149.373 52.8091L150.516 53.4653L151.016 53.9653L151.3 54.4995V54.9995V55.4995V55.9995L151.016 56.7808L149.373 59.9073C145.833 63.9857 143.001 68.064 143.001 68.9176C143.001 70.1506 143.974 69.4867 146.364 66.6413C148.134 64.365 151.939 60.7609 154.683 58.4846C157.515 56.1135 160.612 53.1733 161.586 51.8455C163.267 49.5692 163.267 49.4743 161.674 49.0001C159.816 48.5259 129.549 48.431 123.531 49.0001Z" fill="#E0C76E"/>
<path d="M51.0183 76.515L53.9583 81.99L53.3133 82.515L49.7283 76.515H51.0183ZM54.1683 82.17V87H53.1933V82.17H54.1683ZM56.8383 76.515H57.7533L54.0633 82.485L53.5233 82.32L56.8383 76.515ZM56.2233 77.58C56.3133 77.44 56.3383 77.3 56.2983 77.16C56.2583 77.01 56.1833 76.89 56.0733 76.8C55.9633 76.7 55.8383 76.65 55.6983 76.65C55.6983 76.65 55.6683 76.65 55.6083 76.65C55.5483 76.65 55.5183 76.65 55.5183 76.65V76.5H58.8483V76.65H58.6383C58.3283 76.65 58.0383 76.74 57.7683 76.92C57.4983 77.1 57.2833 77.305 57.1233 77.535L56.2233 77.58ZM51.5883 77.58L50.3283 77.535C50.1883 77.305 49.9833 77.1 49.7133 76.92C49.4433 76.74 49.1483 76.65 48.8283 76.65H48.6183V76.5H52.3083V76.65C52.3083 76.65 52.2733 76.65 52.2033 76.65C52.1433 76.65 52.1133 76.65 52.1133 76.65C51.8933 76.65 51.7233 76.755 51.6033 76.965C51.4933 77.165 51.4883 77.37 51.5883 77.58ZM53.2233 85.905V87H52.0383V86.85C52.0383 86.85 52.0683 86.85 52.1283 86.85C52.1883 86.85 52.2233 86.85 52.2333 86.85C52.4933 86.85 52.7133 86.76 52.8933 86.58C53.0833 86.39 53.1833 86.165 53.1933 85.905H53.2233ZM54.1233 85.905H54.1683C54.1683 86.165 54.2633 86.39 54.4533 86.58C54.6433 86.76 54.8683 86.85 55.1283 86.85C55.1283 86.85 55.1583 86.85 55.2183 86.85C55.2783 86.85 55.3083 86.85 55.3083 86.85V87H54.1233V85.905ZM61.7771 77.79L65.9021 86.91H64.7171L61.5221 79.125L61.7771 77.79ZM58.8821 85.905C58.7721 86.205 58.7871 86.44 58.9271 86.61C59.0671 86.77 59.2271 86.85 59.4071 86.85H59.5271V87H56.6621V86.85C56.6621 86.85 56.6821 86.85 56.7221 86.85C56.7621 86.85 56.7821 86.85 56.7821 86.85C56.9921 86.85 57.2071 86.78 57.4271 86.64C57.6471 86.49 57.8371 86.245 57.9971 85.905H58.8821ZM61.7771 77.79L61.8821 78.825L58.4471 86.955H57.5021L61.0571 79.335C61.0571 79.335 61.0821 79.275 61.1321 79.155C61.1921 79.035 61.2571 78.89 61.3271 78.72C61.4071 78.54 61.4771 78.365 61.5371 78.195C61.5971 78.025 61.6321 77.89 61.6421 77.79H61.7771ZM63.5471 83.505V83.955H59.5721V83.505H63.5471ZM64.3121 85.905H65.4521C65.6021 86.245 65.7871 86.49 66.0071 86.64C66.2271 86.78 66.4371 86.85 66.6371 86.85C66.6371 86.85 66.6571 86.85 66.6971 86.85C66.7371 86.85 66.7571 86.85 66.7571 86.85V87H63.6821V86.85H63.8021C63.9721 86.85 64.1271 86.77 64.2671 86.61C64.4071 86.44 64.4221 86.205 64.3121 85.905ZM76.4536 83.22L76.2886 85.275C76.0286 85.675 75.6886 86.02 75.2686 86.31C74.8486 86.6 74.3736 86.825 73.8436 86.985C73.3136 87.135 72.7536 87.21 72.1636 87.21C71.1536 87.2 70.2736 87.005 69.5236 86.625C68.7836 86.245 68.2136 85.705 67.8136 85.005C67.4136 84.305 67.2136 83.47 67.2136 82.5C67.2136 81.52 67.4136 80.68 67.8136 79.98C68.2136 79.28 68.7836 78.74 69.5236 78.36C70.2736 77.98 71.1536 77.79 72.1636 77.79C72.7836 77.79 73.4086 77.87 74.0386 78.03C74.6686 78.19 75.2136 78.415 75.6736 78.705L76.0036 80.82H75.8686C75.6486 79.9 75.2036 79.24 74.5336 78.84C73.8736 78.44 73.0786 78.24 72.1486 78.24C71.3586 78.24 70.6736 78.415 70.0936 78.765C69.5236 79.105 69.0786 79.595 68.7586 80.235C68.4486 80.865 68.2936 81.62 68.2936 82.5C68.2936 83.36 68.4486 84.11 68.7586 84.75C69.0786 85.38 69.5286 85.87 70.1086 86.22C70.6886 86.56 71.3736 86.735 72.1636 86.745C72.9136 86.745 73.5886 86.625 74.1886 86.385C74.7986 86.135 75.2936 85.75 75.6736 85.23C76.0536 84.71 76.2686 84.04 76.3186 83.22H76.4536ZM86.3698 78V87H85.4098V78H86.3698ZM79.8748 78V87H78.9148V78H79.8748ZM85.5598 82.335V82.785H79.7098V82.335H85.5598ZM78.9598 86.04V87H77.8648V86.85C77.8648 86.85 77.8948 86.85 77.9548 86.85C78.0148 86.85 78.0448 86.85 78.0448 86.85C78.2848 86.85 78.4848 86.77 78.6448 86.61C78.8148 86.45 78.9048 86.26 78.9148 86.04H78.9598ZM79.8298 86.04H79.8748C79.8748 86.26 79.9598 86.45 80.1298 86.61C80.2998 86.77 80.5048 86.85 80.7448 86.85C80.7448 86.85 80.7748 86.85 80.8348 86.85C80.8948 86.85 80.9248 86.85 80.9248 86.85V87H79.8298V86.04ZM79.8298 78.96V78H80.9248V78.15C80.9248 78.15 80.8948 78.15 80.8348 78.15C80.7748 78.15 80.7448 78.15 80.7448 78.15C80.5048 78.15 80.2998 78.23 80.1298 78.39C79.9598 78.54 79.8748 78.73 79.8748 78.96H79.8298ZM78.9598 78.96H78.9148C78.9048 78.73 78.8148 78.54 78.6448 78.39C78.4848 78.23 78.2848 78.15 78.0448 78.15C78.0448 78.15 78.0148 78.15 77.9548 78.15C77.8948 78.15 77.8648 78.15 77.8648 78.15V78H78.9598V78.96ZM85.4548 86.04V87H84.3598V86.85C84.3598 86.85 84.3898 86.85 84.4498 86.85C84.5098 86.85 84.5398 86.85 84.5398 86.85C84.7798 86.85 84.9798 86.77 85.1398 86.61C85.3098 86.45 85.3998 86.26 85.4098 86.04H85.4548ZM86.3248 86.04H86.3698C86.3798 86.26 86.4648 86.45 86.6248 86.61C86.7948 86.77 86.9998 86.85 87.2398 86.85C87.2398 86.85 87.2698 86.85 87.3298 86.85C87.3898 86.85 87.4198 86.85 87.4198 86.85V87H86.3248V86.04ZM86.3248 78.96V78H87.4198V78.15C87.4198 78.15 87.3898 78.15 87.3298 78.15C87.2698 78.15 87.2398 78.15 87.2398 78.15C86.9998 78.15 86.7948 78.23 86.6248 78.39C86.4648 78.54 86.3798 78.73 86.3698 78.96H86.3248ZM85.4548 78.96H85.4098C85.3998 78.73 85.3098 78.54 85.1398 78.39C84.9798 78.23 84.7798 78.15 84.5398 78.15C84.5398 78.15 84.5098 78.15 84.4498 78.15C84.3898 78.15 84.3598 78.15 84.3598 78.15V78H85.4548V78.96ZM93.0612 78.045V87H92.0862V78.045H93.0612ZM96.6912 77.985V78.435H88.4562V77.985H96.6912ZM96.6912 78.405V79.44H96.5262V79.2C96.5262 78.99 96.4562 78.815 96.3162 78.675C96.1862 78.525 96.0062 78.445 95.7762 78.435V78.405H96.6912ZM96.6912 77.745V78.135L95.0112 77.985C95.2112 77.985 95.4212 77.975 95.6412 77.955C95.8712 77.925 96.0812 77.89 96.2712 77.85C96.4612 77.81 96.6012 77.775 96.6912 77.745ZM92.1162 86.04V87H91.0212V86.85C91.0312 86.85 91.0612 86.85 91.1112 86.85C91.1712 86.85 91.2012 86.85 91.2012 86.85C91.4412 86.85 91.6462 86.77 91.8162 86.61C91.9862 86.45 92.0762 86.26 92.0862 86.04H92.1162ZM93.0162 86.04H93.0612C93.0712 86.26 93.1612 86.45 93.3312 86.61C93.5012 86.77 93.7062 86.85 93.9462 86.85C93.9462 86.85 93.9712 86.85 94.0212 86.85C94.0812 86.85 94.1112 86.85 94.1112 86.85V87H93.0162V86.04ZM89.3712 78.405V78.435C89.1412 78.445 88.9562 78.525 88.8162 78.675C88.6862 78.815 88.6212 78.99 88.6212 79.2V79.44H88.4562V78.405H89.3712ZM88.4562 77.745C88.5462 77.775 88.6812 77.81 88.8612 77.85C89.0512 77.89 89.2612 77.925 89.4912 77.955C89.7212 77.975 89.9362 77.985 90.1362 77.985L88.4562 78.135V77.745ZM100.413 77.79C100.693 77.79 100.938 77.8 101.148 77.82C101.358 77.84 101.538 77.865 101.688 77.895C101.848 77.915 101.983 77.945 102.093 77.985C102.213 78.015 102.318 78.045 102.408 78.075L102.423 79.56H102.243C102.243 79.15 102.103 78.83 101.823 78.6C101.543 78.36 101.108 78.24 100.518 78.24C100.018 78.24 99.5881 78.38 99.2281 78.66C98.8781 78.93 98.7081 79.265 98.7181 79.665C98.7181 79.795 98.7331 79.93 98.7631 80.07C98.8031 80.2 98.8631 80.33 98.9431 80.46C99.0331 80.59 99.1531 80.72 99.3031 80.85L102.333 83.19C102.563 83.38 102.733 83.625 102.843 83.925C102.953 84.215 103.013 84.505 103.023 84.795C103.033 85.235 102.918 85.64 102.678 86.01C102.438 86.38 102.113 86.675 101.703 86.895C101.303 87.105 100.858 87.21 100.368 87.21C100.078 87.21 99.7631 87.185 99.4231 87.135C99.0931 87.085 98.7831 87.01 98.4931 86.91C98.2031 86.8 97.9631 86.665 97.7731 86.505C97.7431 86.365 97.7281 86.19 97.7281 85.98C97.7281 85.76 97.7431 85.53 97.7731 85.29C97.8131 85.05 97.8631 84.835 97.9231 84.645H98.1031C98.0631 85.095 98.1281 85.48 98.2981 85.8C98.4681 86.12 98.7181 86.365 99.0481 86.535C99.3781 86.695 99.7631 86.77 100.203 86.76C100.823 86.74 101.308 86.585 101.658 86.295C102.018 85.995 102.198 85.6 102.198 85.11C102.198 84.87 102.153 84.655 102.063 84.465C101.983 84.265 101.848 84.08 101.658 83.91L98.6581 81.6C98.3781 81.36 98.1881 81.095 98.0881 80.805C97.9881 80.515 97.9381 80.24 97.9381 79.98C97.9381 79.57 98.0481 79.2 98.2681 78.87C98.4881 78.54 98.7831 78.28 99.1531 78.09C99.5331 77.89 99.9531 77.79 100.413 77.79ZM102.393 77.925L102.408 78.195H101.343V77.925H102.393Z" fill="#F0DD77"/>
</svg>
