<svg width="138" height="44" viewBox="0 0 138 44" fill="none" xmlns="http://www.w3.org/2000/svg">
<path d="M4.23141 10V24H2.93141V10H4.23141ZM9.63141 23.38V24H4.17141V23.38H9.63141ZM10.8514 20.76L9.69141 24H6.37141L7.09141 23.38C7.79807 23.38 8.37141 23.2733 8.81141 23.06C9.26474 22.8333 9.63141 22.52 9.91141 22.12C10.1914 21.72 10.4381 21.2667 10.6514 20.76H10.8514ZM2.99141 22.54V24H1.39141V23.8C1.39141 23.8 1.43141 23.8 1.51141 23.8C1.60474 23.8 1.65141 23.8 1.65141 23.8C1.99807 23.8 2.29141 23.68 2.53141 23.44C2.78474 23.1867 2.91807 22.8867 2.93141 22.54H2.99141ZM2.99141 11.46H2.93141C2.91807 11.1133 2.78474 10.82 2.53141 10.58C2.29141 10.3267 1.99807 10.2 1.65141 10.2C1.65141 10.2 1.60474 10.2 1.51141 10.2C1.43141 10.2 1.39141 10.2 1.39141 10.2V10H2.99141V11.46ZM4.17141 11.46V10H5.77141V10.2C5.75807 10.2 5.71141 10.2 5.63141 10.2C5.55141 10.2 5.51141 10.2 5.51141 10.2C5.16474 10.2 4.86474 10.3267 4.61141 10.58C4.37141 10.82 4.24474 11.1133 4.23141 11.46H4.17141ZM14.7619 12V19.56C14.7619 20.8533 15.0885 21.8733 15.7419 22.62C16.4085 23.3667 17.3152 23.74 18.4619 23.74C19.7285 23.74 20.7219 23.3867 21.4419 22.68C22.1752 21.9733 22.5419 21.0067 22.5419 19.78V12H23.4619V19.78C23.4619 21.1667 23.0152 22.2667 22.1219 23.08C21.2419 23.88 20.0285 24.28 18.4819 24.28C16.9485 24.28 15.7285 23.88 14.8219 23.08C13.9285 22.28 13.4819 21.1867 13.4819 19.8V12H14.7619ZM13.5219 12V13.06H13.4819C13.4685 12.82 13.3685 12.62 13.1819 12.46C13.0085 12.2867 12.7885 12.2 12.5219 12.2C12.5219 12.2 12.4685 12.2 12.3619 12.2C12.2685 12.2 12.2219 12.2 12.2219 12.2V12H13.5219ZM16.0219 12V12.2C16.0219 12.2 15.9685 12.2 15.8619 12.2C15.7685 12.2 15.7219 12.2 15.7219 12.2C15.4685 12.2 15.2419 12.2867 15.0419 12.46C14.8552 12.62 14.7619 12.82 14.7619 13.06H14.7219V12H16.0219ZM22.5819 12V13.06H22.5419C22.5419 12.82 22.4485 12.62 22.2619 12.46C22.0752 12.2867 21.8485 12.2 21.5819 12.2C21.5819 12.2 21.5285 12.2 21.4219 12.2C21.3285 12.2 21.2819 12.2 21.2819 12.2V12H22.5819ZM24.7219 12V12.2C24.7219 12.2 24.6685 12.2 24.5619 12.2C24.4685 12.2 24.4219 12.2 24.4219 12.2C24.1685 12.2 23.9485 12.2867 23.7619 12.46C23.5752 12.62 23.4752 12.82 23.4619 13.06H23.4219V12H24.7219ZM28.4658 12.02L36.8058 23.98H35.1858L26.8858 12.02H28.4658ZM28.6658 22.72C28.4924 22.9733 28.4924 23.22 28.6658 23.46C28.8524 23.6867 29.0724 23.8 29.3258 23.8C29.3258 23.8 29.3658 23.8 29.4458 23.8C29.5258 23.8 29.5658 23.8 29.5658 23.8V24H25.2058V23.8H25.4658C25.8658 23.8 26.2324 23.7 26.5658 23.5C26.8991 23.2867 27.1724 23.0467 27.3858 22.78L28.6658 22.72ZM31.3458 17.74L31.7458 18.56L27.7258 23.98H26.4658L31.3458 17.74ZM34.3258 22.74L35.9658 22.8C36.1658 23.0533 36.4391 23.2867 36.7858 23.5C37.1324 23.7 37.5058 23.8 37.9058 23.8H38.1658V24H33.4258V23.8C33.4258 23.8 33.4658 23.8 33.5458 23.8C33.6258 23.8 33.6658 23.8 33.6658 23.8C33.9324 23.8 34.1458 23.6867 34.3058 23.46C34.4791 23.22 34.4858 22.98 34.3258 22.74ZM30.2258 12V12.2C30.2258 12.2 30.1858 12.2 30.1058 12.2C30.0258 12.2 29.9858 12.2 29.9858 12.2C29.7324 12.2 29.5191 12.32 29.3458 12.56C29.1724 12.7867 29.1658 13.02 29.3258 13.26L27.7258 13.2C27.5258 12.9333 27.2524 12.7 26.9058 12.5C26.5591 12.3 26.1858 12.2 25.7858 12.2H25.5258V12H30.2258ZM36.4858 12.02L32.2258 17.94L31.7258 17.1L35.1258 12.02H36.4858ZM37.8258 12V12.2H37.5458C37.1458 12.2 36.7724 12.3 36.4258 12.5C36.0924 12.7 35.8258 12.94 35.6258 13.22L34.2858 13.28C34.4458 13.0267 34.4391 12.7867 34.2658 12.56C34.1058 12.32 33.8924 12.2 33.6258 12.2C33.6258 12.2 33.5858 12.2 33.5058 12.2C33.4258 12.2 33.3858 12.2 33.3858 12.2V12H37.8258ZM41.2853 12V19.56C41.2853 20.8533 41.612 21.8733 42.2653 22.62C42.932 23.3667 43.8386 23.74 44.9853 23.74C46.252 23.74 47.2453 23.3867 47.9653 22.68C48.6986 21.9733 49.0653 21.0067 49.0653 19.78V12H49.9853V19.78C49.9853 21.1667 49.5386 22.2667 48.6453 23.08C47.7653 23.88 46.552 24.28 45.0053 24.28C43.472 24.28 42.252 23.88 41.3453 23.08C40.452 22.28 40.0053 21.1867 40.0053 19.8V12H41.2853ZM40.0453 12V13.06H40.0053C39.992 12.82 39.892 12.62 39.7053 12.46C39.532 12.2867 39.312 12.2 39.0453 12.2C39.0453 12.2 38.992 12.2 38.8853 12.2C38.792 12.2 38.7453 12.2 38.7453 12.2V12H40.0453ZM42.5453 12V12.2C42.5453 12.2 42.492 12.2 42.3853 12.2C42.292 12.2 42.2453 12.2 42.2453 12.2C41.992 12.2 41.7653 12.2867 41.5653 12.46C41.3786 12.62 41.2853 12.82 41.2853 13.06H41.2453V12H42.5453ZM49.1053 12V13.06H49.0653C49.0653 12.82 48.972 12.62 48.7853 12.46C48.5986 12.2867 48.372 12.2 48.1053 12.2C48.1053 12.2 48.052 12.2 47.9453 12.2C47.852 12.2 47.8053 12.2 47.8053 12.2V12H49.1053ZM51.2453 12V12.2C51.2453 12.2 51.192 12.2 51.0853 12.2C50.992 12.2 50.9453 12.2 50.9453 12.2C50.692 12.2 50.472 12.2867 50.2853 12.46C50.0986 12.62 49.9986 12.82 49.9853 13.06H49.9453V12H51.2453ZM55.4892 12H58.0692C58.6959 12 59.2559 12.0733 59.7492 12.22C60.2559 12.3667 60.6826 12.58 61.0292 12.86C61.3892 13.14 61.6626 13.48 61.8492 13.88C62.0359 14.28 62.1292 14.7333 62.1292 15.24C62.1292 15.8 61.9959 16.32 61.7292 16.8C61.4626 17.28 61.0892 17.6733 60.6092 17.98C60.1426 18.2867 59.6092 18.4733 59.0092 18.54C59.2359 18.6333 59.4959 18.84 59.7892 19.16C60.0959 19.48 60.3559 19.7933 60.5692 20.1C60.5692 20.1 60.6559 20.22 60.8292 20.46C61.0026 20.6867 61.2226 20.9733 61.4892 21.32C61.7692 21.6533 62.0426 21.9733 62.3092 22.28C62.5892 22.5867 62.8426 22.8533 63.0692 23.08C63.3092 23.3067 63.5626 23.4867 63.8292 23.62C64.1092 23.74 64.4292 23.8 64.7892 23.8V24H64.1692C63.4359 24 62.8292 23.9067 62.3492 23.72C61.8826 23.5333 61.5026 23.3067 61.2092 23.04C60.9159 22.76 60.6626 22.4933 60.4492 22.24C60.3959 22.1733 60.2692 22.0067 60.0692 21.74C59.8826 21.46 59.6759 21.16 59.4492 20.84C59.2226 20.52 59.0159 20.2333 58.8292 19.98C58.6426 19.7133 58.5292 19.5533 58.4892 19.5C58.2226 19.1533 57.9159 18.8467 57.5692 18.58C57.2226 18.3 56.8559 18.16 56.4692 18.16V17.96C56.4692 17.96 56.5759 17.9667 56.7892 17.98C57.0026 17.98 57.2759 17.9733 57.6092 17.96C57.9826 17.9467 58.3559 17.92 58.7292 17.88C59.1026 17.8267 59.4492 17.68 59.7692 17.44C60.1026 17.2 60.3626 16.8 60.5492 16.24C60.6026 16.0933 60.6426 15.92 60.6692 15.72C60.6959 15.52 60.7026 15.3133 60.6892 15.1C60.6759 14.7267 60.6026 14.3933 60.4692 14.1C60.3492 13.8067 60.1692 13.5533 59.9292 13.34C59.7026 13.1267 59.4292 12.96 59.1092 12.84C58.7892 12.72 58.4292 12.6533 58.0292 12.64C57.4026 12.6133 56.8559 12.6067 56.3892 12.62C55.9226 12.6333 55.6892 12.6333 55.6892 12.62C55.6892 12.6067 55.6692 12.5533 55.6292 12.46C55.6026 12.3533 55.5692 12.2533 55.5292 12.16C55.5026 12.0533 55.4892 12 55.4892 12ZM55.7292 12V24H54.4492V12H55.7292ZM54.5092 22.72L54.7492 24H53.0492V23.8C53.0492 23.8 53.0959 23.8 53.1892 23.8C53.2826 23.8 53.3292 23.8 53.3292 23.8C53.6492 23.8 53.9159 23.6933 54.1292 23.48C54.3426 23.2667 54.4559 23.0133 54.4692 22.72H54.5092ZM54.5092 13.26H54.4692C54.4559 12.9533 54.3426 12.7 54.1292 12.5C53.9159 12.3 53.6492 12.2 53.3292 12.2C53.3292 12.2 53.2826 12.2 53.1892 12.2C53.0959 12.2 53.0492 12.2 53.0492 12.2V12H54.7492L54.5092 13.26ZM55.6692 22.72H55.7292C55.7426 23.0133 55.8559 23.2667 56.0692 23.48C56.2826 23.6933 56.5492 23.8 56.8692 23.8C56.8692 23.8 56.9092 23.8 56.9892 23.8C57.0826 23.8 57.1292 23.8 57.1292 23.8L57.1492 24H55.4292L55.6692 22.72ZM66.5698 12.02L70.2698 18.6L69.4498 19.3L64.8298 12.02H66.5698ZM70.5698 18.84V24H69.2698V18.84H70.5698ZM73.9298 12.02H75.1898L70.4298 19.26L69.6898 19.04L73.9298 12.02ZM73.1698 13.28C73.3165 13.0133 73.3232 12.7667 73.1898 12.54C73.0565 12.3133 72.8432 12.2 72.5498 12.2C72.5498 12.2 72.5098 12.2 72.4298 12.2C72.3498 12.2 72.3098 12.2 72.3098 12.2V12H76.4898V12.2H76.2498C75.8765 12.2 75.5232 12.3067 75.1898 12.52C74.8698 12.72 74.6165 12.9533 74.4298 13.22L73.1698 13.28ZM67.2698 13.26L65.5698 13.2C65.3565 12.8933 65.0898 12.6533 64.7698 12.48C64.4632 12.2933 64.1165 12.2 63.7298 12.2H63.4898V12H68.1298V12.2C68.1298 12.2 68.0898 12.2 68.0098 12.2C67.9298 12.2 67.8898 12.2 67.8898 12.2C67.5965 12.2 67.3832 12.32 67.2498 12.56C67.1298 12.7867 67.1365 13.02 67.2698 13.26ZM69.3298 22.72V24H67.8698V23.8C67.8832 23.8 67.9232 23.8 67.9898 23.8C68.0698 23.8 68.1098 23.8 68.1098 23.8C68.4298 23.8 68.6965 23.6933 68.9098 23.48C69.1365 23.2667 69.2565 23.0133 69.2698 22.72H69.3298ZM70.5098 22.72H70.5698C70.5832 23.0133 70.6965 23.2667 70.9098 23.48C71.1365 23.6933 71.4098 23.8 71.7298 23.8C71.7298 23.8 71.7698 23.8 71.8498 23.8C71.9298 23.8 71.9698 23.8 71.9698 23.8V24H70.5098V22.72ZM85.1628 10H87.8028C88.6561 10 89.3895 10.1533 90.0028 10.46C90.6161 10.7667 91.0895 11.2133 91.4228 11.8C91.7561 12.3733 91.9228 13.06 91.9228 13.86C91.9228 14.4733 91.8028 15.0267 91.5628 15.52C91.3228 16 91.0028 16.4067 90.6028 16.74C90.2028 17.0733 89.7495 17.3267 89.2428 17.5C88.7361 17.66 88.2095 17.72 87.6628 17.68C87.1295 17.64 86.6095 17.4867 86.1028 17.22V17.02C86.1028 17.02 86.2161 17.04 86.4428 17.08C86.6695 17.1067 86.9561 17.1133 87.3028 17.1C87.6628 17.0733 88.0361 17 88.4228 16.88C88.8228 16.7467 89.1895 16.52 89.5228 16.2C89.8695 15.88 90.1295 15.4333 90.3028 14.86C90.3428 14.7133 90.3761 14.5333 90.4028 14.32C90.4295 14.0933 90.4361 13.8733 90.4228 13.66C90.4095 12.74 90.1695 12 89.7028 11.44C89.2361 10.88 88.5761 10.6 87.7228 10.6H85.3628C85.3628 10.6 85.3428 10.5533 85.3028 10.46C85.2761 10.3533 85.2428 10.2533 85.2028 10.16C85.1761 10.0533 85.1628 10 85.1628 10ZM85.4228 10V24H84.1228V10H85.4228ZM84.1828 22.54V24H82.5828V23.8C82.5828 23.8 82.6228 23.8 82.7028 23.8C82.7961 23.8 82.8428 23.8 82.8428 23.8C83.1895 23.8 83.4828 23.68 83.7228 23.44C83.9761 23.1867 84.1095 22.8867 84.1228 22.54H84.1828ZM84.1828 11.46H84.1228C84.1228 11.1133 83.9961 10.82 83.7428 10.58C83.4895 10.3267 83.1895 10.2 82.8428 10.2C82.8428 10.2 82.8028 10.2 82.7228 10.2C82.6428 10.2 82.6028 10.2 82.6028 10.2L82.5828 10H84.1828V11.46ZM85.3628 22.54H85.4228C85.4361 22.8867 85.5628 23.1867 85.8028 23.44C86.0561 23.68 86.3561 23.8 86.7028 23.8C86.7028 23.8 86.7428 23.8 86.8228 23.8C86.9161 23.8 86.9628 23.8 86.9628 23.8V24H85.3628V22.54ZM96.2658 12V19.56C96.2658 20.8533 96.5924 21.8733 97.2458 22.62C97.9124 23.3667 98.8191 23.74 99.9658 23.74C101.232 23.74 102.226 23.3867 102.946 22.68C103.679 21.9733 104.046 21.0067 104.046 19.78V12H104.966V19.78C104.966 21.1667 104.519 22.2667 103.626 23.08C102.746 23.88 101.532 24.28 99.9858 24.28C98.4524 24.28 97.2324 23.88 96.3258 23.08C95.4324 22.28 94.9858 21.1867 94.9858 19.8V12H96.2658ZM95.0258 12V13.06H94.9858C94.9724 12.82 94.8724 12.62 94.6858 12.46C94.5124 12.2867 94.2924 12.2 94.0258 12.2C94.0258 12.2 93.9724 12.2 93.8658 12.2C93.7724 12.2 93.7258 12.2 93.7258 12.2V12H95.0258ZM97.5258 12V12.2C97.5258 12.2 97.4724 12.2 97.3658 12.2C97.2724 12.2 97.2258 12.2 97.2258 12.2C96.9724 12.2 96.7458 12.2867 96.5458 12.46C96.3591 12.62 96.2658 12.82 96.2658 13.06H96.2258V12H97.5258ZM104.086 12V13.06H104.046C104.046 12.82 103.952 12.62 103.766 12.46C103.579 12.2867 103.352 12.2 103.086 12.2C103.086 12.2 103.032 12.2 102.926 12.2C102.832 12.2 102.786 12.2 102.786 12.2V12H104.086ZM106.226 12V12.2C106.226 12.2 106.172 12.2 106.066 12.2C105.972 12.2 105.926 12.2 105.926 12.2C105.672 12.2 105.452 12.2867 105.266 12.46C105.079 12.62 104.979 12.82 104.966 13.06H104.926V12H106.226ZM110.75 12V24H109.47V12H110.75ZM116.13 23.38L116.09 24H110.71V23.38H116.13ZM117.25 21.14L116.15 24H113.11L113.79 23.38C114.456 23.38 114.99 23.2867 115.39 23.1C115.803 22.9 116.136 22.6333 116.39 22.3C116.643 21.9533 116.863 21.5667 117.05 21.14H117.25ZM109.51 22.72L109.77 24H108.03V23.8C108.03 23.8 108.076 23.8 108.17 23.8C108.263 23.8 108.31 23.8 108.31 23.8C108.643 23.8 108.916 23.6933 109.13 23.48C109.343 23.2667 109.456 23.0133 109.47 22.72H109.51ZM110.69 13.28V12H112.17V12.2C112.17 12.2 112.13 12.2 112.05 12.2C111.97 12.2 111.93 12.2 111.93 12.2C111.61 12.2 111.33 12.3067 111.09 12.52C110.863 12.72 110.75 12.9733 110.75 13.28H110.69ZM109.51 13.28H109.47C109.456 12.9733 109.336 12.72 109.11 12.52C108.883 12.3067 108.603 12.2 108.27 12.2C108.27 12.2 108.23 12.2 108.15 12.2C108.07 12.2 108.03 12.2 108.03 12.2V12H109.51V13.28ZM122.332 11.72C122.706 11.72 123.032 11.7333 123.312 11.76C123.592 11.7867 123.832 11.82 124.032 11.86C124.246 11.8867 124.426 11.9267 124.572 11.98C124.732 12.02 124.872 12.06 124.992 12.1L125.012 14.08H124.772C124.772 13.5333 124.586 13.1067 124.212 12.8C123.839 12.48 123.259 12.32 122.472 12.32C121.806 12.32 121.232 12.5067 120.752 12.88C120.286 13.24 120.059 13.6867 120.072 14.22C120.072 14.3933 120.092 14.5733 120.132 14.76C120.186 14.9333 120.266 15.1067 120.372 15.28C120.492 15.4533 120.652 15.6267 120.852 15.8L124.892 18.92C125.199 19.1733 125.426 19.5 125.572 19.9C125.719 20.2867 125.799 20.6733 125.812 21.06C125.826 21.6467 125.672 22.1867 125.352 22.68C125.032 23.1733 124.599 23.5667 124.052 23.86C123.519 24.14 122.926 24.28 122.272 24.28C121.886 24.28 121.466 24.2467 121.012 24.18C120.572 24.1133 120.159 24.0133 119.772 23.88C119.386 23.7333 119.066 23.5533 118.812 23.34C118.772 23.1533 118.752 22.92 118.752 22.64C118.752 22.3467 118.772 22.04 118.812 21.72C118.866 21.4 118.932 21.1133 119.012 20.86H119.252C119.199 21.46 119.286 21.9733 119.512 22.4C119.739 22.8267 120.072 23.1533 120.512 23.38C120.952 23.5933 121.466 23.6933 122.052 23.68C122.879 23.6533 123.526 23.4467 123.992 23.06C124.472 22.66 124.712 22.1333 124.712 21.48C124.712 21.16 124.652 20.8733 124.532 20.62C124.426 20.3533 124.246 20.1067 123.992 19.88L119.992 16.8C119.619 16.48 119.366 16.1267 119.232 15.74C119.099 15.3533 119.032 14.9867 119.032 14.64C119.032 14.0933 119.179 13.6 119.472 13.16C119.766 12.72 120.159 12.3733 120.652 12.12C121.159 11.8533 121.719 11.72 122.332 11.72ZM124.972 11.9L124.992 12.26H123.572V11.9H124.972ZM130.711 12V24H129.431V12H130.711ZM136.091 23.38L136.051 24H130.671V23.38H136.091ZM135.151 17.7V18.3H130.671V17.7H135.151ZM136.071 12V12.62H130.671V12H136.071ZM137.211 21.14L136.111 24H133.071L133.751 23.38C134.417 23.38 134.951 23.2867 135.351 23.1C135.764 22.9 136.097 22.6333 136.351 22.3C136.604 21.9533 136.824 21.5667 137.011 21.14H137.211ZM135.151 18.26V19.4H134.931V19.14C134.931 18.9133 134.864 18.72 134.731 18.56C134.597 18.3867 134.391 18.3 134.111 18.3V18.26H135.151ZM135.151 16.6V17.74H134.111V17.7C134.391 17.7 134.597 17.62 134.731 17.46C134.864 17.2867 134.931 17.0867 134.931 16.86V16.6H135.151ZM136.071 12.56V13.94H135.851V13.64C135.851 13.36 135.757 13.12 135.571 12.92C135.397 12.72 135.157 12.62 134.851 12.62V12.56H136.071ZM136.071 11.68V12.2L133.791 12C134.204 12 134.644 11.9667 135.111 11.9C135.577 11.82 135.897 11.7467 136.071 11.68ZM129.471 22.72L129.731 24H127.991V23.8C127.991 23.8 128.037 23.8 128.131 23.8C128.224 23.8 128.271 23.8 128.271 23.8C128.604 23.8 128.877 23.6933 129.091 23.48C129.304 23.2667 129.417 23.0133 129.431 22.72H129.471ZM129.471 13.26H129.431C129.417 12.9533 129.304 12.7 129.091 12.5C128.877 12.3 128.604 12.2 128.271 12.2C128.271 12.2 128.224 12.2 128.131 12.2C128.037 12.2 127.991 12.2 127.991 12.2V12H129.731L129.471 13.26Z" fill="white"/>
<path d="M134 29.1609C134 29.1609 133.404 26.5389 129.336 29.176C129.336 29.176 133.171 31.8401 134 29.1609ZM133.065 29.1757C133.065 29.2451 132.996 29.3016 132.91 29.3021C132.825 29.3023 132.755 29.2463 132.755 29.1769C132.754 29.1075 132.824 29.0511 132.909 29.0506C132.995 29.0501 133.065 29.1061 133.065 29.1757ZM130.345 29.181C130.345 29.181 130.607 28.3917 132.473 29.1741C132.473 29.1741 130.733 29.9839 130.345 29.181Z" fill="white"/>
<path d="M129.035 29.5364C128.798 29.5371 128.605 29.3823 128.604 29.1904C128.604 28.9985 128.795 28.8425 129.031 28.8418C129.268 28.8411 129.461 28.9959 129.462 29.1878C129.463 29.3794 129.271 29.5357 129.035 29.5364Z" fill="white"/>
<path d="M125.741 29.5461C125.504 29.5469 125.312 29.3921 125.311 29.2002C125.31 29.0083 125.501 28.8523 125.738 28.8516C125.975 28.8508 126.167 29.0057 126.168 29.1975C126.169 29.3894 125.978 29.5454 125.741 29.5461Z" fill="white"/>
<path d="M127.386 30.1148C127.386 30.1148 128.853 29.1946 128.84 29.1898C128.852 29.1848 127.377 28.2744 127.377 28.2744C127.206 28.5754 125.915 29.1982 125.917 29.1994C125.896 29.2092 127.212 29.815 127.386 30.1148Z" fill="white"/>
<path d="M89.1373 29.1848C86.4882 27.4674 86.1001 29.175 86.1001 29.175C86.6396 30.9196 89.1373 29.1848 89.1373 29.1848ZM86.8104 29.103C86.8662 29.1032 86.9113 29.14 86.911 29.1853C86.9107 29.2305 86.8653 29.2671 86.8095 29.2668C86.7538 29.2666 86.7086 29.2298 86.7089 29.1845C86.7092 29.1393 86.7546 29.1027 86.8104 29.103ZM87.0941 29.1836C88.3098 28.674 88.4805 29.1881 88.4805 29.1881C88.2275 29.7109 87.0941 29.1836 87.0941 29.1836Z" fill="white"/>
<path d="M89.3336 29.419C89.4877 29.4195 89.6133 29.3187 89.6139 29.1938C89.6145 29.069 89.49 28.9673 89.3359 28.9668C89.1819 28.9663 89.0562 29.067 89.0557 29.1919C89.0551 29.3168 89.1796 29.4185 89.3336 29.419Z" fill="white"/>
<path d="M125.74 29.0771H89.6138V29.3229H125.74V29.0771Z" fill="white"/>
<path d="M69.594 41.0294C69.594 41.0294 69.5646 41.0158 69.5072 40.989C69.4775 40.977 69.4448 40.9567 69.4057 40.933C69.3649 40.9112 69.3246 40.8787 69.2781 40.8435C69.1892 40.7694 69.0924 40.6665 69.0165 40.5289C68.94 40.3918 68.8842 40.2224 68.8578 40.0282C68.8046 39.6391 68.8693 39.1537 69.0541 38.6175C69.1481 38.3498 69.2703 38.0677 69.4356 37.7841C69.5187 37.6425 69.6109 37.5009 69.7213 37.3643C69.8343 37.2221 69.9501 37.0762 70.0691 36.9266C70.5443 36.3314 71.0723 35.6844 71.7297 35.0569C72.0592 34.7444 72.4219 34.4379 72.8281 34.1572C73.0322 34.0182 73.2466 33.8852 73.4723 33.762C73.6997 33.6409 73.938 33.5304 74.1875 33.4337C74.4364 33.3361 74.6997 33.2598 74.9699 33.1983C75.1047 33.166 75.2436 33.1447 75.3821 33.1213C75.5224 33.1045 75.6621 33.0858 75.8104 33.078C76.3948 33.0306 76.9968 33.0311 77.5823 33.1179C77.8761 33.1576 78.1612 33.2287 78.4312 33.322C78.7028 33.4134 78.95 33.5438 79.155 33.701C79.3593 33.8586 79.5151 34.0508 79.5873 34.2587C79.6632 34.4664 79.635 34.6874 79.5287 34.8865C79.5111 34.9207 79.4944 34.9552 79.4669 34.986C79.4416 35.0176 79.42 35.0509 79.3935 35.0817C79.332 35.1399 79.2791 35.2026 79.2044 35.253C79.0705 35.3641 78.8988 35.4471 78.7272 35.5265C78.3696 35.672 77.9661 35.7545 77.5573 35.794C77.1465 35.8299 76.7306 35.8232 76.3198 35.7974C75.924 35.7655 75.5302 35.6854 75.1484 35.582C74.3841 35.3724 73.6658 35.0796 72.9871 34.7757C72.3084 34.4695 71.6671 34.1472 71.058 33.8295C69.8403 33.1926 68.7468 32.5772 67.7735 32.0434C66.8014 31.5079 65.9519 31.0505 65.25 30.6909C64.5727 30.3018 63.7337 29.8298 62.7155 29.3429C62.2056 29.1008 61.6485 28.8577 61.037 28.634C60.4236 28.4153 59.7533 28.2112 59.0076 28.1074C58.6357 28.0559 58.2442 28.0311 57.842 28.0571C57.4407 28.0827 57.0288 28.1626 56.6433 28.3115C56.5456 28.3459 56.4553 28.3935 56.3605 28.4347C56.2696 28.4806 56.1817 28.5316 56.0926 28.5813C56.0089 28.6378 55.9253 28.6892 55.841 28.7515C55.7565 28.8163 55.6746 28.8869 55.6056 28.9689C55.4625 29.1285 55.369 29.3314 55.3489 29.536C55.3271 29.742 55.3765 29.9432 55.459 30.1258C55.6315 30.4901 55.9247 30.7883 56.257 31.0443C56.5922 31.2967 56.9779 31.517 57.4033 31.6709C57.61 31.7594 57.8311 31.8173 58.0493 31.8843C58.1594 31.9147 58.2723 31.9367 58.3844 31.9633L58.5532 32.0013C58.6098 32.013 58.667 32.0207 58.7239 32.0307C58.838 32.0494 58.9524 32.068 59.0671 32.0867C59.1824 32.0996 59.298 32.1123 59.4138 32.1252L59.5877 32.1441L59.7622 32.1554C59.8786 32.1626 59.9953 32.17 60.1123 32.1774C61.4898 32.231 62.8127 32.0879 64.0648 31.9092C64.3781 31.8642 64.6874 31.8154 64.9921 31.7654C65.0692 31.7527 65.1459 31.7398 65.2227 31.7271C65.3046 31.713 65.3839 31.6965 65.4621 31.6792C65.6176 31.6436 65.7694 31.6048 65.9163 31.562C66.505 31.3919 67.0503 31.1914 67.5804 30.9931C68.637 30.5933 69.6201 30.1915 70.5492 29.8317C71.4771 29.4709 72.3478 29.1472 73.1564 28.8814C73.9644 28.6146 74.7115 28.4064 75.3816 28.2698C76.0513 28.1342 76.6464 28.0739 77.1307 28.0935C77.6156 28.1112 77.9822 28.2112 78.2046 28.3139C78.2618 28.3375 78.3093 28.3624 78.3495 28.3851C78.3909 28.4062 78.424 28.4261 78.449 28.4435C78.5007 28.477 78.5272 28.4943 78.5272 28.4943C78.5272 28.4943 78.5022 28.4756 78.4533 28.4395C78.4294 28.4206 78.3981 28.399 78.3581 28.3756C78.3193 28.3507 78.2733 28.323 78.2176 28.2962C78.0008 28.1806 77.6335 28.0593 77.1379 28.0179C76.6429 27.9748 76.0303 28.0098 75.3402 28.1198C74.6497 28.2308 73.8799 28.4131 73.0492 28.6543C72.2178 28.8945 71.3247 29.1931 70.3776 29.5298C69.4301 29.8654 68.4295 30.2442 67.372 30.6193C66.843 30.8048 66.2989 30.9928 65.7392 31.1447C65.5995 31.183 65.459 31.2163 65.3187 31.2464C65.2485 31.2608 65.1787 31.2742 65.1094 31.2852L64.8849 31.3194C64.5814 31.3651 64.2755 31.4099 63.9665 31.4508C62.733 31.6139 61.4447 31.7431 60.1428 31.6919C60.0327 31.685 59.9232 31.6781 59.8137 31.6714L59.6495 31.6611L59.4877 31.6436C59.3799 31.6319 59.2724 31.6202 59.1649 31.6087C59.0594 31.5917 58.9539 31.5747 58.8487 31.558C58.7964 31.5491 58.7432 31.5424 58.6914 31.5319L58.5379 31.4977C58.4362 31.474 58.3324 31.4548 58.2329 31.4278C58.0372 31.3682 57.8365 31.3182 57.6543 31.2407C57.2763 31.1084 56.9417 30.9201 56.6462 30.704C56.355 30.4873 56.1081 30.2344 55.9756 29.9662C55.9123 29.8324 55.8781 29.6968 55.889 29.569C55.8997 29.4415 55.9491 29.3207 56.0411 29.2128C56.0845 29.158 56.1409 29.1075 56.2006 29.0591C56.2639 29.0103 56.3389 28.962 56.4067 28.9132C56.4809 28.8701 56.5539 28.8256 56.6292 28.7852C56.7083 28.7498 56.7824 28.7072 56.8641 28.6768C57.5074 28.4108 58.2499 28.3792 58.9392 28.4589C59.6334 28.5368 60.2874 28.7132 60.8925 28.9077C61.497 29.107 62.0564 29.3276 62.5723 29.5489C63.6034 29.9939 64.4675 30.4301 65.1678 30.7885C65.8433 31.1773 66.6617 31.6668 67.6034 32.2355C68.5468 32.8028 69.6106 33.4521 70.8131 34.1254C71.4147 34.4616 72.052 34.8025 72.7361 35.1294C73.4214 35.4538 74.1527 35.7696 74.9668 36.0062C75.3741 36.1225 75.8044 36.2177 76.2615 36.2594C76.7044 36.2921 77.1583 36.3044 77.6205 36.267C78.0816 36.2256 78.5522 36.1359 78.9966 35.9572C79.2139 35.8596 79.4318 35.7536 79.6169 35.6038C79.7152 35.5356 79.7951 35.4488 79.8785 35.366C79.917 35.3219 79.9501 35.2743 79.9857 35.2282C80.0231 35.1829 80.0501 35.1325 80.0768 35.0815C80.2381 34.7858 80.2763 34.4374 80.1628 34.13C80.055 33.8209 79.8302 33.5567 79.5626 33.3529C79.2935 33.1488 78.9839 32.9933 78.6623 32.887C78.3415 32.7786 78.0115 32.7016 77.682 32.66C77.0229 32.5698 76.3721 32.5796 75.7509 32.6394C75.5963 32.6502 75.4382 32.6731 75.2818 32.6949C75.1272 32.7231 74.9728 32.7502 74.8233 32.7885C74.5238 32.8619 74.2346 32.9528 73.9644 33.065C73.6936 33.1763 73.4381 33.3024 73.1972 33.4383C72.9583 33.5763 72.7344 33.7235 72.5234 33.8761C72.1037 34.1836 71.7387 34.5133 71.4118 34.8454C70.7605 35.5122 70.2577 36.1852 69.8121 36.7989C69.7015 36.9525 69.5937 37.1023 69.4885 37.2485C69.3784 37.399 69.2893 37.553 69.2114 37.7038C69.0561 38.0057 68.9484 38.3005 68.8687 38.5794C68.7135 39.1376 68.6804 39.6389 68.7635 40.0384C68.8049 40.2377 68.8756 40.4107 68.9653 40.5485C69.0544 40.6868 69.1625 40.7878 69.2588 40.8586C69.3094 40.8924 69.3525 40.923 69.3956 40.9428C69.437 40.9646 69.4715 40.983 69.5023 40.9935C69.5635 41.0175 69.594 41.0294 69.594 41.0294Z" fill="white"/>
<path d="M69.6041 41.0302C69.6041 41.0302 69.6346 41.0182 69.6943 40.9945C69.7251 40.984 69.7596 40.9656 69.801 40.9438C69.8441 40.9239 69.8875 40.8933 69.9378 40.8596C70.0341 40.7888 70.1422 40.6878 70.2313 40.5495C70.321 40.4117 70.3917 40.239 70.4331 40.0394C70.5165 39.6399 70.4834 39.1386 70.3279 38.5804C70.2483 38.3014 70.1405 38.0067 69.9855 37.7047C69.9076 37.5543 69.8182 37.4002 69.7084 37.2494C69.6032 37.1032 69.4951 36.9535 69.3848 36.7999C68.9392 36.1862 68.4364 35.5129 67.7851 34.8463C67.4582 34.514 67.0932 34.1846 66.6735 33.8771C66.4625 33.7245 66.2386 33.5773 65.9997 33.4393C65.7591 33.3034 65.5036 33.1773 65.2325 33.066C64.9623 32.9538 64.6728 32.8629 64.3736 32.7894C64.2241 32.7509 64.07 32.7241 63.9151 32.6959C63.7587 32.6741 63.6006 32.6509 63.446 32.6404C62.8248 32.5808 62.174 32.5708 61.5148 32.661C61.1854 32.7026 60.8554 32.7796 60.5346 32.888C60.213 32.9942 59.9037 33.1498 59.6343 33.3538C59.3667 33.5579 59.1419 33.8218 59.0341 34.131C58.9206 34.4384 58.9585 34.7868 59.1201 35.0825C59.1465 35.1334 59.1735 35.1839 59.2112 35.2292C59.2466 35.2753 59.2799 35.3229 59.3184 35.367C59.4018 35.4497 59.4817 35.5366 59.58 35.6048C59.7651 35.7543 59.9827 35.8606 60.2003 35.9582C60.6447 36.1369 61.1153 36.2269 61.5764 36.268C62.0386 36.3053 62.4928 36.2931 62.9354 36.2604C63.3925 36.2187 63.8228 36.1235 64.2304 36.0072C65.0445 35.7708 65.7758 35.455 66.4611 35.1303C67.1452 34.8033 67.7825 34.4623 68.3838 34.1264C69.586 33.4531 70.6501 32.8038 71.5935 32.2365C72.5355 31.6678 73.3536 31.178 74.0291 30.7895C74.7294 30.4313 75.5935 29.9949 76.6246 29.5499C77.1405 29.3286 77.6999 29.108 78.3044 28.9087C78.9095 28.7142 79.5635 28.5381 80.2577 28.4598C80.947 28.3802 81.6895 28.412 82.3328 28.6778C82.4144 28.7082 82.4886 28.7505 82.5677 28.7862C82.6433 28.8266 82.716 28.8711 82.7901 28.9142C82.858 28.963 82.933 29.0113 82.9963 29.0601C83.056 29.1085 83.1124 29.1587 83.1558 29.2137C83.2481 29.3216 83.2975 29.4425 83.3081 29.57C83.3191 29.6977 83.2849 29.8334 83.2216 29.9671C83.0891 30.2354 82.8422 30.4885 82.551 30.705C82.2552 30.9211 81.9209 31.1094 81.5426 31.2417C81.3604 31.3192 81.1597 31.369 80.964 31.4288C80.8645 31.4558 80.7607 31.4749 80.6593 31.4986L80.5058 31.5329C80.4543 31.5434 80.4011 31.5501 80.3485 31.5589C80.2433 31.5757 80.1381 31.5927 80.0323 31.6096C79.9251 31.6214 79.8176 31.6329 79.7095 31.6446L79.5477 31.6621L79.3835 31.6723C79.274 31.6793 79.1645 31.686 79.0544 31.6929C77.7525 31.7439 76.4642 31.6149 75.2307 31.4517C74.9217 31.4108 74.6158 31.3663 74.3123 31.3204L74.0878 31.2862C74.0185 31.2752 73.9487 31.2618 73.8785 31.2474C73.7382 31.2173 73.5977 31.1838 73.458 31.1457C72.8986 30.9938 72.3541 30.8058 71.8252 30.6203C70.7677 30.2452 69.7671 29.8664 68.8196 29.5307C67.8725 29.1941 66.9796 28.8955 66.148 28.6553C65.3176 28.4139 64.5475 28.2318 63.8573 28.1208C63.1671 28.0107 62.5546 27.9758 62.0596 28.0189C61.5637 28.06 61.1966 28.1816 60.9799 28.2971C60.9238 28.3242 60.8779 28.3517 60.8393 28.3766C60.7994 28.4 60.7678 28.4215 60.7442 28.4404C60.6953 28.4768 60.6703 28.4952 60.6703 28.4952C60.6703 28.4952 60.6968 28.478 60.7485 28.4445C60.7735 28.4271 60.8066 28.4072 60.848 28.3861C60.8882 28.3636 60.9356 28.3385 60.9928 28.3148C61.2153 28.2122 61.5818 28.1122 62.0668 28.0945C62.5514 28.0751 63.1461 28.1352 63.8159 28.2708C64.4863 28.4074 65.2331 28.6153 66.0411 28.8824C66.85 29.1482 67.7204 29.4719 68.6483 29.8327C69.5773 30.1928 70.5607 30.5942 71.6171 30.994C72.1469 31.1921 72.6925 31.3929 73.2812 31.563C73.4284 31.6056 73.5798 31.6446 73.7354 31.6802C73.8135 31.6975 73.8929 31.714 73.9748 31.7281C74.0513 31.7408 74.1283 31.7537 74.2053 31.7664C74.51 31.8164 74.8194 31.8652 75.1327 31.9102C76.3845 32.0889 77.7077 32.2317 79.0852 32.1784C79.2022 32.171 79.3189 32.1638 79.4353 32.1564L79.6098 32.1451L79.7837 32.1262C79.8995 32.1133 80.0151 32.1004 80.1303 32.0877C80.245 32.069 80.3594 32.0504 80.4736 32.0317C80.5305 32.0219 80.5877 32.0142 80.6443 32.0023L80.813 31.9642C80.9249 31.9377 81.0378 31.9159 81.1482 31.8853C81.3667 31.8183 81.5877 31.7604 81.7944 31.6719C82.2198 31.518 82.6056 31.2977 82.9408 31.0453C83.2731 30.7895 83.5663 30.4911 83.7387 30.1267C83.8212 29.9442 83.8707 29.743 83.8488 29.537C83.8287 29.3324 83.7353 29.1295 83.5921 28.9699C83.5232 28.8879 83.4412 28.8173 83.3567 28.7524C83.2725 28.6902 83.1888 28.6388 83.1055 28.5823C83.0164 28.5326 82.9284 28.4816 82.8376 28.4357C82.7427 28.3945 82.6527 28.3471 82.5547 28.3125C82.1695 28.1636 81.7573 28.0837 81.356 28.0581C80.9539 28.032 80.5624 28.0569 80.1904 28.1084C79.4445 28.2122 78.7744 28.416 78.161 28.635C77.5493 28.8587 76.9925 29.1018 76.4826 29.3439C75.4641 29.8305 74.6253 30.3026 73.9481 30.6919C73.2464 31.0515 72.3967 31.5089 71.4245 32.0444C70.4515 32.5782 69.3577 33.1935 68.1401 33.8304C67.531 34.1484 66.8897 34.4705 66.211 34.7767C65.532 35.0806 64.8137 35.3732 64.0496 35.583C63.6679 35.6864 63.2744 35.7665 62.8782 35.7983C62.4675 35.8239 62.0515 35.8309 61.6408 35.795C61.232 35.7555 60.8284 35.673 60.4708 35.5275C60.2992 35.4483 60.1276 35.365 59.9936 35.254C59.9189 35.2036 59.8657 35.1409 59.8045 35.0827C59.7778 35.0519 59.7562 35.0186 59.7309 34.987C59.7036 34.9562 59.6866 34.9217 59.6694 34.8875C59.5628 34.6887 59.5346 34.4674 59.6108 34.2597C59.6826 34.0518 59.8387 33.8596 60.0431 33.702C60.2483 33.5445 60.4953 33.4144 60.7669 33.323C61.0368 33.2297 61.322 33.1586 61.6157 33.1189C62.2013 33.032 62.8032 33.0316 63.3876 33.0789C63.5359 33.0868 63.6756 33.1055 63.8159 33.1222C63.9548 33.1457 64.0933 33.167 64.2281 33.1993C64.4983 33.2608 64.7616 33.3371 65.0106 33.4347C65.2601 33.5311 65.4987 33.6419 65.7258 33.763C65.9514 33.8862 66.1658 34.019 66.3699 34.1582C66.7764 34.4389 67.1389 34.7451 67.4686 35.0578C68.126 35.6854 68.654 36.3324 69.1292 36.9276C69.2479 37.0772 69.3638 37.2229 69.477 37.3652C69.5874 37.5021 69.6797 37.6435 69.7628 37.7851C69.928 38.0687 70.0502 38.351 70.1442 38.6185C70.329 39.1546 70.3937 39.6401 70.3405 40.0291C70.3141 40.2234 70.2583 40.3928 70.1819 40.5299C70.106 40.6675 70.0091 40.7704 69.9203 40.8445C69.8737 40.8797 69.8335 40.9122 69.7926 40.934C69.7536 40.9577 69.7208 40.9778 69.6912 40.99C69.6334 41.0166 69.6041 41.0302 69.6041 41.0302Z" fill="white"/>
<path d="M69.6806 40.3584C67.828 42.1512 69.6131 42.4507 69.6131 42.4507C71.4545 42.1117 69.6806 40.3584 69.6806 40.3584ZM69.551 41.9597C69.5521 41.9212 69.5918 41.8908 69.6392 41.892C69.6867 41.8932 69.724 41.9251 69.7229 41.9636C69.7217 42.0021 69.6821 42.0325 69.6347 42.0313C69.5872 42.0303 69.5496 41.9983 69.551 41.9597ZM69.6407 41.766C69.1287 40.919 69.6714 40.8111 69.6714 40.8111C70.2156 40.9951 69.6407 41.766 69.6407 41.766Z" fill="white"/>
<path d="M69.9307 40.2277C69.9342 40.1215 69.8307 40.0332 69.6996 40.0303C69.5685 40.0275 69.4596 40.1115 69.4561 40.2177C69.4527 40.3239 69.5562 40.4122 69.6872 40.4151C69.818 40.4177 69.9273 40.3337 69.9307 40.2277Z" fill="white"/>
<path d="M9.66422 29.1761C5.59618 26.5387 5 29.161 5 29.161C5.82902 31.84 9.66422 29.1761 9.66422 29.1761ZM6.09117 29.0502C6.17683 29.0505 6.24611 29.1069 6.24582 29.1765C6.24554 29.2459 6.17569 29.3021 6.09002 29.3017C6.00436 29.3014 5.93509 29.245 5.93537 29.1754C5.93566 29.106 6.00551 29.05 6.09117 29.0502ZM6.52695 29.1739C8.39339 28.3915 8.65583 29.1808 8.65583 29.1808C8.26748 29.9838 6.52695 29.1739 6.52695 29.1739Z" fill="white"/>
<path d="M9.96545 29.5364C10.2023 29.5371 10.3949 29.3823 10.3958 29.1904C10.3966 28.9985 10.2055 28.8425 9.9689 28.8418C9.73203 28.8411 9.53944 28.9959 9.53858 29.1878C9.53771 29.3794 9.72858 29.5357 9.96545 29.5364Z" fill="white"/>
<path d="M13.2584 29.5461C13.4953 29.5469 13.6879 29.3921 13.6887 29.2002C13.6896 29.0083 13.4984 28.8523 13.2619 28.8516C13.0253 28.8508 12.8324 29.0057 12.8315 29.1975C12.8307 29.3894 13.0218 29.5454 13.2584 29.5461Z" fill="white"/>
<path d="M11.6139 30.1148C11.6139 30.1148 10.1473 29.1946 10.1602 29.1898C10.1473 29.1848 11.6231 28.2744 11.6231 28.2744C11.7938 28.5754 13.0854 29.1982 13.0828 29.1994C13.1038 29.2092 11.7875 29.815 11.6139 30.1148Z" fill="white"/>
<path d="M52.9 29.175C52.9 29.175 52.512 27.4674 49.8628 29.1848C49.8628 29.1848 52.3602 30.9196 52.9 29.175ZM52.2912 29.1845C52.2915 29.2298 52.2464 29.2666 52.1906 29.2668C52.1348 29.2671 52.0894 29.2305 52.0891 29.1853C52.0888 29.14 52.134 29.1032 52.1897 29.103C52.2455 29.1027 52.2909 29.1393 52.2912 29.1845ZM50.5196 29.1881C50.5196 29.1881 50.6904 28.6742 51.906 29.1836C51.906 29.1836 50.7726 29.7109 50.5196 29.1881Z" fill="white"/>
<path d="M49.667 29.418C49.5129 29.4185 49.3873 29.3178 49.3867 29.1929C49.3861 29.068 49.5106 28.9663 49.6647 28.9658C49.8188 28.9653 49.9444 29.0661 49.945 29.191C49.9455 29.3159 49.8211 29.4175 49.667 29.418Z" fill="white"/>
<path d="M49.3863 29.0771H13.2603V29.3229H49.3863V29.0771Z" fill="white"/>
<path d="M94.0475 4.60078C94.0475 4.60078 94.0134 4.57141 93.9486 4.51574C93.8828 4.46049 93.7896 4.37463 93.6527 4.28056C93.3871 4.0846 92.9678 3.8264 92.3903 3.60313C92.318 3.57561 92.2444 3.54625 92.1681 3.51872C92.0908 3.49346 92.0118 3.46778 91.9309 3.44148C91.8905 3.42854 91.8494 3.4154 91.8083 3.40226C91.7663 3.39075 91.7241 3.37925 91.6814 3.36754C91.5958 3.34454 91.5089 3.31989 91.4196 3.2975C91.0615 3.21205 90.6726 3.14016 90.2593 3.0884C89.8458 3.04013 89.409 3.00994 88.956 3.00172C88.5032 2.99433 88.0346 3.01096 87.5574 3.04773C86.2595 3.15043 85.0716 3.39835 84.0883 3.67893C83.5962 3.81942 83.1545 3.96896 82.7719 4.11459C82.3889 4.25981 82.0666 4.404 81.8081 4.52149C81.2563 4.69176 80.4601 4.95735 79.505 5.27224C79.0264 5.4267 78.5091 5.59615 77.9573 5.75718C77.4056 5.91822 76.8214 6.07556 76.2114 6.21174C75.3135 6.40851 74.444 6.53525 73.6443 6.58804C72.862 6.65356 72.1504 6.53402 71.5562 6.4116C71.259 6.34957 70.9912 6.28342 70.7552 6.22468C70.5194 6.16614 70.3155 6.11458 70.1479 6.07535C69.9804 6.03571 69.8491 6.00798 69.7599 5.99134C69.6705 5.97512 69.6235 5.9667 69.6235 5.9667C69.6235 5.9667 69.6683 5.98189 69.7532 6.01065C69.8381 6.03961 69.9618 6.08418 70.1204 6.14437C70.2791 6.20455 70.4731 6.27829 70.6985 6.36395C70.9248 6.44857 71.1845 6.54326 71.4792 6.63508C71.7737 6.72689 72.1034 6.81726 72.4695 6.88464C72.5612 6.90107 72.6543 6.91874 72.7509 6.92983C72.8469 6.94298 72.9447 6.95633 73.0454 6.9629C73.0958 6.96701 73.1464 6.97112 73.1974 6.97523C73.2484 6.97851 73.3004 6.97872 73.3525 6.98057C73.4047 6.9818 73.4573 6.98323 73.5102 6.98447C73.5614 6.98323 73.6132 6.9822 73.6651 6.98097C74.4975 6.9709 75.4131 6.86779 76.3433 6.66363C76.9747 6.52272 77.5716 6.34751 78.126 6.16183C78.6807 5.97594 79.1909 5.77527 79.6577 5.58671C80.5879 5.20363 81.3401 4.85856 81.8598 4.62501C82.1355 4.53875 82.4707 4.43255 82.8627 4.32677C83.2548 4.22037 83.7026 4.1111 84.1958 4.00717C85.1818 3.79992 86.3496 3.61135 87.6053 3.51214C88.0671 3.47661 88.5186 3.45341 88.9547 3.44807C89.3905 3.44355 89.8106 3.45464 90.2098 3.4797C90.6084 3.50825 90.9849 3.5522 91.335 3.60807C91.4221 3.62307 91.507 3.64011 91.5911 3.65551C91.6331 3.66332 91.6746 3.67113 91.7159 3.67873C91.7566 3.68797 91.7968 3.69721 91.8368 3.70625C91.9167 3.72453 91.9951 3.7426 92.0716 3.76027C92.1475 3.77999 92.2207 3.80155 92.2932 3.82127C92.8711 3.98231 93.3124 4.18237 93.6033 4.34053C93.7525 4.4155 93.8585 4.48678 93.9332 4.53197C94.0082 4.57674 94.0475 4.60078 94.0475 4.60078Z" fill="white"/>
<path d="M93.902 4.31189C93.902 4.31189 93.8588 4.29484 93.7764 4.26218C93.6935 4.23055 93.5727 4.18023 93.413 4.12292C93.0919 4.01468 92.6186 3.86452 92.0059 3.76017C91.3945 3.65501 90.6445 3.60222 89.8168 3.65132C89.4042 3.6813 88.9715 3.72834 88.5309 3.80721C88.0908 3.8865 87.6398 3.98673 87.1874 4.11161C86.5722 4.28045 85.9925 4.47703 85.4521 4.67668C84.9117 4.87654 84.4101 5.07947 83.9503 5.26967C83.032 5.65192 82.278 5.97708 81.7538 6.19255C81.4778 6.26916 81.138 6.35995 80.7461 6.4608C80.352 6.56001 79.9105 6.66086 79.4148 6.77157C78.9227 6.88372 78.3925 7.00963 77.8315 7.13C77.2707 7.25016 76.6788 7.36456 76.065 7.44405C75.163 7.56216 74.2947 7.58065 73.5313 7.45495C73.4837 7.44694 73.4365 7.43893 73.3895 7.43091C73.343 7.42126 73.2967 7.41181 73.2509 7.40216C73.1583 7.3849 73.07 7.35923 72.9812 7.33828C72.8947 7.31404 72.8057 7.28877 72.7258 7.2631C72.6472 7.23824 72.5711 7.20579 72.4963 7.17272C72.198 7.0351 71.9338 6.85743 71.6869 6.69968C71.4406 6.54029 71.2098 6.39692 70.9923 6.28991C70.7757 6.18166 70.5722 6.11162 70.401 6.07588C70.2298 6.03891 70.093 6.0348 70.002 6.03808C69.9564 6.03788 69.9218 6.04302 69.8988 6.04425C69.8757 6.04631 69.8638 6.04712 69.8638 6.04712C69.8638 6.04712 69.8757 6.04794 69.8988 6.04938C69.9218 6.05164 69.9561 6.05123 70.0006 6.058C70.0894 6.06725 70.2199 6.08963 70.3753 6.1453C70.5309 6.19973 70.7095 6.28786 70.899 6.41336C71.0896 6.53763 71.2911 6.69783 71.5155 6.8792C71.7418 7.05913 71.9884 7.26515 72.3112 7.44775C72.3929 7.49212 72.4778 7.5365 72.5713 7.57408C72.6628 7.61106 72.7515 7.64288 72.845 7.67616C72.9392 7.70533 73.0338 7.73902 73.1327 7.76408C73.182 7.77743 73.2317 7.79078 73.2816 7.80413C73.3322 7.81564 73.383 7.82714 73.434 7.83885C73.5361 7.86329 73.6413 7.87951 73.7472 7.89944C73.8538 7.91443 73.9613 7.93292 74.0711 7.94319C74.2899 7.96928 74.5146 7.98159 74.7427 7.98693C75.1994 7.99617 75.67 7.96537 76.1436 7.90498C76.7877 7.82159 77.3954 7.68952 77.9604 7.54533C78.5259 7.40072 79.0497 7.24379 79.5296 7.09775C79.7692 7.02483 79.9982 6.955 80.2179 6.88372C80.2725 6.86606 80.3265 6.84881 80.3798 6.83176C80.4324 6.81348 80.4844 6.7956 80.5356 6.77794C80.6377 6.7422 80.7369 6.70749 80.8326 6.67401C81.2134 6.53454 81.539 6.40658 81.8012 6.29731C82.3559 6.14572 83.1553 5.89964 84.1045 5.58311C85.0553 5.2707 86.1547 4.88537 87.3489 4.5559C87.7881 4.43472 88.2204 4.3312 88.6405 4.24287C89.061 4.15476 89.4706 4.09272 89.8629 4.0424C90.6486 3.95325 91.3667 3.94566 91.9686 3.99085C92.5709 4.0348 93.0537 4.1262 93.3873 4.19214C93.7186 4.26937 93.902 4.31189 93.902 4.31189Z" fill="white"/>
<path d="M94.0479 4.60121C94.0479 4.60121 94.0089 4.57717 93.9343 4.53157C93.8973 4.50836 93.8506 4.48063 93.7937 4.45023C93.7372 4.41881 93.6719 4.38286 93.5954 4.3465C93.4443 4.27071 93.2521 4.18752 93.0175 4.11112C92.783 4.03512 92.5053 3.96632 92.1893 3.92832C91.8738 3.89052 91.5211 3.88128 91.1478 3.91188C90.7742 3.94105 90.3815 4.00883 89.9793 4.1029C89.5775 4.198 89.1658 4.31816 88.7471 4.45065C88.5389 4.51761 88.3273 4.58581 88.1123 4.65482C87.8989 4.72918 87.6823 4.80476 87.4632 4.88137C87.1658 4.98654 86.874 5.0915 86.5888 5.19564C86.3045 5.30122 86.0233 5.39919 85.7586 5.51031C85.2257 5.7264 84.7241 5.93529 84.2641 6.13083C84.0335 6.22799 83.8146 6.32371 83.6078 6.41634C83.4011 6.50919 83.2053 6.59709 83.0217 6.67967C82.6552 6.84584 82.3388 6.99209 82.0816 7.11225C81.5341 7.28827 80.7385 7.54667 79.7898 7.87449C79.3194 8.03203 78.802 8.183 78.2469 8.30357C77.692 8.42353 77.0978 8.50939 76.484 8.53034C76.033 8.54492 75.5915 8.5289 75.1746 8.46399L75.096 8.45414C75.07 8.45003 75.0445 8.44448 75.019 8.43976C74.9677 8.43011 74.9167 8.42025 74.8661 8.4108C74.8153 8.40135 74.7647 8.3919 74.7144 8.38245C74.6644 8.37136 74.6159 8.35759 74.5669 8.34547C74.4698 8.31918 74.3711 8.29886 74.2771 8.26907C74.1836 8.23867 74.091 8.20848 73.9996 8.1787L73.9312 8.1563L73.8654 8.1296C73.8216 8.11194 73.778 8.09448 73.7347 8.07702C73.65 8.0421 73.5565 8.00903 73.4863 7.97329C73.3365 7.89853 73.1936 7.80384 73.0581 7.70689C72.7871 7.51073 72.5405 7.30758 72.3042 7.13114C72.0687 6.95367 71.8417 6.80127 71.6263 6.68686C71.5179 6.63038 71.4126 6.58374 71.3126 6.54698C71.2112 6.51247 71.1166 6.48556 71.0285 6.47159C70.853 6.44037 70.713 6.45168 70.6233 6.46811C70.5777 6.47345 70.545 6.48557 70.5222 6.49009C70.4998 6.49584 70.4883 6.49871 70.4883 6.49871C70.4883 6.49871 70.5003 6.49747 70.5233 6.49521C70.5465 6.49398 70.5804 6.4868 70.6256 6.48803C70.715 6.48433 70.8489 6.49234 71.0064 6.54205C71.0854 6.56526 71.1692 6.60121 71.2575 6.64414C71.3447 6.68953 71.4359 6.74396 71.5292 6.80825C71.7153 6.93807 71.9104 7.10465 72.1181 7.29937C72.3273 7.49327 72.5472 7.7151 72.8121 7.94351C72.9458 8.05689 73.0913 8.17253 73.2683 8.27728C73.3611 8.33213 73.4474 8.36787 73.5387 8.41264C73.584 8.43421 73.6297 8.45577 73.6757 8.47755L73.7451 8.5102L73.8173 8.53855C73.9144 8.57593 74.0129 8.61373 74.1123 8.65193C74.2125 8.68911 74.3182 8.71664 74.423 8.74951C74.4759 8.76491 74.5285 8.78195 74.5822 8.79633C74.6367 8.80865 74.6913 8.82118 74.7464 8.83371C74.8015 8.84604 74.8569 8.85857 74.9124 8.8711C74.9402 8.87706 74.968 8.88404 74.9962 8.88918L75.0813 8.90253C75.5353 8.98654 76.0172 9.01181 76.5048 8.99599C77.1687 8.9734 77.8004 8.86699 78.3767 8.71869C78.9535 8.56977 79.4779 8.38265 79.9456 8.18752C80.8648 7.79315 81.62 7.45383 82.1351 7.21495C82.4086 7.12621 82.7435 7.0157 83.1288 6.88568C83.5129 6.75402 83.9483 6.6051 84.4239 6.44222C84.8993 6.27975 85.4131 6.10023 85.954 5.90551C86.2232 5.80486 86.5053 5.71613 86.79 5.61713C87.0755 5.51956 87.3661 5.41871 87.6608 5.31437C87.8774 5.23693 88.0913 5.16031 88.3022 5.08493C88.5147 5.01119 88.7241 4.93848 88.93 4.86721C89.3397 4.72404 89.7324 4.59073 90.1105 4.47899C90.4885 4.36869 90.8517 4.28099 91.1968 4.22738C91.5416 4.17254 91.868 4.15282 92.1663 4.16001C92.7641 4.17685 93.2422 4.30359 93.5597 4.41183C93.6401 4.43751 93.7099 4.46441 93.7704 4.48762C93.8316 4.51001 93.8822 4.53076 93.9228 4.54842C94.0048 4.58334 94.0479 4.60121 94.0479 4.60121Z" fill="white"/>
<path d="M92.9756 4.21798C92.9756 4.21798 93.033 4.2338 93.131 4.25783C93.18 4.27016 93.2378 4.29212 93.3033 4.31184C93.3663 4.33916 93.4388 4.36402 93.5072 4.40469C93.6466 4.4811 93.7823 4.59058 93.8559 4.7393C93.8781 4.77421 93.8896 4.8157 93.9063 4.85452C93.9115 4.87547 93.9171 4.89642 93.9232 4.91717C93.9302 4.93771 93.9307 4.96092 93.9356 4.98248C93.9483 5.07122 93.9542 5.16611 93.9413 5.26594C93.9137 5.53748 93.8033 5.79568 93.6689 6.00005C93.6032 6.1044 93.5246 6.19066 93.4519 6.26789C93.3763 6.34204 93.3029 6.40428 93.2371 6.4505C93.0723 6.48439 92.8333 6.50369 92.5698 6.46425C92.4304 6.43981 92.2789 6.41825 92.1394 6.37511C92.0698 6.35416 92.0018 6.33075 91.9411 6.30281C91.909 6.29008 91.8853 6.2722 91.8555 6.25865C91.8437 6.25023 91.8322 6.2416 91.82 6.23359L91.8017 6.22168L91.7873 6.20812C91.7274 6.15698 91.6935 6.1048 91.6748 6.03928C91.6576 5.97376 91.6628 5.89509 91.6845 5.81868C91.7286 5.66443 91.8349 5.52556 91.9483 5.45059C92.0054 5.41177 92.0648 5.39021 92.1222 5.38405C92.1296 5.38302 92.1369 5.38199 92.1439 5.38076C92.1509 5.38097 92.1579 5.38117 92.1646 5.38138C92.1784 5.38199 92.1924 5.38179 92.206 5.38282C92.231 5.38898 92.2579 5.39144 92.2796 5.39966C92.302 5.40828 92.3218 5.41588 92.3392 5.42266C92.3555 5.4319 92.3695 5.43971 92.3805 5.44608C92.4038 5.45922 92.4162 5.46621 92.4162 5.46621C92.4162 5.46621 92.4099 5.4547 92.3979 5.43293C92.3916 5.42204 92.3839 5.40808 92.3735 5.39164C92.3611 5.37706 92.3462 5.36001 92.3281 5.34029C92.3101 5.32099 92.2834 5.30455 92.2554 5.2836C92.2401 5.27518 92.2229 5.26738 92.2048 5.25896C92.1956 5.25485 92.1861 5.25074 92.1766 5.24643C92.1664 5.24356 92.1561 5.24089 92.1454 5.23781C92.0603 5.21234 91.9494 5.20966 91.8408 5.23698C91.6222 5.291 91.4022 5.43848 91.2647 5.67243C91.1978 5.78951 91.1506 5.9333 91.166 6.09474C91.1762 6.17464 91.1974 6.25823 91.2419 6.33526L91.2755 6.39298L91.3175 6.44577C91.3451 6.48233 91.379 6.51211 91.4135 6.5421L91.449 6.57209L91.4865 6.59735C91.5115 6.61399 91.5368 6.63043 91.5623 6.64563C91.6143 6.67028 91.6664 6.69862 91.7186 6.71607C91.823 6.7549 91.9255 6.7777 92.0239 6.7931C92.0727 6.79885 92.1208 6.8044 92.1683 6.80995C92.2148 6.81159 92.2606 6.81303 92.3058 6.81446C92.351 6.81652 92.3943 6.81447 92.4365 6.81201C92.4788 6.80954 92.5201 6.80727 92.5608 6.80481C92.6028 6.80009 92.6445 6.79413 92.6845 6.78859C92.7044 6.78571 92.724 6.78262 92.7435 6.77975C92.7627 6.77523 92.7814 6.77072 92.8001 6.7662C92.8367 6.75675 92.8726 6.74771 92.9072 6.73888C92.9411 6.72758 92.9731 6.71526 93.0041 6.70396C93.1276 6.65775 93.2229 6.60084 93.2947 6.55134C93.3844 6.53327 93.4921 6.49958 93.6113 6.44638C93.7272 6.39031 93.858 6.31677 93.9763 6.21222C94.2148 6.00785 94.4347 5.69358 94.4756 5.30722C94.4928 5.16652 94.4767 5.02336 94.4379 4.88944C94.4264 4.85595 94.4189 4.82269 94.4031 4.79065C94.388 4.75881 94.3731 4.72737 94.3582 4.69636C94.3209 4.63638 94.2859 4.57764 94.2376 4.52711C94.1947 4.47391 94.1405 4.43078 94.0901 4.38908C94.0644 4.36875 94.035 4.35231 94.0081 4.33506C93.9808 4.31822 93.9546 4.30075 93.9255 4.28884C93.8686 4.26296 93.815 4.23729 93.7593 4.22332C93.7322 4.21552 93.7055 4.20771 93.6793 4.20032C93.6534 4.19354 93.6267 4.19066 93.6016 4.18594C93.5014 4.16601 93.4099 4.16786 93.3327 4.16602C93.2545 4.17218 93.189 4.17505 93.1364 4.18449C93.0307 4.20462 92.9756 4.21798 92.9756 4.21798Z" fill="white"/>
<path d="M71.8663 4.90317C71.8663 4.90317 71.8426 4.89454 71.7977 4.87852C71.7521 4.86373 71.6845 4.84093 71.5913 4.82367C71.5445 4.81525 71.4914 4.80746 71.43 4.80725C71.369 4.80684 71.2986 4.81177 71.2227 4.84094C71.1459 4.86887 71.0703 4.93111 71.0341 5.01429C70.9969 5.09646 70.9953 5.18478 71.0093 5.26899C71.0407 5.43763 71.1319 5.59949 71.2719 5.74861C71.3428 5.82276 71.4275 5.89361 71.533 5.9538C71.6373 6.01377 71.7663 6.0641 71.9192 6.07827C71.9951 6.08526 72.0766 6.08196 72.1563 6.06574C72.236 6.04951 72.3124 6.02076 72.3806 5.9842C72.449 5.94764 72.5095 5.90348 72.5608 5.85562C72.6134 5.80817 72.6574 5.75723 72.6965 5.70506C72.7353 5.65288 72.7694 5.59908 72.7984 5.54485C72.8282 5.49021 72.8539 5.43701 72.8758 5.37662C72.8869 5.34704 72.8984 5.31766 72.9088 5.28747C72.9167 5.25604 72.9244 5.22463 72.9323 5.19299L72.9433 5.14534L72.949 5.09583C72.9521 5.06256 72.9571 5.02969 72.9576 4.9958C72.963 4.81156 72.9079 4.62238 72.8058 4.46669C72.7044 4.30976 72.5639 4.18652 72.416 4.09389C72.1172 3.908 71.7945 3.83159 71.5032 3.8016C71.21 3.77264 70.9418 3.79646 70.7157 3.84617C70.489 3.89485 70.3063 3.97578 70.173 4.05547C70.0974 4.08074 70.0136 4.11381 69.9284 4.1627C69.9072 4.17523 69.8855 4.18796 69.8634 4.2009C69.8419 4.21466 69.8216 4.23088 69.7999 4.24649C69.7548 4.27813 69.7177 4.31263 69.6762 4.34817C69.5965 4.4217 69.5154 4.50633 69.4438 4.60862C69.3724 4.7107 69.311 4.8321 69.2801 4.97116C69.248 5.1096 69.2552 5.26489 69.2992 5.41319C69.344 5.56149 69.423 5.70177 69.521 5.82789C69.7177 6.08156 69.9783 6.2886 70.2559 6.47531C70.6671 6.7485 71.0824 6.95473 71.4562 7.14041C71.8306 7.32466 72.1667 7.48487 72.4375 7.63358C72.7091 7.78106 72.9149 7.91805 73.0443 8.02712C73.11 8.08094 73.1563 8.12716 73.1877 8.159C73.218 8.19186 73.2338 8.20912 73.2338 8.20912C73.2338 8.20912 73.2247 8.18837 73.2073 8.14873C73.1881 8.1097 73.1583 8.05198 73.11 7.98194C73.0156 7.84062 72.8453 7.65145 72.603 7.45016C72.3618 7.24743 72.0513 7.03236 71.7019 6.81012C71.3535 6.58705 70.9623 6.35824 70.5827 6.10559C70.3259 5.93388 70.091 5.75949 69.9221 5.57565C69.7505 5.39202 69.6615 5.20203 69.6696 5.01347C69.6759 4.82368 69.7735 4.63984 69.881 4.48805C69.9095 4.45087 69.9361 4.41206 69.9641 4.38207C69.9781 4.36625 69.991 4.34982 70.0054 4.33503C70.0208 4.32065 70.0357 4.30668 70.0504 4.29292C70.1098 4.23767 70.1737 4.1933 70.2338 4.1555C70.3731 4.11196 70.5499 4.07581 70.7557 4.06985C70.9607 4.06307 71.1933 4.08053 71.4325 4.13722C71.5515 4.16598 71.6723 4.20296 71.7889 4.25143C71.9045 4.30094 72.0161 4.36132 72.1127 4.43362C72.2094 4.50592 72.2902 4.59013 72.3437 4.68297C72.3975 4.77582 72.4246 4.87687 72.4219 4.98676C72.4217 5.00689 72.4178 5.02765 72.4165 5.04798L72.414 5.07858L72.4068 5.1096L72.3934 5.17163L72.372 5.23386C72.3596 5.27453 72.3408 5.31869 72.3216 5.35854C72.3029 5.39921 72.2816 5.43681 72.2595 5.47152C72.2152 5.54136 72.1638 5.59681 72.1125 5.63111C72.0608 5.66624 72.0102 5.68349 71.947 5.68555C71.8194 5.69151 71.6579 5.62002 71.5371 5.528C71.414 5.43557 71.3175 5.32137 71.2703 5.21436C71.2473 5.16116 71.2369 5.11001 71.243 5.06934C71.2478 5.0297 71.2703 4.99375 71.3072 4.9689C71.3446 4.94261 71.3946 4.92515 71.4436 4.91468C71.4926 4.90338 71.5411 4.89906 71.5852 4.89619C71.6737 4.89105 71.7448 4.89557 71.7929 4.89783C71.841 4.90153 71.8663 4.90317 71.8663 4.90317Z" fill="white"/>
<path d="M117.459 4.76071L117.672 5.58068C117.675 5.59115 117.675 5.60205 117.672 5.61252L117.449 6.38648C117.432 6.44522 117.505 6.49287 117.565 6.46268L118.228 6.1324C118.456 6.01881 118.701 5.93377 118.956 5.87954L119.94 5.67044C120.017 5.6538 120.021 5.55891 119.945 5.53817L118.798 5.22801C118.651 5.18816 118.509 5.13557 118.375 5.07087L117.573 4.68554C117.514 4.65679 117.444 4.703 117.459 4.76071Z" fill="white"/>
<path d="M97.1784 5.41279C96.9546 5.22999 96.4955 4.99316 96.2233 4.99316C95.8539 4.99316 95.5542 5.25382 95.5542 5.57507C95.5542 5.89652 95.8539 6.15696 96.2233 6.15696C96.5099 6.15696 97.0041 5.93698 97.2118 5.73733H115.999V5.57507V5.41279H97.1784Z" fill="white"/>
<path d="M116.478 5.1582C116.214 5.1582 115.999 5.34492 115.999 5.57517C115.999 5.80543 116.214 5.99213 116.478 5.99213C116.743 5.99213 116.958 5.80543 116.958 5.57517C116.958 5.34492 116.743 5.1582 116.478 5.1582Z" fill="white"/>
<path d="M43.9526 4.60078C43.9526 4.60078 43.9867 4.57141 44.0516 4.51574C44.1173 4.46049 44.2105 4.37463 44.3474 4.28056C44.613 4.0846 45.0324 3.8264 45.6098 3.60313C45.6821 3.57561 45.7557 3.54625 45.832 3.51872C45.9093 3.49346 45.9883 3.46778 46.0692 3.44148C46.1096 3.42854 46.1505 3.4154 46.1918 3.40226C46.2338 3.39075 46.276 3.37925 46.3187 3.36754C46.4043 3.34454 46.4913 3.31989 46.5805 3.2975C46.9386 3.21205 47.3275 3.14016 47.7408 3.0884C48.1543 3.04013 48.5911 3.00994 49.0441 3.00172C49.4969 2.99433 49.9655 3.01096 50.4427 3.04773C51.7406 3.15043 52.9285 3.39835 53.9118 3.67893C54.4039 3.81942 54.8456 3.96896 55.2282 4.11459C55.6112 4.25981 55.9335 4.404 56.192 4.52149C56.7438 4.69176 57.5401 4.95735 58.4951 5.27224C58.9737 5.4267 59.4911 5.59615 60.0428 5.75718C60.5945 5.91822 61.1787 6.07556 61.7887 6.21174C62.6866 6.40851 63.5561 6.53525 64.3556 6.58804C65.1379 6.65356 65.8495 6.53402 66.4436 6.4116C66.7408 6.34957 67.0087 6.28342 67.2447 6.22468C67.4805 6.16614 67.6844 6.11458 67.852 6.07535C68.0193 6.03571 68.1507 6.00798 68.2399 5.99134C68.3294 5.97512 68.3764 5.9667 68.3764 5.9667C68.3764 5.9667 68.3316 5.98189 68.2467 6.01065C68.162 6.03961 68.038 6.08418 67.8795 6.14437C67.7207 6.20455 67.5268 6.27829 67.3014 6.36395C67.0751 6.44857 66.8154 6.54326 66.5207 6.63508C66.2262 6.72689 65.8964 6.81726 65.5304 6.88464C65.4387 6.90107 65.3456 6.91874 65.249 6.92983C65.153 6.94298 65.0552 6.95633 64.9545 6.9629C64.9041 6.96701 64.8535 6.97112 64.8025 6.97523C64.7515 6.97851 64.6995 6.97872 64.6473 6.98057C64.5952 6.9818 64.5426 6.98323 64.4897 6.98447C64.4384 6.98323 64.3867 6.9822 64.3348 6.98097C63.5024 6.9709 62.5868 6.86779 61.6566 6.66363C61.0252 6.52272 60.4283 6.34751 59.8738 6.16183C59.3192 5.97594 58.809 5.77527 58.3422 5.58671C57.412 5.20363 56.6598 4.85856 56.1401 4.62501C55.8641 4.53875 55.5292 4.43255 55.1372 4.32677C54.7451 4.22037 54.2973 4.1111 53.8041 4.00717C52.8181 3.79992 51.6503 3.61135 50.3944 3.51214C49.9328 3.47661 49.4811 3.45341 49.045 3.44807C48.6092 3.44355 48.1891 3.45464 47.7898 3.4797C47.3912 3.50825 47.0147 3.5522 46.6647 3.60807C46.5775 3.62307 46.4926 3.64011 46.4086 3.65551C46.3666 3.66332 46.325 3.67113 46.2837 3.67873C46.2431 3.68797 46.2026 3.69721 46.1629 3.70625C46.0829 3.72453 46.0046 3.7426 45.928 3.76027C45.8521 3.77999 45.7787 3.80155 45.7065 3.82127C45.1286 3.98231 44.6873 4.18237 44.3964 4.34053C44.2471 4.4155 44.1412 4.48678 44.0665 4.53197C43.9919 4.57674 43.9526 4.60078 43.9526 4.60078Z" fill="white"/>
<path d="M44.0986 4.31189C44.0986 4.31189 44.142 4.29484 44.2242 4.26218C44.3071 4.23055 44.4279 4.18023 44.5876 4.12292C44.9087 4.01468 45.3821 3.86452 45.9948 3.76017C46.6061 3.65501 47.3559 3.60222 48.1838 3.65132C48.5964 3.6813 49.0289 3.72834 49.4697 3.80721C49.9098 3.8865 50.3608 3.98673 50.8132 4.11161C51.4284 4.28045 52.0081 4.47703 52.5485 4.67668C53.0889 4.87654 53.5905 5.07947 54.0503 5.26967C54.9686 5.65192 55.7226 5.97708 56.2468 6.19255C56.5228 6.26916 56.8627 6.35995 57.2545 6.4608C57.6486 6.56001 58.0901 6.66086 58.5858 6.77157C59.0779 6.88372 59.6081 7.00963 60.1691 7.13C60.7299 7.25016 61.3218 7.36456 61.9356 7.44405C62.8376 7.56216 63.7059 7.58065 64.4693 7.45495C64.5169 7.44694 64.5641 7.43893 64.6111 7.43091C64.6576 7.42126 64.7039 7.41181 64.7498 7.40216C64.8423 7.3849 64.9306 7.35923 65.0194 7.33828C65.1059 7.31404 65.1949 7.28877 65.2748 7.2631C65.3534 7.23824 65.4295 7.20579 65.5043 7.17272C65.8026 7.0351 66.0668 6.85743 66.3137 6.69968C66.5601 6.54029 66.7906 6.39692 67.0083 6.28991C67.2249 6.18166 67.4284 6.11162 67.5994 6.07588C67.7705 6.03891 67.9074 6.0348 67.9984 6.03808C68.044 6.03788 68.0786 6.04302 68.1016 6.04425C68.1246 6.04631 68.1364 6.04712 68.1364 6.04712C68.1364 6.04712 68.1244 6.04794 68.1014 6.04938C68.0783 6.05164 68.044 6.05123 67.9995 6.058C67.9108 6.06725 67.7802 6.08963 67.6249 6.1453C67.4693 6.19973 67.2906 6.28786 67.1012 6.41336C66.9106 6.53763 66.7091 6.69783 66.4846 6.8792C66.2583 7.05913 66.0119 7.26515 65.689 7.44775C65.6073 7.49212 65.5223 7.5365 65.4288 7.57408C65.3374 7.61106 65.2486 7.64288 65.1551 7.67616C65.061 7.70533 64.9663 7.73902 64.8674 7.76408C64.8182 7.77743 64.7685 7.79078 64.7186 7.80413C64.6682 7.81564 64.6174 7.82714 64.5662 7.83885C64.4641 7.86329 64.3588 7.87951 64.2529 7.89944C64.1463 7.91443 64.0386 7.93292 63.9291 7.94319C63.7102 7.96928 63.4855 7.98159 63.2574 7.98693C62.8008 7.99617 62.3301 7.96537 61.8566 7.90498C61.2125 7.82159 60.6048 7.68952 60.0397 7.54533C59.4745 7.40072 58.9505 7.24379 58.4706 7.09775C58.231 7.02483 58.002 6.955 57.7823 6.88372C57.7276 6.86606 57.6736 6.84881 57.6203 6.83176C57.5677 6.81348 57.5158 6.7956 57.4645 6.77794C57.3624 6.7422 57.2633 6.70749 57.1675 6.67401C56.7868 6.53454 56.4611 6.40658 56.1989 6.29731C55.6443 6.14572 54.8448 5.89964 53.8959 5.58311C52.9451 5.2707 51.8457 4.88537 50.6515 4.5559C50.2122 4.43472 49.78 4.3312 49.3599 4.24287C48.9397 4.15476 48.5298 4.09272 48.1375 4.0424C47.3518 3.95325 46.6334 3.94566 46.0318 3.99085C45.4295 4.0348 44.9466 4.1262 44.6131 4.19214C44.282 4.26937 44.0986 4.31189 44.0986 4.31189Z" fill="white"/>
<path d="M43.9526 4.60121C43.9526 4.60121 43.9917 4.57717 44.0662 4.53157C44.1033 4.50836 44.15 4.48063 44.2069 4.45023C44.2634 4.41881 44.3287 4.38286 44.405 4.3465C44.5561 4.27071 44.7485 4.18752 44.9829 4.11112C45.2173 4.03512 45.4951 3.96632 45.811 3.92832C46.1265 3.89052 46.4791 3.88128 46.8524 3.91188C47.2259 3.94105 47.6189 4.00883 48.0208 4.1029C48.4226 4.198 48.8343 4.31816 49.253 4.45065C49.4612 4.51761 49.6728 4.58581 49.8878 4.65482C50.1012 4.72918 50.3178 4.80476 50.5369 4.88137C50.8343 4.98654 51.1261 5.0915 51.4113 5.19564C51.6957 5.30122 51.9768 5.39919 52.2415 5.51031C52.7745 5.7264 53.276 5.93529 53.7361 6.13083C53.9667 6.22799 54.1855 6.32371 54.3924 6.41634C54.599 6.50919 54.7948 6.59709 54.9784 6.67967C55.3449 6.84584 55.6613 6.99209 55.9186 7.11225C56.466 7.28827 57.2616 7.54667 58.2103 7.87449C58.6808 8.03203 59.1981 8.183 59.7532 8.30357C60.3081 8.42353 60.9023 8.50939 61.5161 8.53034C61.9671 8.54492 62.4086 8.5289 62.8255 8.46399L62.9041 8.45414C62.9301 8.45003 62.9556 8.44448 62.9811 8.43976C63.0324 8.43011 63.0834 8.42025 63.134 8.4108C63.1848 8.40135 63.2354 8.3919 63.2858 8.38245C63.3357 8.37136 63.3842 8.35759 63.4332 8.34547C63.5304 8.31918 63.629 8.29886 63.723 8.26907C63.8165 8.23867 63.9091 8.20848 64.0005 8.1787L64.069 8.1563L64.1349 8.1296C64.1787 8.11194 64.2223 8.09448 64.2657 8.07702C64.3504 8.0421 64.4439 8.00903 64.5139 7.97329C64.6636 7.89853 64.8066 7.80384 64.9421 7.70689C65.2131 7.51073 65.4597 7.30758 65.6959 7.13114C65.9314 6.95367 66.1584 6.80127 66.3739 6.68686C66.4823 6.63038 66.5875 6.58374 66.6875 6.54698C66.7889 6.51247 66.8836 6.48556 66.9716 6.47159C67.1471 6.44037 67.2871 6.45168 67.3768 6.46811C67.4224 6.47345 67.4552 6.48557 67.478 6.49009C67.5003 6.49584 67.5118 6.49871 67.5118 6.49871C67.5118 6.49871 67.4999 6.49747 67.4766 6.49521C67.4534 6.49398 67.4197 6.4868 67.3743 6.48803C67.2849 6.48433 67.151 6.49234 66.9935 6.54205C66.9145 6.56526 66.8307 6.60121 66.7424 6.64414C66.6552 6.68953 66.564 6.74396 66.4707 6.80825C66.2846 6.93807 66.0895 7.10465 65.8818 7.29937C65.6726 7.49327 65.4527 7.7151 65.1878 7.94351C65.0541 8.05689 64.9086 8.17253 64.7316 8.27728C64.6388 8.33213 64.5525 8.36787 64.4613 8.41264C64.4159 8.43421 64.3702 8.45577 64.3244 8.47755L64.2551 8.5102L64.1828 8.53855C64.0857 8.57593 63.9872 8.61373 63.8879 8.65193C63.7876 8.68911 63.6819 8.71664 63.5771 8.74951C63.5243 8.76491 63.4716 8.78195 63.4179 8.79633C63.3635 8.80865 63.3088 8.82118 63.2537 8.83371C63.1986 8.84604 63.1433 8.85857 63.0877 8.8711C63.0599 8.87706 63.0322 8.88404 63.0039 8.88918L62.9188 8.90253C62.4649 8.98654 61.9829 9.01181 61.4954 8.99599C60.8314 8.9734 60.1997 8.86699 59.6234 8.71869C59.0466 8.56977 58.5222 8.38265 58.0545 8.18752C57.1354 7.79315 56.3802 7.45383 55.865 7.21495C55.5915 7.12621 55.2566 7.0157 54.8714 6.88568C54.487 6.75402 54.0518 6.6051 53.5762 6.44222C53.1008 6.27975 52.587 6.10023 52.0461 5.90551C51.777 5.80486 51.4949 5.71613 51.2101 5.61713C50.9249 5.51956 50.634 5.41871 50.3393 5.31437C50.1227 5.23693 49.9088 5.16031 49.6979 5.08493C49.4854 5.01119 49.276 4.93848 49.0701 4.86721C48.6604 4.72404 48.2677 4.59073 47.8896 4.47899C47.5118 4.36869 47.1484 4.28099 46.8034 4.22738C46.4585 4.17254 46.1322 4.15282 45.8339 4.16001C45.2361 4.17685 44.758 4.30359 44.4404 4.41183C44.36 4.43751 44.2903 4.46441 44.2297 4.48762C44.1685 4.51001 44.1179 4.53076 44.0773 4.54842C43.9958 4.58334 43.9526 4.60121 43.9526 4.60121Z" fill="white"/>
<path d="M45.0259 4.21798C45.0259 4.21798 44.9685 4.2338 44.8705 4.25783C44.8215 4.27016 44.7637 4.29212 44.6982 4.31184C44.6352 4.33916 44.5627 4.36402 44.4942 4.40469C44.3549 4.4811 44.2192 4.59058 44.1455 4.7393C44.1234 4.77421 44.1119 4.8157 44.0952 4.85452C44.09 4.87547 44.0843 4.89642 44.0782 4.91717C44.0712 4.93771 44.0708 4.96092 44.0661 4.98248C44.0532 5.07122 44.0475 5.16611 44.0604 5.26594C44.088 5.53748 44.1984 5.79568 44.3328 6.00005C44.3985 6.1044 44.4771 6.19066 44.5498 6.26789C44.6255 6.34204 44.6988 6.40428 44.7646 6.4505C44.9294 6.48439 45.1684 6.50369 45.4317 6.46425C45.571 6.43981 45.7226 6.41825 45.8621 6.37511C45.9317 6.35416 45.9997 6.33075 46.0604 6.30281C46.0925 6.29008 46.1162 6.2722 46.146 6.25865C46.158 6.25023 46.1693 6.2416 46.1815 6.23359L46.1998 6.22168L46.2142 6.20812C46.2741 6.15698 46.3079 6.1048 46.3267 6.03928C46.3438 5.97376 46.3386 5.89509 46.317 5.81868C46.2729 5.66443 46.1666 5.52556 46.0532 5.45059C45.996 5.41177 45.9367 5.39021 45.8793 5.38405C45.8718 5.38302 45.8646 5.38199 45.8576 5.38076C45.8506 5.38097 45.8436 5.38117 45.8368 5.38138C45.8231 5.38199 45.8088 5.38179 45.7953 5.38282C45.7702 5.38898 45.7433 5.39144 45.7217 5.39966C45.6993 5.40828 45.6794 5.41588 45.662 5.42266C45.6458 5.4319 45.632 5.43971 45.6207 5.44608C45.5974 5.45922 45.585 5.46621 45.585 5.46621C45.585 5.46621 45.5913 5.4547 45.6033 5.43293C45.6096 5.42204 45.6175 5.40808 45.6277 5.39164C45.6401 5.37706 45.655 5.36001 45.6731 5.34029C45.6912 5.32099 45.7178 5.30455 45.7458 5.2836C45.7612 5.27518 45.7783 5.26738 45.7964 5.25896C45.8057 5.25485 45.8152 5.25074 45.8246 5.24643C45.8348 5.24356 45.8452 5.24089 45.8558 5.23781C45.9409 5.21234 46.0518 5.20966 46.1605 5.23698C46.3791 5.291 46.599 5.43848 46.7366 5.67243C46.8034 5.78951 46.8506 5.9333 46.8353 6.09474C46.8251 6.17464 46.8039 6.25823 46.7594 6.33526L46.7257 6.39298L46.6837 6.44577C46.6562 6.48233 46.6223 6.51211 46.5877 6.5421L46.5523 6.57209L46.5148 6.59735C46.4897 6.61399 46.4644 6.63043 46.4389 6.64563C46.387 6.67028 46.3348 6.69862 46.2826 6.71607C46.1783 6.7549 46.0758 6.7777 45.9773 6.7931C45.9285 6.79885 45.8804 6.8044 45.8328 6.80995C45.7862 6.81159 45.7404 6.81303 45.6952 6.81446C45.6501 6.81652 45.6067 6.81447 45.5645 6.81201C45.5222 6.80954 45.4809 6.80727 45.4403 6.80481C45.3983 6.80009 45.3565 6.79413 45.3165 6.78859C45.2966 6.78571 45.277 6.78262 45.2576 6.77975C45.2384 6.77523 45.2194 6.77072 45.2009 6.7662C45.1643 6.75675 45.1286 6.74771 45.0938 6.73888C45.06 6.72758 45.0279 6.71526 44.9969 6.70396C44.8734 6.65775 44.7781 6.60084 44.7063 6.55134C44.6166 6.53327 44.5089 6.49958 44.3897 6.44638C44.2738 6.39031 44.1431 6.31677 44.0247 6.21222C43.7862 6.00785 43.5663 5.69358 43.5254 5.30722C43.5082 5.16652 43.5243 5.02336 43.5631 4.88944C43.5746 4.85595 43.5821 4.82269 43.5979 4.79065C43.613 4.75881 43.6279 4.72737 43.6428 4.69636C43.6801 4.63638 43.7151 4.57764 43.7634 4.52711C43.8063 4.47391 43.8605 4.43078 43.9109 4.38908C43.9366 4.36875 43.966 4.35231 43.9929 4.33506C44.0204 4.31822 44.0464 4.30075 44.0755 4.28884C44.1324 4.26296 44.186 4.23729 44.2418 4.22332C44.2689 4.21552 44.2955 4.20771 44.3217 4.20032C44.3477 4.19354 44.3743 4.19066 44.3994 4.18594C44.4997 4.16601 44.5911 4.16786 44.6684 4.16602C44.7465 4.17218 44.812 4.17505 44.8646 4.18449C44.9705 4.20462 45.0259 4.21798 45.0259 4.21798Z" fill="white"/>
<path d="M66.1346 4.90317C66.1346 4.90317 66.1583 4.89454 66.2032 4.87852C66.2488 4.86373 66.3164 4.84093 66.4096 4.82367C66.4564 4.81525 66.5095 4.80746 66.5709 4.80725C66.6319 4.80684 66.7023 4.81177 66.7782 4.84094C66.855 4.86887 66.9306 4.93111 66.9668 5.01429C67.004 5.09646 67.0056 5.18478 66.9916 5.26899C66.9602 5.43763 66.869 5.59949 66.729 5.74861C66.6581 5.82276 66.5734 5.89361 66.4679 5.9538C66.3636 6.01377 66.2346 6.0641 66.0817 6.07827C66.0058 6.08526 65.9243 6.08196 65.8448 6.06574C65.7651 6.04951 65.6885 6.02076 65.6206 5.9842C65.5521 5.94764 65.4916 5.90348 65.4403 5.85562C65.3877 5.80817 65.3437 5.75723 65.3046 5.70506C65.2658 5.65288 65.2317 5.59908 65.2028 5.54485C65.173 5.49021 65.1472 5.43701 65.1253 5.37662C65.1142 5.34704 65.1027 5.31766 65.0921 5.28747C65.0844 5.25604 65.0765 5.22463 65.0686 5.19299L65.0578 5.14534L65.0521 5.09583C65.049 5.06256 65.044 5.02969 65.0436 4.9958C65.0381 4.81156 65.0932 4.62238 65.1953 4.46669C65.2967 4.30976 65.4372 4.18652 65.5851 4.09389C65.8839 3.908 66.2066 3.83159 66.4979 3.8016C66.7911 3.77264 67.0594 3.79646 67.2854 3.84617C67.5122 3.89485 67.6951 3.97578 67.8281 4.05547C67.9038 4.08074 67.9876 4.11381 68.0727 4.1627C68.0939 4.17523 68.1156 4.18796 68.1377 4.2009C68.1594 4.21466 68.1795 4.23088 68.2014 4.24649C68.2466 4.27813 68.2836 4.31263 68.3252 4.34817C68.4049 4.4217 68.486 4.50633 68.5576 4.60862C68.6289 4.7107 68.6904 4.8321 68.7213 4.97116C68.7534 5.1096 68.7461 5.26489 68.7021 5.41319C68.6574 5.56149 68.5783 5.70177 68.4803 5.82789C68.2836 6.08156 68.023 6.2886 67.7455 6.47531C67.3342 6.7485 66.9189 6.95473 66.5451 7.14041C66.1707 7.32466 65.8347 7.48487 65.5639 7.63358C65.2922 7.78106 65.0865 7.91805 64.9571 8.02712C64.8913 8.08094 64.845 8.12716 64.8137 8.159C64.7834 8.19186 64.7676 8.20912 64.7676 8.20912C64.7676 8.20912 64.7766 8.18837 64.794 8.14873C64.8132 8.1097 64.843 8.05198 64.8913 7.98194C64.9857 7.84062 65.156 7.65145 65.3983 7.45016C65.6395 7.24743 65.9501 7.03236 66.2994 6.81012C66.6479 6.58705 67.039 6.35824 67.4187 6.10559C67.6754 5.93388 67.9103 5.75949 68.0792 5.57565C68.2509 5.39202 68.3399 5.20203 68.3317 5.01347C68.3254 4.82368 68.2278 4.63984 68.1203 4.48805C68.0919 4.45087 68.0652 4.41206 68.0372 4.38207C68.0232 4.36625 68.0104 4.34982 67.9959 4.33503C67.9806 4.32065 67.9656 4.30668 67.951 4.29292C67.8916 4.23767 67.8277 4.1933 67.7676 4.1555C67.6282 4.11196 67.4514 4.07581 67.2457 4.06985C67.0406 4.06307 66.808 4.08053 66.5688 4.13722C66.4498 4.16598 66.329 4.20296 66.2125 4.25143C66.0969 4.30094 65.9853 4.36132 65.8886 4.43362C65.792 4.50592 65.7111 4.59013 65.6576 4.68297C65.6039 4.77582 65.5767 4.87687 65.5795 4.98676C65.5797 5.00689 65.5835 5.02765 65.5849 5.04798L65.5874 5.07858L65.5946 5.1096L65.6079 5.17163L65.6294 5.23386C65.6418 5.27453 65.6605 5.31869 65.6797 5.35854C65.6985 5.39921 65.7197 5.43681 65.7421 5.47152C65.7863 5.54136 65.8376 5.59681 65.8891 5.63111C65.9408 5.66624 65.9914 5.68349 66.0546 5.68555C66.1822 5.69151 66.3437 5.62002 66.4645 5.528C66.5876 5.43557 66.684 5.32137 66.7312 5.21436C66.7543 5.16116 66.7646 5.11001 66.7586 5.06934C66.7538 5.0297 66.7312 4.99375 66.6944 4.9689C66.6569 4.94261 66.607 4.92515 66.558 4.91468C66.509 4.90338 66.4604 4.89906 66.4164 4.89619C66.3279 4.89105 66.2565 4.89557 66.2086 4.89783C66.1601 4.90153 66.1346 4.90317 66.1346 4.90317Z" fill="white"/>
<path d="M20.5417 4.76071L20.3278 5.58068C20.3251 5.59115 20.3253 5.60205 20.3282 5.61252L20.5509 6.38648C20.5679 6.44522 20.4956 6.49287 20.4351 6.46268L19.7725 6.1324C19.5446 6.01881 19.2996 5.93377 19.0446 5.87954L18.0602 5.67044C17.9825 5.6538 17.9791 5.55891 18.0554 5.53817L19.2018 5.22801C19.3486 5.18816 19.4904 5.13557 19.625 5.07087L20.4263 4.68554C20.4861 4.65679 20.5568 4.703 20.5417 4.76071Z" fill="white"/>
<path d="M40.8222 5.41279C41.046 5.22999 41.5051 4.99316 41.7772 4.99316C42.1467 4.99316 42.4464 5.25382 42.4464 5.57507C42.4464 5.89652 42.1469 6.15696 41.7772 6.15696C41.4907 6.15696 40.9965 5.93698 40.7888 5.73733H22.0015V5.57507V5.41279H40.8222Z" fill="white"/>
<path d="M21.5222 5.1582C21.7869 5.1582 22.0016 5.34492 22.0016 5.57517C22.0016 5.80543 21.7871 5.99213 21.5222 5.99213C21.2575 5.99213 21.043 5.80543 21.043 5.57517C21.0427 5.34492 21.2575 5.1582 21.5222 5.1582Z" fill="white"/>
</svg>
